<svg width="114" height="26" viewBox="0 0 114 26" fill="none" xmlns="http://www.w3.org/2000/svg">
<path d="M18.2461 15.4265C16.7409 19.6655 14.0378 21.785 11.0582 21.785C5.43697 21.785 4.11612 14.8121 4.11612 11.2489C4.11612 7.68572 5.43697 0.743607 11.0582 0.743607C14.0378 0.743607 16.4031 2.58665 17.7239 6.11914H18.2461L16.2802 0.497868H13.6385C12.8398 0.313565 11.9798 0.190695 11.0582 0.190695C4.66903 0.190695 0.614347 5.38192 0.614347 11.2489C0.614347 17.1159 4.66903 22.3072 11.0582 22.3072C11.9798 22.3072 12.8398 22.215 13.6385 22H16.4645L18.799 15.3958L18.2461 15.4265ZM27.5484 7.50142C23.2787 7.50142 20.0227 10.9725 20.0227 14.9043C20.0227 18.8361 23.2787 22.3072 27.5484 22.3072C31.8181 22.3072 35.0742 18.8361 35.0742 14.9043C35.0742 10.9725 31.8181 7.50142 27.5484 7.50142ZM27.5484 21.7543C23.893 21.7543 23.248 17.3002 23.248 14.9043C23.248 12.4776 23.893 8.05433 27.5484 8.05433C31.2038 8.05433 31.8488 12.4776 31.8488 14.9043C31.8488 17.3002 31.2038 21.7543 27.5484 21.7543ZM60.8309 21.4471V12.9077C60.8309 8.66868 58.2813 7.50142 55.9161 7.50142C52.9672 7.50142 51.6464 9.28302 51.0935 11.3104C50.5406 8.3615 48.3596 7.50142 46.3016 7.50142C43.5984 7.50142 42.2776 9.00657 41.6325 10.8496V7.80859H36.3184V8.3615H38.4994V21.4471H36.3184V22H43.8135V21.4471H41.6325V13.7678C41.6633 11.9554 42.4926 8.05433 45.7179 8.05433C47.9603 8.05433 48.0832 10.3581 48.0832 12.0783V21.4471H46.1173V22H53.213V21.4471H51.2471V13.7985C51.2471 12.0169 52.0764 8.05433 55.3325 8.05433C57.5748 8.05433 57.6977 10.3581 57.6977 12.0783V21.4471H55.5168V22H63.0425V21.4471H60.8309ZM88.7884 21.4471V12.9077C88.7884 8.66868 86.2389 7.50142 83.8737 7.50142C80.9248 7.50142 79.604 9.28302 79.051 11.3104C78.4981 8.3615 76.3172 7.50142 74.2591 7.50142C71.556 7.50142 70.2352 9.00657 69.5901 10.8496V7.80859H64.276V8.3615H66.4569V21.4471H64.276V22H71.771V21.4471H69.5901V13.7678C69.6208 11.9554 70.4502 8.05433 73.6755 8.05433C75.9179 8.05433 76.0407 10.3581 76.0407 12.0783V21.4471H74.0748V22H81.1705V21.4471H79.2046V13.7985C79.2046 12.0169 80.034 8.05433 83.29 8.05433C85.5324 8.05433 85.6553 10.3581 85.6553 12.0783V21.4471H83.4743V22H91.0001V21.4471H88.7884ZM105.442 21.4471V13.3377C105.534 8.85298 103.2 7.50142 98.93 7.50142C98.2542 7.50142 97.4248 7.68572 97.0255 7.80859H95.0903L93.7694 11.4947H94.3224C95.1824 9.12944 96.749 8.05433 98.7457 8.05433C102.094 8.05433 102.309 10.8496 102.309 14.1056V14.2592C101.664 13.1227 100.404 11.9554 98.0392 11.9554C95.1517 11.9554 91.9264 13.4299 91.9264 17.1467C91.9264 20.8327 95.1517 22.3072 98.0392 22.3072C100.404 22.3072 101.664 21.1399 102.309 20.0034V22H107.623V21.4471H105.442ZM102.309 18.0989C102.309 19.2662 101.295 21.7543 98.377 21.7543C95.8889 21.7543 94.8753 19.4197 94.8753 17.1467C94.8753 14.8429 95.8889 12.5083 98.377 12.5083C101.295 12.5083 102.309 14.9964 102.309 16.1637V18.0989ZM111.087 18.4368C110.012 18.4368 109.152 19.2969 109.152 20.372C109.152 21.4471 110.043 22.3072 111.087 22.3072C111.855 22.3072 112.316 21.7543 112.316 21.7543C111.978 23.0751 111.456 24.0273 110.166 25.1025L110.504 25.4711C112.255 24.0888 113.022 22.2457 113.022 20.372C113.022 19.2969 112.162 18.4368 111.087 18.4368Z" fill="black"/>
</svg>
