<svg width="201" height="104" viewBox="0 0 201 104" fill="none" xmlns="http://www.w3.org/2000/svg">
<path d="M18.912 54.152C18.912 51.8 16.128 50.384 11.592 50.384C7.008 50.384 4.224 51.8 4.224 54.152C4.224 56.528 7.008 57.944 11.592 57.944C16.128 57.944 18.912 56.528 18.912 54.152ZM18.744 50.144V36.512H16.392V42.368H14.328V36.896H12V49.4H14.328V44.432H16.392V50.144H18.744ZM10.464 46.304C10.464 44.504 8.688 42.992 6 42.992C3.336 42.992 1.56 44.528 1.56 46.304C1.56 48.08 3.336 49.568 6 49.568C8.688 49.568 10.464 48.08 10.464 46.304ZM11.568 52.256C14.52 52.256 16.368 52.976 16.368 54.176C16.368 55.352 14.52 56.072 11.568 56.072C8.568 56.072 6.744 55.352 6.744 54.176C6.744 52.976 8.568 52.256 11.568 52.256ZM0.576 42.2H11.016V40.256H0.576V42.2ZM3.096 39.128H8.808V37.16H3.096V39.128ZM8.328 46.304C8.328 47.12 7.344 47.744 6 47.744C4.68 47.744 3.72 47.12 3.72 46.304C3.72 45.44 4.68 44.864 6 44.864C7.32 44.864 8.328 45.44 8.328 46.304ZM36.1496 43.52V52.016H38.6216V36.512H36.1496V41.48H32.2616V43.52H36.1496ZM39.0776 57.272V55.304H27.1256V50.624H24.6536V57.272H39.0776ZM33.6536 46.952C31.1816 46.112 28.5416 43.448 28.5416 40.064V37.712H26.0216V40.184C26.0216 43.496 23.7656 46.376 20.7416 47.528L22.2536 49.472C24.3416 48.632 26.6456 46.376 27.2936 44.12C28.2536 46.184 30.4376 48.152 32.2376 48.896L33.6536 46.952ZM54.6593 50.936C51.5153 49.232 49.2113 46.04 49.2113 41.72V40.688H53.5553V38.744H42.2033V40.688H46.6673V41.744C46.6673 46.064 44.5313 49.448 41.1233 51.368L42.6833 53.168C45.2273 51.824 47.3873 48.992 47.9393 46.688C48.6353 48.896 51.2273 51.632 53.2193 52.736L54.6593 50.936ZM58.9073 57.896V36.512H56.4593V57.896H58.9073ZM80.8969 48.176V46.328H61.5769V48.176H80.8969ZM79.0009 57.728V55.976H66.4969V54.512H78.4249V49.568H63.9769V51.344H75.9769V52.784H64.0489V57.728H79.0009ZM78.7609 45.032V43.232H66.5929V41.888H78.3049V37.064H64.0729V38.864H75.8329V40.232H64.1209V45.032H78.7609ZM105.471 53.696C105.471 51.128 102.807 49.448 98.1752 49.448C93.5672 49.448 90.9272 51.128 90.9272 53.696C90.9272 56.216 93.5672 57.896 98.1752 57.896C102.807 57.896 105.471 56.216 105.471 53.696ZM88.4312 39.92H92.8712V40.112C92.8712 43.28 90.5912 45.848 87.5912 46.952L89.0792 48.872C91.2152 48.056 93.5192 45.968 94.1432 43.88C95.0552 45.872 97.1672 47.552 98.9192 48.248L100.287 46.304C97.7912 45.536 95.4152 43.184 95.4152 39.992V39.92H99.6872V37.88H88.4312V39.92ZM99.3512 43.736H102.831V49.376H105.303V36.512H102.831V41.696H99.3512V43.736ZM98.1752 51.464C101.199 51.464 102.951 52.28 102.951 53.696C102.951 55.088 101.199 55.904 98.1752 55.904C95.2232 55.904 93.4712 55.088 93.4712 53.696C93.4712 52.28 95.2232 51.464 98.1752 51.464ZM119.157 49.088C119.157 46.472 117.117 44.528 114.069 44.528C110.997 44.528 108.933 46.544 108.933 49.088C108.933 51.728 110.997 53.648 114.069 53.648C117.117 53.648 119.157 51.656 119.157 49.088ZM116.733 49.088C116.733 50.576 115.725 51.632 114.069 51.632C112.509 51.632 111.405 50.576 111.405 49.088C111.405 47.576 112.509 46.544 114.069 46.544C115.605 46.544 116.733 47.576 116.733 49.088ZM120.237 43.496V41.504H107.805V43.496H120.237ZM110.829 39.776H117.309V37.76H110.829V39.776ZM124.581 36.512H122.109V57.896H124.581V47.36H127.893V45.296H124.581V36.512ZM141.626 50.936C138.482 49.232 136.178 46.04 136.178 41.72V40.688H140.522V38.744H129.17V40.688H133.634V41.744C133.634 46.064 131.498 49.448 128.09 51.368L129.65 53.168C132.194 51.824 134.354 48.992 134.906 46.688C135.602 48.896 138.194 51.632 140.186 52.736L141.626 50.936ZM145.874 57.896V36.512H143.426V57.896H145.874ZM171.121 44.528V37.088H156.937V44.528H162.769V46.808H154.369V48.8H173.689V46.808H165.217V44.528H171.121ZM172.273 56.144C168.577 55.784 165.265 53.288 165.265 50.624V50H162.769V50.624C162.769 53.288 159.265 55.928 155.641 56.144L156.841 58.016C159.865 57.584 163.225 55.592 164.041 53.6C164.977 55.592 167.953 57.728 171.073 58.184L172.273 56.144ZM168.649 42.584H159.409V39.08H168.649V42.584ZM186.87 42.224V40.28H174.486V42.224H186.87ZM185.742 46.76C185.742 44.552 183.582 43.04 180.726 43.04C177.822 43.04 175.662 44.552 175.662 46.76C175.662 49.016 177.846 50.48 180.726 50.48C183.582 50.48 185.742 49.016 185.742 46.76ZM183.39 46.76C183.39 47.912 182.166 48.584 180.726 48.584C179.214 48.584 178.014 47.912 178.014 46.76C178.014 45.632 179.214 44.912 180.726 44.912C182.166 44.912 183.39 45.632 183.39 46.76ZM177.582 38.96H183.846V36.992H177.582V38.96ZM191.262 36.512H188.79V52.328H191.262V45.248H194.43V43.208H191.262V36.512ZM191.886 57.32V55.352H180.054V51.584H177.582V57.32H191.886ZM19.848 91.536V90.216H0.912V91.536H19.848ZM17.016 76.152H2.88V77.448H15.384C15.504 80.256 15.024 86.232 14.448 88.176L15.984 88.392C16.704 85.608 17.016 79.656 17.016 76.152ZM38.8616 94.68V73.704H37.3256V82.2H34.2056V74.232H32.6936V93.576H34.2056V83.496H37.3256V94.68H38.8616ZM31.3256 88.584L31.1096 87.192C28.9976 87.624 25.9736 87.864 23.5256 87.816V77.664H29.8616V76.344H21.9896V89.184C25.5656 89.256 28.7096 89.016 31.3256 88.584ZM60.4193 84.864V83.64H41.4833V84.864H60.4193ZM58.7393 94.224V92.904H45.3953V90.912H58.0193V86.712H43.8113V87.936H56.4833V89.736H43.8593V94.224H58.7393ZM58.2593 81.744V80.496H45.5633V78.72H57.8993V74.424H44.0033V75.696H56.3633V77.496H44.0273V81.744H58.2593ZM79.6896 79.128C79.6896 76.512 77.4576 74.808 74.3376 74.808C71.2176 74.808 68.9616 76.512 68.9616 79.128C68.9616 81.648 71.2176 83.376 74.3376 83.376C77.4576 83.376 79.6896 81.648 79.6896 79.128ZM78.2016 79.128C78.2016 80.952 76.4496 82.032 74.3376 82.032C72.2256 82.032 70.4496 80.952 70.4496 79.128C70.4496 77.208 72.2256 76.152 74.3376 76.152C76.4496 76.152 78.2016 77.208 78.2016 79.128ZM84.6576 94.68V73.704H83.1216V94.68H84.6576ZM75.2256 94.056V86.448C77.6016 86.328 80.2416 86.16 81.7776 85.968L81.6336 84.744C79.5696 84.96 77.0256 85.104 74.5536 85.2C72.2736 85.272 69.9696 85.296 67.4736 85.296L67.7136 86.712C69.7056 86.664 71.6976 86.64 73.6896 86.544V94.056H75.2256ZM105.543 94.68V73.704H104.007V82.56H101.103V74.232H99.5912V93.576H101.103V83.856H104.007V94.68H105.543ZM97.6712 85.632C97.6712 83.208 95.8952 81.6 93.3272 81.6C90.7832 81.6 89.0072 83.184 89.0072 85.632C89.0072 87.912 90.7832 89.64 93.3272 89.64C95.8952 89.64 97.6712 88.056 97.6712 85.632ZM96.1832 85.632C96.1832 87.216 94.9832 88.344 93.3272 88.344C91.6712 88.344 90.4712 87.264 90.4712 85.632C90.4712 84.024 91.6712 82.92 93.3272 82.92C94.9832 82.92 96.1832 84 96.1832 85.632ZM98.4152 80.112V78.816H87.9032V80.112H98.4152ZM96.0392 76.8V75.456H90.4712V76.8H96.0392Z" fill="black"/>
<path d="M8.412 16.324V15.352H2.832V14.056H8.772V13.072H1.596V18.664H8.88V17.692H2.832V16.324H8.412ZM10.02 20.608H0.36V21.592H10.02V20.608ZM19.5148 22.948V12.256H18.3268V16.504H17.2468V12.472H16.0828V22.432H17.2468V17.536H18.3268V22.948H19.5148ZM15.4468 19.072C14.4388 19.288 13.3348 19.36 12.1228 19.36V17.224H14.8948V13.456H10.8628V14.452H13.6588V16.252H10.8988V20.356H11.7988C13.0828 20.344 14.5588 20.248 15.6028 20.02L15.4468 19.072ZM30.3056 17.764V16.792H20.6456V17.764H30.3056ZM29.4656 22.876V21.892H23.1056V21.136H29.0696V18.556H21.8336V19.54H27.8456V20.236H21.8816V22.876H29.4656ZM29.0696 16V12.388H27.8456V13.288H23.1176V12.4H21.8816V16H29.0696ZM27.8456 15.052H23.1176V14.236H27.8456V15.052ZM38.3604 17.332V22.948H39.5844V12.256H38.3604V16.3H36.6204V17.332H38.3604ZM36.6804 19.168C35.3244 19.42 33.5244 19.48 32.4204 19.48V17.116H35.9004V13.192H31.1964V14.176H34.6644V16.12H31.1964V20.5H32.3844C34.1844 20.488 35.6604 20.38 36.8004 20.164L36.6804 19.168ZM52.1476 12.256H50.9116V22.948H52.1476V17.452H53.8036V16.432H52.1476V12.256ZM43.9636 16.828C43.9636 19.084 44.9836 20.572 46.6996 20.572C48.4156 20.572 49.4116 19.084 49.4116 16.84C49.4116 14.572 48.4156 13.084 46.6996 13.084C44.9836 13.084 43.9636 14.572 43.9636 16.828ZM48.2476 16.828C48.2476 18.544 47.6116 19.576 46.6996 19.576C45.7996 19.576 45.1756 18.544 45.1756 16.828C45.1756 15.112 45.7996 14.092 46.6996 14.092C47.6116 14.092 48.2476 15.112 48.2476 16.828ZM60.3464 19.132C59.0984 19.396 57.4184 19.456 55.8224 19.456V17.236H59.2784V16.264H55.8224V14.188H59.5064V13.216H54.6104V20.476L55.7384 20.464C57.7544 20.452 59.3624 20.344 60.5144 20.104L60.3464 19.132ZM62.7344 12.256H61.4984V22.948H62.7344V12.256ZM72.5172 12.58H65.2932V13.564H71.2932C71.2932 13.804 71.2812 14.068 71.2572 14.356L64.9452 14.62L65.1132 15.556L71.1972 15.244C71.1372 15.712 71.0652 16.156 70.9812 16.468H64.1292V17.464H73.7892V16.468H72.1572C72.3852 15.472 72.5172 14.128 72.5172 12.58ZM72.9612 22.816V21.832H66.5532V20.992H72.5652V18.316H65.2572V19.3H71.3412V20.116H65.3172V22.816H72.9612Z" fill="#A8A8A8"/>
<path fill-rule="evenodd" clip-rule="evenodd" d="M83.1049 13.113C83.1381 13.0772 83.1775 13.0488 83.2208 13.0294C83.2642 13.01 83.3107 13 83.3577 13C83.4047 13 83.4512 13.01 83.4945 13.0294C83.5379 13.0488 83.5773 13.0772 83.6105 13.113L87.8951 17.7278C87.9284 17.7635 87.9547 17.806 87.9727 17.8527C87.9907 17.8994 88 17.9495 88 18.0001C88 18.0507 87.9907 18.1008 87.9727 18.1475C87.9547 18.1942 87.9284 18.2367 87.8951 18.2724L83.6105 22.8872C83.5434 22.9594 83.4525 23 83.3577 23C83.2629 23 83.1719 22.9594 83.1049 22.8872C83.0379 22.815 83.0002 22.7171 83.0002 22.6149C83.0002 22.5128 83.0379 22.4149 83.1049 22.3427L87.1374 18.0001L83.1049 13.6575C83.0716 13.6218 83.0453 13.5794 83.0273 13.5327C83.0093 13.4859 83 13.4358 83 13.3853C83 13.3347 83.0093 13.2846 83.0273 13.2379C83.0453 13.1911 83.0716 13.1487 83.1049 13.113V13.113Z" fill="#A8A8A8"/>
</svg>
