<svg width="219" height="35" viewBox="0 0 219 35" fill="none" xmlns="http://www.w3.org/2000/svg">
<path d="M148.425 22.46C151.251 22.46 152.493 21.038 152.493 18.896C152.493 16.88 151.377 16.07 149.595 15.494L148.353 15.08C147.057 14.648 146.697 14.162 146.697 13.064C146.697 11.948 147.489 11.3 148.875 11.3C150.189 11.3 151.161 11.624 151.881 11.948V10.616C151.215 10.274 150.387 9.95 148.929 9.95C146.391 9.95 145.095 11.3 145.095 13.208C145.095 15.08 146.085 15.962 147.705 16.502L148.965 16.916C150.369 17.402 150.873 17.888 150.873 19.022C150.873 20.3 150.099 21.11 148.335 21.11C147.057 21.11 145.887 20.804 144.951 20.318V21.668C145.761 22.118 146.895 22.46 148.425 22.46ZM156.791 22.334C157.601 22.334 157.961 22.154 158.339 21.992V20.948C157.979 21.038 157.565 21.092 157.205 21.092C156.197 21.092 155.909 20.768 155.909 19.922V14.576H158.159V13.298H155.909V11.174H154.379V13.298H153.101V14.576H154.379V20.138C154.379 21.722 155.369 22.334 156.791 22.334ZM161.747 22.406C162.935 22.406 163.637 21.992 164.087 21.488H164.177L164.339 22.244H165.563V15.764C165.563 13.964 164.429 13.118 162.449 13.118C161.369 13.118 160.523 13.298 159.713 13.604V14.702C160.253 14.594 160.973 14.45 161.855 14.45C163.457 14.45 164.051 14.774 164.051 16.142V16.97L161.675 17.258C159.983 17.474 158.975 18.32 158.975 19.868C158.975 21.596 160.145 22.406 161.747 22.406ZM162.125 21.218C161.189 21.218 160.559 20.768 160.559 19.832C160.559 18.86 161.045 18.446 162.071 18.338L164.051 18.14V20.606C163.655 20.966 162.917 21.218 162.125 21.218ZM167.983 24.926C169.477 24.926 170.269 24.764 170.881 23.054L174.499 13.298H173.005L170.683 19.634H170.611L168.091 13.298H166.435L169.873 21.668L169.459 22.838C169.189 23.486 168.523 23.666 167.695 23.666C167.371 23.666 167.047 23.63 166.831 23.594V24.674C167.083 24.8 167.551 24.926 167.983 24.926ZM178.486 24.08H179.872L184.048 9.104H182.662L178.486 24.08ZM198.536 18.05L198.392 16.826C197.492 16.952 195.746 17.096 194.162 17.186V15.674C196.088 15.422 197.42 14.162 197.42 12.506C197.42 10.652 195.746 9.248 193.37 9.248C190.994 9.248 189.32 10.652 189.32 12.506C189.32 14.162 190.616 15.422 192.578 15.674V17.258C191.102 17.312 189.572 17.33 188.42 17.33L188.654 18.662C189.734 18.662 191.768 18.608 193.55 18.5C195.35 18.392 197.384 18.212 198.536 18.05ZM203.306 15.17V13.82H200.966V8.528H199.4V20.354H200.966V15.17H203.306ZM201.362 23.954V22.676H192.434V19.598H190.832V23.954H201.362ZM195.764 12.506C195.764 13.532 194.864 14.414 193.37 14.414C191.858 14.414 190.958 13.568 190.958 12.506C190.958 11.516 191.858 10.562 193.37 10.562C194.864 10.562 195.764 11.48 195.764 12.506ZM217.973 22.262V20.966H211.637V17.276H216.389V15.98H207.047V11.102H216.299V9.806H205.463V17.276H210.035V20.966H203.771V22.262H217.973Z" fill="black"/>
<path d="M0 17.7959C0 18.1035 0.114258 18.3672 0.360352 18.5957L7.19824 25.293C7.3916 25.4863 7.6377 25.5918 7.92773 25.5918C8.50781 25.5918 8.97363 25.1348 8.97363 24.5459C8.97363 24.2559 8.85059 24.001 8.65723 23.7988L2.49609 17.7959L8.65723 11.793C8.85059 11.5908 8.97363 11.3271 8.97363 11.0459C8.97363 10.457 8.50781 10 7.92773 10C7.6377 10 7.3916 10.1055 7.19824 10.2988L0.360352 16.9873C0.114258 17.2246 0 17.4883 0 17.7959Z" fill="black"/>
</svg>
