<svg width="267" height="51" viewBox="0 0 267 51" fill="none" xmlns="http://www.w3.org/2000/svg">
<path d="M14.184 12.176V2.384H12.168V6.56H10.872V2.672H8.91V12.032H10.872V8.234H12.168V12.176H14.184ZM0.972 7.154H3.492C3.258 8.81 2.286 10.016 0.396 10.772L1.584 12.32C2.988 11.762 4.176 10.574 4.59 9.386C5.04 10.502 6.336 11.528 7.344 11.888C7.704 11.366 8.028 10.826 8.388 10.322C6.858 9.782 5.85 8.738 5.634 7.154H8.028V5.516H0.972V7.154ZM3.042 12.914V14.588H12.078V18.44H14.184V12.914H3.042ZM2.466 4.634H6.624V2.978H2.466V4.634ZM30.0573 10.826V9.152H15.5673V10.826H30.0573ZM28.7253 18.35V16.622H19.4013V15.74H28.1493V11.708H17.3133V13.346H26.0613V14.264H17.2953V18.35H28.7253ZM19.3473 5.498C19.3473 4.76 20.6073 4.22 22.8393 4.22C25.0713 4.22 26.3493 4.76 26.3493 5.498C26.3493 6.218 25.0713 6.794 22.8393 6.794C20.6073 6.794 19.3473 6.218 19.3473 5.498ZM17.1693 5.498C17.1693 7.226 19.2033 8.378 22.8393 8.378C26.4573 8.378 28.5093 7.226 28.5093 5.498C28.5093 3.752 26.4573 2.618 22.8393 2.618C19.2033 2.618 17.1693 3.752 17.1693 5.498ZM43.9203 10.394C43.8123 9.854 43.7223 9.314 43.6503 8.774C41.9943 9.134 39.9243 9.242 37.6743 9.242V4.94H42.6963V3.266H35.5683V10.952H37.1343C39.8703 10.952 42.3543 10.772 43.9203 10.394ZM48.0243 11.06V2.384H45.9363V5.966H41.9763V7.658H45.9363V11.06H48.0243ZM48.2943 18.206V16.532H46.0083L46.5303 14.3L44.4423 14.03L44.0463 16.532H41.3103L40.9143 14.03L38.8443 14.3L39.2943 16.532H37.0623V18.206H48.2943ZM48.1863 13.58V11.906H37.1883V13.58H48.1863ZM64.2937 16.172V14.498H57.1117V9.098H55.0057V14.498H49.8037V16.172H64.2937ZM62.6377 3.788H51.3517V5.48H60.5137C60.5677 7.694 60.4417 10.772 59.9377 12.626L61.9537 12.878C62.5117 10.754 62.7097 7.82 62.6377 3.788ZM83.8267 7.82V6.11H81.5587V2.384H79.4167V11.078H81.5587V7.82H83.8267ZM69.0847 6.938C69.0847 9.206 70.9387 10.628 73.2247 10.628C75.5827 10.628 77.3827 9.206 77.3827 6.938C77.3827 4.706 75.5467 3.104 73.2247 3.104C70.9207 3.104 69.0847 4.742 69.0847 6.938ZM71.1367 6.938C71.1367 5.786 71.9647 4.832 73.2247 4.832C74.5387 4.832 75.3667 5.768 75.3667 6.938C75.3667 8.126 74.4847 9.026 73.2247 9.026C71.9827 9.026 71.1367 8.162 71.1367 6.938ZM81.8467 13.562V11.906H70.7227V13.562H81.8467ZM81.9727 18.206V16.532H79.6507L80.1727 14.3L78.0847 14.012L77.6527 16.532H74.8807L74.5027 14.012L72.4147 14.3L72.8827 16.532H70.5967V18.206H81.9727ZM98.53 10.826V9.152H84.04V10.826H98.53ZM97.198 18.35V16.622H87.874V15.74H96.622V11.708H85.786V13.346H94.534V14.264H85.768V18.35H97.198ZM87.82 5.498C87.82 4.76 89.08 4.22 91.312 4.22C93.544 4.22 94.822 4.76 94.822 5.498C94.822 6.218 93.544 6.794 91.312 6.794C89.08 6.794 87.82 6.218 87.82 5.498ZM85.642 5.498C85.642 7.226 87.676 8.378 91.312 8.378C94.93 8.378 96.982 7.226 96.982 5.498C96.982 3.752 94.93 2.618 91.312 2.618C87.676 2.618 85.642 3.752 85.642 5.498ZM117.739 16.424V14.75H111.511V11.636H116.011V3.446H113.905V5.966H107.083V3.482H104.995V11.636H109.405V14.75H103.249V16.424H117.739ZM113.905 9.962H107.083V7.586H113.905V9.962ZM131.506 2.384H129.436V18.422H131.506V2.384ZM127.798 11.996C126.052 12.41 123.424 12.608 121.246 12.608V3.986H119.158V14.408H120.634C122.524 14.408 126.124 14.192 128.068 13.688L127.798 11.996ZM146.665 6.902V5.264H137.359V6.902H146.665ZM145.891 10.304C145.891 8.612 144.271 7.352 142.111 7.352C139.897 7.352 138.295 8.612 138.295 10.304C138.295 12.014 139.915 13.22 142.111 13.22C144.271 13.22 145.891 12.014 145.891 10.304ZM139.735 4.508H144.505V2.906H139.735V4.508ZM150.031 2.384H147.925V14.3H150.031V9.314H152.263V7.568H150.031V2.384ZM150.409 18.044V16.37H141.571V13.814H139.447V18.044H150.409ZM140.383 10.304C140.383 9.548 141.175 9.026 142.111 9.026C143.029 9.026 143.839 9.548 143.839 10.304C143.839 11.024 143.029 11.528 142.111 11.528C141.175 11.528 140.383 11.024 140.383 10.304ZM169.456 15.182C169.456 13.184 167.404 11.96 163.858 11.96C160.312 11.96 158.278 13.184 158.278 15.182C158.278 17.162 160.312 18.404 163.858 18.404C167.404 18.404 169.456 17.162 169.456 15.182ZM156.91 5.228H160.114C159.988 7.496 158.494 9.206 156.262 10.016L157.504 11.654C159.052 11.114 160.744 9.62 161.23 8.054C161.932 9.53 163.462 10.736 164.704 11.204L165.856 9.548C164.092 8.972 162.49 7.478 162.31 5.228H165.352V3.5H156.91V5.228ZM171.526 7.946V6.218H169.24V2.384H167.116V11.762H169.24V7.946H171.526ZM163.858 13.652C166.09 13.652 167.332 14.21 167.332 15.182C167.332 16.154 166.09 16.73 163.858 16.73C161.662 16.73 160.402 16.154 160.402 15.182C160.402 14.21 161.662 13.652 163.858 13.652ZM179.786 11.24V3.734H172.352V11.24H179.786ZM182.882 6.56V8.432H180.65V10.088H182.882V14.012H184.97V2.384H182.882V4.904H180.65V6.56H182.882ZM185.294 17.99V16.316H176.51V13.022H174.422V17.99H185.294ZM177.698 9.602H174.44V5.354H177.698V9.602ZM199.997 18.422V2.384H197.909V18.422H199.997ZM187.199 9.224C187.199 12.59 188.729 14.93 191.339 14.93C193.967 14.93 195.497 12.572 195.497 9.224C195.497 5.84 193.967 3.482 191.339 3.482C188.729 3.482 187.199 5.84 187.199 9.224ZM193.481 9.224C193.481 11.744 192.581 13.238 191.339 13.238C190.133 13.238 189.251 11.744 189.251 9.224C189.251 6.686 190.133 5.174 191.339 5.174C192.581 5.174 193.481 6.686 193.481 9.224ZM219.692 18.296V16.604H210.638V15.704H219.224V11.618H208.478V13.292H217.118V14.21H208.514V18.296H219.692ZM214.958 8.864C214.526 8.936 213.5 8.972 213.05 9.008L213.41 5.732C212.744 5.642 212.06 5.57 211.394 5.498C211.322 6.704 211.25 7.91 211.196 9.116C210.638 9.116 210.206 9.152 209.594 9.152C209.522 7.928 209.468 6.704 209.414 5.498C208.712 5.57 208.028 5.66 207.344 5.75L207.722 9.206C207.056 9.224 206.48 9.224 205.814 9.224L206.156 10.934C209.504 10.934 213.176 10.79 215.138 10.412L214.958 8.864ZM219.224 10.844V2.384H217.118V4.292H215.138V5.84H217.118V6.956H215.138V8.504H217.118V10.844H219.224ZM214.706 4.814V3.176H206.228V4.814H214.706ZM230.759 14.102C228.419 12.878 226.925 11.024 226.853 7.766H230.003V6.092H221.453V7.766H224.675C224.621 11.006 223.235 12.986 220.625 14.408L221.921 15.938C223.811 15.02 225.395 13.13 225.791 11.492C226.295 13.04 228.149 14.912 229.661 15.65L230.759 14.102ZM234.251 18.422V2.384H232.145V8.072H229.751V9.746H232.145V11.186H229.751V12.878H232.145V18.422H234.251ZM223.343 5.048H228.167V3.374H223.343V5.048ZM246.039 12.968C243.627 11.726 242.097 9.494 242.097 6.11V5.696H245.193V4.022H236.679V5.696H239.883V6.128C239.883 9.494 238.569 11.978 235.869 13.418L237.129 14.984C239.001 14.066 240.621 11.924 240.999 10.304C241.485 11.852 243.447 13.886 244.869 14.606L246.039 12.968ZM249.279 18.422V2.384H247.173V18.422H249.279ZM264.666 18.422V2.384H262.668V18.422H264.666ZM259.392 9.116V17.684H261.372V2.672H259.392V7.424H256.224V9.116H259.392ZM258.276 12.356C257.286 12.644 255.378 12.788 253.812 12.788V3.788H251.742V14.534H253.182C255.09 14.534 257.7 14.3 258.528 14.03L258.276 12.356Z" fill="black"/>
<path d="M52.1067 42.2133C50.46 41.3407 48.8133 39.3563 48.8133 37.1607V35.7533H51.7689V34.9793H44.9852V35.7533H47.8844V37.1889C47.8844 39.4267 46.3504 41.4956 44.6193 42.5511L45.2104 43.2407C46.6319 42.2274 47.9267 40.7215 48.363 39.0889C48.8133 40.637 50.3615 42.1007 51.5156 42.8889L52.1067 42.2133ZM53.6548 33.6844V45.9852H54.5556V33.6844H53.6548ZM59.5498 34.3881C57.875 34.3881 56.4816 35.5141 56.4816 37.2593C56.4816 39.0044 57.875 40.1163 59.5498 40.1163C61.2105 40.1163 62.6179 38.9904 62.6179 37.2452C62.6179 35.5 61.2105 34.3881 59.5498 34.3881ZM59.5498 35.1622C60.8446 35.1622 61.7031 36.0207 61.7031 37.2593C61.7031 38.4978 60.8446 39.3422 59.5498 39.3422C58.3253 39.3422 57.3964 38.4837 57.3964 37.2452C57.3964 36.0067 58.3113 35.1622 59.5498 35.1622ZM62.9838 36.1333H65.4046V38.2726H62.9838V39.0185H65.4046V40.9607H66.3053V33.6844H65.4046V35.3874H62.9838V36.1333ZM58.1564 41.5941V42.3681H65.4046V45.9993H66.3053V41.5941H58.1564ZM74.044 39.7644V34.3037H73.1433V36.26H69.5684V34.3037H68.6677V39.7644H74.044ZM78.5477 45.8444V45.0844H71.1307V43.5785H78.0692V40.8481H70.1877V41.6081H77.1684V42.8607H70.244V45.8444H78.5477ZM78.0551 33.6844H77.1544V35.5563H74.7195V36.3163H77.1544V37.7941H74.7195V38.54H77.1544V40.1867H78.0551V33.6844ZM73.1433 39.0044H69.5684V37.0059H73.1433V39.0044ZM94.3693 38.1741V37.4H92.4693V33.6844H91.5685V41.3548H92.4693V38.1741H94.3693ZM92.4693 45.8022V41.9459H84.7426V45.8022H92.4693ZM91.5685 45.0422H85.6434V42.7059H91.5685V45.0422ZM88.2752 34.8104V34.0222H84.7708V34.8104H88.2752ZM90.0345 36.4852V35.7111H83.0115V36.4852H90.0345ZM89.2463 39.1311C89.2463 37.8644 88.0782 37.1185 86.4878 37.1185C84.8974 37.1185 83.7293 37.8644 83.7293 39.1311C83.7293 40.3837 84.9115 41.1578 86.4878 41.1578C88.0782 41.1578 89.2463 40.3696 89.2463 39.1311ZM88.3597 39.1311C88.3597 39.9333 87.4871 40.4119 86.4878 40.4119C85.5026 40.4119 84.616 39.9333 84.616 39.1311C84.616 38.3289 85.4885 37.8644 86.4878 37.8644C87.4871 37.8644 88.3597 38.3289 88.3597 39.1311ZM100.461 35.1763H98.2376V35.9504H99.5183C99.5746 37.7237 99.3213 40.8059 97.3368 43.2126L98.1109 43.7193C99.1665 42.34 99.7435 40.9185 100.081 39.4548H102.094V45.3378H102.981V33.9941H102.094V38.6948H100.222C100.405 37.5689 100.447 36.4007 100.461 35.1763ZM105.134 45.9852V33.6844H104.233V45.9852H105.134ZM97.8717 35.1763H95.1835V35.9504H96.9428C96.9428 37.3578 96.6191 39.9756 94.6487 42.157L95.3805 42.6637C97.2805 40.4541 97.8717 38.0052 97.8717 35.1763ZM118.01 39.6941V38.92H115.955V33.6844H115.054V45.9852H115.955V39.6941H118.01ZM111.845 35.3874V34.5852H108.284V35.3874H111.845ZM113.703 37.4281V36.6681H106.511V37.4281H113.703ZM113.041 40.8341C113.041 39.4126 111.916 38.3148 110.213 38.3148C108.51 38.3148 107.37 39.4126 107.37 40.8341C107.37 42.2274 108.51 43.3252 110.213 43.3252C111.916 43.3252 113.041 42.2274 113.041 40.8341ZM112.141 40.8341C112.141 41.8474 111.31 42.5793 110.213 42.5793C109.115 42.5793 108.284 41.8474 108.284 40.8341C108.284 39.8067 109.115 39.0889 110.213 39.0889C111.31 39.0889 112.141 39.8067 112.141 40.8341ZM124.89 36.6259H127.423V38.5822H124.89V39.3563H127.423V42.6215H128.324V33.6844H127.423V35.8519H124.89V36.6259ZM128.591 45.5489V44.7889H121.357V41.7911H120.456V45.5489H128.591ZM124.369 40.4119V34.8244H118.936V40.4119H124.369ZM123.468 39.6378H119.837V35.5985H123.468V39.6378ZM142.485 44.5637C142.485 43.663 141.542 43.1 138.882 43.1C136.194 43.1 135.279 43.663 135.279 44.5637C135.279 45.4504 136.194 46.0133 138.882 46.0133C141.542 46.0133 142.485 45.4504 142.485 44.5637ZM143.808 37.5126C142.133 37.3296 139.881 36.443 139.431 35.1341H143.287V34.36H134.434V35.1341H138.361C137.953 36.4852 135.842 37.3156 133.998 37.5126L134.42 38.2444C136.489 37.8926 138.403 36.9356 138.868 35.88C139.431 36.9356 141.331 37.8926 143.385 38.2585L143.808 37.5126ZM144.427 39.7644V39.0044H139.304V37.5689H138.403V39.0044H133.322V39.7644H144.427ZM141.598 44.5637C141.598 45.0704 140.613 45.3096 138.882 45.3096C137.122 45.3096 136.194 45.0704 136.194 44.5637C136.194 44.043 137.122 43.8037 138.882 43.8037C140.613 43.8037 141.598 44.043 141.598 44.5637ZM143.385 42.6637V41.9178H134.392V42.6637H143.385ZM140.866 41.2704V40.4822H136.897V41.2704H140.866ZM156.177 40.8481V40.0741H145.072V40.8481H156.177ZM154.826 45.577V44.817H147.451V42.0444H146.55V45.577H154.826ZM154.783 36.443C154.783 34.8807 153.235 34.1207 150.631 34.1207C148.042 34.1207 146.466 34.8807 146.466 36.443C146.466 38.0193 148.028 38.7652 150.617 38.7652C153.221 38.7652 154.783 38.0193 154.783 36.443ZM150.631 34.8807C152.588 34.8807 153.897 35.3874 153.897 36.443C153.897 37.4844 152.588 38.0052 150.617 38.0052C148.661 38.0052 147.394 37.4844 147.394 36.443C147.394 35.3874 148.675 34.8807 150.631 34.8807ZM170.436 41.2281V33.6844H169.535V37.0059H167.86V33.9096H166.96V41.1437H167.86V37.78H169.535V41.2281H170.436ZM160.401 36.7948H162.752V36.9778C162.752 38.8356 161.175 40.0459 160.077 40.4681L160.655 41.1437C161.71 40.5948 162.892 39.5956 163.188 38.5681C163.596 39.5956 164.792 40.4822 165.763 40.8341L166.27 40.1163C165.229 39.7926 163.638 38.8215 163.638 36.9496V36.7948H165.89V36.0348H160.401V36.7948ZM170.45 45.9852V41.8615H162.259V42.6215H169.535V45.9852H170.45ZM161.682 34.8807H164.764V34.1067H161.682V34.8807ZM184.639 34.5007H176.617V35.2748H183.71C183.71 35.683 183.696 36.3304 183.668 37.0622L176.293 37.3437L176.462 38.1319L183.626 37.78C183.555 38.7089 183.457 39.6941 183.274 40.3696H175.111V41.1296H178.081V45.9993H178.981V41.1296H182.317V45.9993H183.218V41.1296H186.215V40.3696H184.175C184.639 38.2585 184.639 36.0207 184.639 34.5007ZM197.219 45.9852V33.6844H196.318V45.9852H197.219ZM194.911 45.3378V33.9941H194.01V38.4978H192.153V39.2719H194.01V45.3378H194.911ZM192.603 42.523L192.49 41.7489C191.041 42.0444 189.127 42.0867 188.156 42.0867V39.2156H191.716V35.1622H187.227V35.9363H190.816V38.4556H187.255V42.8748C189.605 42.8748 191.139 42.8044 192.603 42.523ZM208.617 45.9852V33.6844H207.716V45.9852H208.617ZM199.188 38.9622C199.188 41.58 200.257 43.297 202.185 43.297C204.128 43.297 205.197 41.58 205.197 38.9763C205.197 36.3585 204.128 34.6556 202.185 34.6556C200.257 34.6556 199.188 36.3585 199.188 38.9622ZM204.325 38.9763C204.325 41.017 203.48 42.4807 202.185 42.4807C200.905 42.4807 200.074 41.017 200.074 38.9763C200.074 36.9215 200.905 35.4578 202.185 35.4578C203.48 35.4578 204.325 36.9215 204.325 38.9763ZM217.074 38.9763H219.48V42.5652H220.381V33.6844H219.48V35.5985H217.074V36.3585H219.48V38.2163H217.074V38.9763ZM217.524 40.0319C216.046 39.483 214.343 38.1178 214.343 36.0207V34.4163H213.457V36.0489C213.457 38.0474 211.866 39.7363 210.276 40.4822L210.825 41.1859C212.232 40.4119 213.541 39.0185 213.921 37.7096C214.428 39.0044 215.61 40.0881 216.989 40.7637L217.524 40.0319ZM220.648 45.5911V44.8311H213.428V41.8615H212.528V45.5911H220.648Z" fill="black"/>
</svg>
