<svg width="236" height="51" viewBox="0 0 236 51" fill="none" xmlns="http://www.w3.org/2000/svg">
<path d="M13.824 15.2C13.824 13.202 11.79 11.96 8.316 11.96C4.842 11.96 2.826 13.202 2.826 15.2C2.826 17.144 4.842 18.404 8.316 18.404C11.79 18.404 13.824 17.144 13.824 15.2ZM8.892 7.136C8.892 4.904 7.074 3.302 4.752 3.302C2.412 3.302 0.594 4.922 0.594 7.136C0.594 9.404 2.448 10.826 4.752 10.826C7.092 10.826 8.892 9.404 8.892 7.136ZM9.396 9.818H11.7V11.996H13.806V2.384H11.7V4.256H9.396C9.414 4.85 9.45 5.444 9.45 6.038H11.7V8.054H9.45C9.45 8.63 9.414 9.224 9.396 9.818ZM11.664 15.2C11.664 16.154 10.44 16.712 8.316 16.712C6.228 16.712 4.968 16.154 4.968 15.2C4.968 14.228 6.228 13.652 8.316 13.652C10.44 13.652 11.664 14.228 11.664 15.2ZM6.876 7.118C6.876 8.324 5.994 9.224 4.752 9.224C3.492 9.224 2.646 8.36 2.646 7.118C2.646 5.984 3.474 5.03 4.752 5.03C6.066 5.03 6.876 5.948 6.876 7.118ZM24.2793 10.466C24.2793 8.864 22.6773 7.766 20.4633 7.766C18.2673 7.766 16.6473 8.864 16.6473 10.466C16.6473 11.834 17.7993 12.842 19.4733 13.112V14.246C18.1413 14.3 16.7733 14.3 15.4413 14.3L15.7293 16.046C17.2953 16.046 18.7173 15.992 19.9953 15.938C21.6333 15.848 23.9013 15.65 25.4133 15.434C25.3413 14.912 25.3053 14.354 25.2513 13.832C24.2973 13.958 23.0193 14.048 21.5973 14.138V13.094C23.1993 12.77 24.2793 11.798 24.2793 10.466ZM28.2393 2.384H26.1513V18.422H28.2393V10.664H30.3093V8.936H28.2393V2.384ZM25.0353 7.262V5.66H15.8913V7.262H25.0353ZM18.2493 4.976H22.7853V3.356H18.2493V4.976ZM22.1913 10.466C22.1913 11.06 21.4713 11.582 20.4633 11.582C19.4733 11.582 18.7713 11.06 18.7713 10.466C18.7713 9.854 19.4733 9.368 20.4633 9.368C21.4713 9.368 22.1913 9.854 22.1913 10.466ZM33.3847 7.244C33.3847 6.11 34.2487 5.192 35.6887 5.192C37.1467 5.192 38.0107 6.11 38.0107 7.244C38.0107 8.432 37.1467 9.35 35.6887 9.35C34.2487 9.35 33.3847 8.432 33.3847 7.244ZM44.1307 2.384H42.0427V18.422H44.1307V2.384ZM31.2247 7.262C31.2247 9.494 32.9887 11.114 35.6887 11.114C38.4067 11.114 40.1347 9.494 40.1347 7.262C40.1347 5.012 38.4067 3.41 35.6887 3.41C32.9887 3.41 31.2247 5.012 31.2247 7.262ZM41.3767 14.318L41.1967 12.626C39.7747 12.806 37.8307 12.95 35.8327 13.022C34.0147 13.094 32.4667 13.112 30.6127 13.112L30.9187 14.912C32.2687 14.93 34.1767 14.858 35.9587 14.786C37.6687 14.696 39.8467 14.516 41.3767 14.318ZM63.4477 18.422V2.384H61.4317V8.666H60.1357V2.672H58.1557V17.684H60.1357V10.34H61.4317V18.422H63.4477ZM56.5897 14.264V4.022H54.5017V7.73H52.2697V4.04H50.1817V14.264H56.5897ZM54.5017 12.608H52.2697V9.35H54.5017V12.608ZM78.205 15.164C78.205 13.166 76.189 11.906 72.697 11.906C69.241 11.906 67.243 13.166 67.243 15.164C67.243 17.144 69.241 18.422 72.697 18.422C76.189 18.422 78.205 17.144 78.205 15.164ZM78.097 11.69V2.384H75.991V5.102H73.273V6.758H75.991V8.342H73.057V9.944H75.991V11.69H78.097ZM76.027 15.164C76.027 16.154 74.839 16.73 72.697 16.73C70.645 16.73 69.439 16.154 69.439 15.164C69.439 14.192 70.645 13.58 72.697 13.58C74.839 13.58 76.027 14.192 76.027 15.164ZM73.039 3.428H65.587V5.174H70.699C70.123 7.82 67.621 9.494 64.813 10.124L65.929 11.816C70.123 10.502 72.859 7.874 73.039 3.428ZM93.1064 18.422V2.384H91.0184V18.422H93.1064ZM80.3084 9.224C80.3084 12.59 81.8384 14.93 84.4484 14.93C87.0764 14.93 88.6064 12.572 88.6064 9.224C88.6064 5.84 87.0764 3.482 84.4484 3.482C81.8384 3.482 80.3084 5.84 80.3084 9.224ZM86.5904 9.224C86.5904 11.744 85.6904 13.238 84.4484 13.238C83.2424 13.238 82.3604 11.744 82.3604 9.224C82.3604 6.686 83.2424 5.174 84.4484 5.174C85.6904 5.174 86.5904 6.686 86.5904 9.224ZM109.687 12.032L109.489 10.412C108.355 10.574 106.915 10.682 105.421 10.754V9.026H108.157V7.352H102.613V5.192H108.031V3.518H100.507V9.026H103.297V10.826C101.875 10.88 100.417 10.898 98.9413 10.898L99.2293 12.608C100.561 12.608 102.793 12.536 104.539 12.446C106.429 12.356 108.193 12.212 109.687 12.032ZM112.441 2.384H110.317V14.156H112.441V2.384ZM112.567 17.954V16.28H103.855V13.454H101.731V17.954H112.567ZM127.456 6.902V5.264H118.15V6.902H127.456ZM126.682 10.304C126.682 8.612 125.062 7.352 122.902 7.352C120.688 7.352 119.086 8.612 119.086 10.304C119.086 12.014 120.706 13.22 122.902 13.22C125.062 13.22 126.682 12.014 126.682 10.304ZM120.526 4.508H125.296V2.906H120.526V4.508ZM130.822 2.384H128.716V14.3H130.822V9.314H133.054V7.568H130.822V2.384ZM131.2 18.044V16.37H122.362V13.814H120.238V18.044H131.2ZM121.174 10.304C121.174 9.548 121.966 9.026 122.902 9.026C123.82 9.026 124.63 9.548 124.63 10.304C124.63 11.024 123.82 11.528 122.902 11.528C121.966 11.528 121.174 11.024 121.174 10.304ZM151.975 12.248V10.574H145.747V9.26H150.463V7.586H148.267L148.753 5.264L146.701 4.94C146.575 5.822 146.413 6.704 146.287 7.586H143.101C142.993 6.704 142.867 5.822 142.741 4.94L140.707 5.264C140.833 6.056 140.995 6.812 141.121 7.586H138.907V9.26H143.641V10.574H137.485V12.248H151.975ZM150.103 18.44V13.22H139.159V14.894H147.997V18.44H150.103ZM150.517 4.472V2.816H138.871V4.472H150.517ZM155.303 7.244C155.303 6.11 156.167 5.192 157.607 5.192C159.065 5.192 159.929 6.11 159.929 7.244C159.929 8.432 159.065 9.35 157.607 9.35C156.167 9.35 155.303 8.432 155.303 7.244ZM166.049 2.384H163.961V18.422H166.049V2.384ZM153.143 7.262C153.143 9.494 154.907 11.114 157.607 11.114C160.325 11.114 162.053 9.494 162.053 7.262C162.053 5.012 160.325 3.41 157.607 3.41C154.907 3.41 153.143 5.012 153.143 7.262ZM163.295 14.318L163.115 12.626C161.693 12.806 159.749 12.95 157.751 13.022C155.933 13.094 154.385 13.112 152.531 13.112L152.837 14.912C154.187 14.93 156.095 14.858 157.877 14.786C159.587 14.696 161.765 14.516 163.295 14.318ZM181.406 13.166C178.994 11.834 177.446 9.548 177.446 6.164V5.75H180.578V4.022H172.028V5.75H175.268V6.182C175.268 9.548 173.864 12.014 171.2 13.472L172.496 15.038C174.368 14.12 175.988 11.978 176.384 10.34C176.852 11.888 178.76 13.958 180.236 14.696L181.406 13.166ZM184.268 2.384H182.162V18.422H184.268V10.304H186.554V8.558H184.268V2.384ZM195.605 10.178H197.909V14.012H200.015V2.384H197.909V4.418H195.623L195.659 6.2H197.909V8.396H195.659L195.605 10.178ZM200.357 17.99V16.334H191.411V12.932H189.269V17.99H200.357ZM186.821 7.55C186.821 9.872 188.477 11.546 191.051 11.546C193.607 11.546 195.263 9.872 195.263 7.55C195.263 5.228 193.607 3.554 191.051 3.554C188.477 3.554 186.821 5.228 186.821 7.55ZM188.963 7.532C188.963 6.308 189.755 5.336 191.051 5.336C192.329 5.336 193.121 6.308 193.121 7.532C193.121 8.828 192.329 9.782 191.051 9.782C189.755 9.782 188.963 8.828 188.963 7.532ZM219.332 15.164C219.332 13.166 217.316 11.906 213.824 11.906C210.368 11.906 208.37 13.166 208.37 15.164C208.37 17.144 210.368 18.422 213.824 18.422C217.316 18.422 219.332 17.144 219.332 15.164ZM219.224 11.69V2.384H217.118V5.102H214.4V6.758H217.118V8.342H214.184V9.944H217.118V11.69H219.224ZM217.154 15.164C217.154 16.154 215.966 16.73 213.824 16.73C211.772 16.73 210.566 16.154 210.566 15.164C210.566 14.192 211.772 13.58 213.824 13.58C215.966 13.58 217.154 14.192 217.154 15.164ZM214.166 3.428H206.714V5.174H211.826C211.25 7.82 208.748 9.494 205.94 10.124L207.056 11.816C211.25 10.502 213.986 7.874 214.166 3.428ZM235.727 8.936V7.19H233.693V2.384H231.605V14.3H233.693V8.936H235.727ZM234.107 17.99V16.316H225.269V13.274H223.145V17.99H234.107ZM230.867 11.69L230.705 10.088C229.643 10.25 227.231 10.412 225.791 10.448V7.28H223.703V10.502C222.659 10.52 221.579 10.538 220.625 10.538L220.895 12.248C221.957 12.248 224.027 12.158 225.881 12.086C227.573 12.032 229.715 11.816 230.867 11.69ZM229.805 3.518H221.615V5.192H227.681C227.681 6.704 227.573 8.126 227.357 8.936L229.355 9.224C229.697 7.964 229.805 6.164 229.805 3.518Z" fill="black"/>
<path d="M47.6541 43.6911C47.6541 42.2556 46.1481 41.3689 43.4741 41.3689C40.7859 41.3689 39.2941 42.2556 39.2941 43.6911C39.2941 45.0985 40.7859 45.9852 43.4741 45.9852C46.1481 45.9852 47.6541 45.0985 47.6541 43.6911ZM40.7859 34.3881C39.1111 34.3881 37.7178 35.5141 37.7178 37.2593C37.7178 39.0044 39.1111 40.1163 40.7859 40.1163C42.4467 40.1163 43.8541 38.9904 43.8541 37.2452C43.8541 35.5 42.4467 34.3881 40.7859 34.3881ZM43.4741 42.1711C45.5148 42.1711 46.7252 42.72 46.7252 43.6911C46.7252 44.6481 45.5148 45.197 43.4741 45.197C41.4333 45.197 40.2089 44.6481 40.2089 43.6911C40.2089 42.72 41.4333 42.1711 43.4741 42.1711ZM40.7859 35.1622C42.0807 35.1622 42.9393 36.0207 42.9393 37.2593C42.9393 38.4978 42.0807 39.3422 40.7859 39.3422C39.5615 39.3422 38.6326 38.4837 38.6326 37.2452C38.6326 36.0067 39.5615 35.1622 40.7859 35.1622ZM44.2622 36.1193H46.6548V38.3148H44.2622V39.0889H46.6548V41.2985H47.5556V33.6844H46.6548V35.3593H44.2622V36.1193ZM55.829 39.7222C55.829 38.4415 54.675 37.7237 52.9579 37.7237C51.255 37.7237 50.0727 38.4696 50.0727 39.7222C50.0727 40.8341 51.0157 41.5659 52.4372 41.7207V43.0296C51.1564 43.1 49.9601 43.1 49.1157 43.1L49.2987 43.9163C50.3683 43.9163 51.6068 43.8741 53.0001 43.7756C54.5061 43.677 56.1387 43.5504 57.0394 43.4378L56.9831 42.6637C56.195 42.7904 54.7876 42.8889 53.3098 42.9874V41.7207C54.8298 41.6222 55.829 40.8904 55.829 39.7222ZM60.7409 40.06V39.3H58.6861V33.6844H57.7853V45.9852H58.6861V40.06H60.7409ZM54.8861 39.7222C54.8861 40.4822 54.112 40.9889 52.9579 40.9889C51.8179 40.9889 51.0298 40.4822 51.0298 39.7222C51.0298 38.9341 51.8179 38.4556 52.9579 38.4556C54.112 38.4556 54.8861 38.9341 54.8861 39.7222ZM56.5609 36.9919V36.1896H49.3127V36.9919H56.5609ZM54.5905 35.2326V34.4163H51.1564V35.2326H54.5905ZM74.184 45.9007V45.1548H66.7528V43.9867H73.7054V41.4393H65.824V42.1852H72.8047V43.2689H65.8662V45.9007H74.184ZM64.7684 36.1896H67.4566C67.2173 37.4281 65.7395 38.2022 64.3743 38.343L64.8106 39.0467C66.401 38.6948 67.5832 37.963 67.9632 36.9637C68.3714 37.8644 69.6662 38.5119 71.0314 38.7793L71.4536 38.0474C70.1306 37.9348 68.6951 37.2874 68.4277 36.1896H71.158V35.4156H64.7684V36.1896ZM75.6195 37.9348V37.1607H73.7054V33.6844H72.8047V40.7919H73.7054V37.9348H75.6195ZM72.0588 40.1867L71.9884 39.4548C71.2143 39.5674 69.8351 39.6659 68.4136 39.7504V38.3852H67.5128V39.7926C66.204 39.863 64.9795 39.8911 64.1491 39.8911L64.304 40.6793C65.1906 40.6793 66.7106 40.637 68.0899 40.5385C69.6099 40.44 71.158 40.2852 72.0588 40.1867ZM66.3728 34.5993H69.638V33.8393H66.3728V34.5993ZM86.173 43.6911C86.173 42.2556 84.6671 41.3689 81.993 41.3689C79.3048 41.3689 77.813 42.2556 77.813 43.6911C77.813 45.0985 79.3048 45.9852 81.993 45.9852C84.6671 45.9852 86.173 45.0985 86.173 43.6911ZM79.3048 34.3881C77.63 34.3881 76.2367 35.5141 76.2367 37.2593C76.2367 39.0044 77.63 40.1163 79.3048 40.1163C80.9656 40.1163 82.373 38.9904 82.373 37.2452C82.373 35.5 80.9656 34.3881 79.3048 34.3881ZM81.993 42.1711C84.0337 42.1711 85.2441 42.72 85.2441 43.6911C85.2441 44.6481 84.0337 45.197 81.993 45.197C79.9523 45.197 78.7278 44.6481 78.7278 43.6911C78.7278 42.72 79.9523 42.1711 81.993 42.1711ZM79.3048 35.1622C80.5997 35.1622 81.4582 36.0207 81.4582 37.2593C81.4582 38.4978 80.5997 39.3422 79.3048 39.3422C78.0804 39.3422 77.1515 38.4837 77.1515 37.2452C77.1515 36.0067 78.0804 35.1622 79.3048 35.1622ZM82.7811 36.1193H85.1737V38.3148H82.7811V39.0889H85.1737V41.2985H86.0745V33.6844H85.1737V35.3593H82.7811V36.1193ZM95.3754 42.2133C93.7287 41.3407 92.082 39.3563 92.082 37.1607V35.7533H95.0376V34.9793H88.2539V35.7533H91.1531V37.1889C91.1531 39.4267 89.6191 41.4956 87.888 42.5511L88.4791 43.2407C89.9005 42.2274 91.1954 40.7215 91.6317 39.0889C92.082 40.637 93.6302 42.1007 94.7842 42.8889L95.3754 42.2133ZM96.9235 33.6844V45.9852H97.8242V33.6844H96.9235ZM102.424 34.8244C100.75 34.8244 99.8207 36.4148 99.8207 38.9481C99.8207 41.4956 100.75 43.0859 102.424 43.0859C103.987 43.0859 104.901 41.6644 105 39.3563H106.618V45.38H107.519V33.9237H106.618V38.5963H105C104.916 36.2741 104.001 34.8244 102.424 34.8244ZM104.099 38.9481C104.099 41.0452 103.452 42.2978 102.424 42.2978C101.383 42.2978 100.736 41.0452 100.736 38.9481C100.736 36.8652 101.383 35.6126 102.424 35.6126C103.452 35.6126 104.099 36.8652 104.099 38.9481ZM109.912 45.9852V33.6844H109.011V45.9852H109.912ZM121.324 45.9852V33.6844H120.423V38.16H117.51V38.92H120.423V45.9852H121.324ZM118.636 42.2556C117.003 41.3407 115.469 39.3422 115.469 37.1467V34.7541H114.54V37.1607C114.54 39.2719 113.006 41.5378 111.275 42.5933L111.894 43.2689C113.358 42.143 114.554 40.637 115.005 39.0607C115.511 40.623 116.89 42.157 118.059 42.9452L118.636 42.2556ZM136.343 42.6215V33.6844H135.442V42.6215H136.343ZM136.667 45.5489V44.7889H129.264V41.8052H128.363V45.5489H136.667ZM129.813 34.543C128.096 34.543 126.632 35.7111 126.632 37.5126C126.632 39.3 128.096 40.4541 129.813 40.4541C131.53 40.4541 132.979 39.2859 132.979 37.4844C132.979 35.697 131.53 34.543 129.813 34.543ZM129.813 35.3452C131.164 35.3452 132.065 36.2178 132.065 37.5126C132.065 38.8074 131.164 39.6659 129.813 39.6659C128.546 39.6659 127.561 38.7793 127.561 37.4844C127.561 36.2037 128.546 35.3452 129.813 35.3452ZM148.529 43.7615C148.529 42.4104 146.995 41.5659 144.363 41.5659C141.746 41.5659 140.211 42.4104 140.211 43.7615C140.211 45.0985 141.746 45.943 144.363 45.943C146.995 45.943 148.529 45.0985 148.529 43.7615ZM148.417 41.58V33.6844H147.516V37.0059H145.799V33.9096H144.898V40.9326H145.799V37.78H147.516V41.58H148.417ZM144.363 42.34C146.32 42.34 147.572 42.8889 147.572 43.7615C147.572 44.6341 146.32 45.1689 144.363 45.1689C142.421 45.1689 141.168 44.6341 141.168 43.7615C141.168 42.8889 142.421 42.34 144.363 42.34ZM144.265 39.6096C143.378 39.1733 141.633 37.963 141.633 36.0348V34.4585H140.746V36.0489C140.746 37.8785 139.339 39.3563 138.114 40.0178L138.72 40.6793C139.846 39.9615 140.915 38.723 141.197 37.7096C141.605 38.6807 142.857 39.8207 143.73 40.2993L144.265 39.6096ZM161.138 38.737H159.223V36.6681H161.138V35.8941H159.223V33.6844H158.323V41.96H159.223V39.5111H161.138V38.737ZM160.279 45.3519C158.407 45.0563 156.057 43.5785 156.057 41.8615V41.3407H155.114V41.8615C155.114 43.5926 152.806 45.0985 150.849 45.3941L151.286 46.1259C153.65 45.6052 155.156 44.2119 155.564 43.1985C156.071 44.24 157.718 45.6615 159.857 46.0978L160.279 45.3519ZM156.69 39.5111C155.311 38.9904 153.622 37.4844 153.622 35.4859V34.3037H152.721V35.5141C152.721 37.4985 151.314 39.0607 149.597 39.877L150.146 40.5667C151.778 39.6237 152.834 38.5541 153.214 37.217C153.692 38.4978 154.889 39.5815 156.155 40.2148L156.69 39.5111ZM176.157 38.7652V38.0052H174.243V33.6844H173.342V42.6778H174.243V38.7652H176.157ZM174.778 45.5489V44.7889H167.529V42.4667H166.629V45.5489H174.778ZM170.063 35.0356V34.2615H166.558V35.0356H170.063ZM171.85 36.823V36.0489H164.799V36.823H171.85ZM171.132 39.6378C171.132 38.3007 169.922 37.5126 168.318 37.5126C166.699 37.5126 165.503 38.3007 165.503 39.6378C165.503 40.9467 166.713 41.777 168.318 41.777C169.922 41.777 171.132 40.9326 171.132 39.6378ZM170.246 39.6378C170.246 40.4963 169.345 41.003 168.318 41.003C167.276 41.003 166.389 40.4963 166.389 39.6378C166.389 38.7652 167.276 38.2726 168.318 38.2726C169.345 38.2726 170.246 38.7652 170.246 39.6378ZM186.053 34.7119H180.761V35.4719H185.068C185.012 35.9363 184.913 36.3867 184.73 36.8089L180.142 37.1185L180.367 37.9489L184.378 37.5689C183.647 38.7933 182.324 39.7785 180.241 40.3696L180.705 41.0874C183.914 40.0741 185.87 38.1037 186.053 34.7119ZM190.627 45.3659C188.854 45.0844 186.419 43.4941 186.419 41.777V41.0311H185.462V41.777C185.462 43.5081 183.098 45.0985 181.141 45.3941L181.648 46.1259C183.506 45.7319 185.392 44.4511 185.913 43.1281C186.447 44.4089 188.488 45.7741 190.093 46.1119L190.627 45.3659ZM188.981 38.1037V41.96H189.881V33.6844H188.981V37.3437H186.138V38.1037H188.981ZM195.865 42.4385H196.513L196.766 34.4304H195.668L195.865 42.4385ZM195.668 44.6481H196.682V43.5081H195.668V44.6481Z" fill="black"/>
</svg>
