<svg width="228" height="51" viewBox="0 0 228 51" fill="none" xmlns="http://www.w3.org/2000/svg">
<path d="M9.828 6.452C9.828 4.472 8.136 3.014 5.616 3.014C3.132 3.014 1.458 4.472 1.458 6.452C1.458 8.378 3.132 9.782 5.616 9.782C8.064 9.782 9.828 8.378 9.828 6.452ZM8.676 14.822H11.988V18.422H14.076V2.384H11.988V13.202H8.676V14.822ZM6.732 17.954V12.428C8.226 12.32 9.72 12.194 10.89 12.032L10.782 10.43C9.414 10.61 7.848 10.718 5.562 10.844C3.798 10.916 2.142 10.934 0.306 10.934L0.594 12.644C1.818 12.644 3.024 12.626 4.608 12.554V17.954H6.732ZM7.74 6.434C7.74 7.388 6.894 8.072 5.616 8.072C4.41 8.072 3.564 7.388 3.564 6.434C3.564 5.48 4.428 4.742 5.616 4.742C6.858 4.742 7.74 5.48 7.74 6.434ZM23.7213 4.022H16.4133V5.768H21.4893C21.4353 6.434 21.3453 7.1 21.1473 7.73C19.3293 7.874 17.4573 8 15.6393 8.126C15.7293 8.738 15.8193 9.332 15.9273 9.944L20.4813 9.458C19.4013 11.546 17.5653 13.202 15.3153 14.228L16.5213 15.83C21.2913 13.346 23.7033 9.404 23.7213 4.022ZM28.8333 18.422V2.384H26.7273V8.612H23.6853V10.376H26.7273V18.422H28.8333ZM42.8887 8.396C42.8887 7.208 41.4487 6.344 37.8487 6.344C34.2487 6.344 32.7907 7.208 32.7907 8.396C32.7907 9.476 33.9427 10.286 36.7507 10.43V10.952H30.5947V12.518H45.0847V10.952H38.8567V10.448C41.7187 10.304 42.8887 9.476 42.8887 8.396ZM43.7527 18.44V17H34.4647V16.388H43.3027V13.022H32.3587V14.462H41.1967V15.038H32.3767V18.44H43.7527ZM44.1847 6.002V4.472H31.4947V6.002H44.1847ZM35.0047 3.914H40.6567V2.456H35.0047V3.914ZM40.7467 8.414C40.7467 8.774 39.8647 9.026 37.8487 9.026C35.8327 9.026 34.9507 8.774 34.9507 8.414C34.9507 8.018 35.8327 7.748 37.8487 7.748C39.8647 7.748 40.7467 8.018 40.7467 8.414ZM58.87 11.978V2.384H56.782V11.978H58.87ZM48.034 12.806V14.48H56.782V18.44H58.888V12.806H48.034ZM55.036 9.368C53.794 9.728 50.5 9.962 48.538 9.854V8.126H53.65V3.41H46.378V5.084H51.544V6.56H46.432V11.528C47.152 11.546 47.872 11.546 48.592 11.546C50.752 11.546 53.884 11.33 55.252 10.97L55.036 9.368ZM73.8974 18.422V2.384H71.8094V18.422H73.8974ZM61.0994 9.224C61.0994 12.59 62.6294 14.93 65.2394 14.93C67.8674 14.93 69.3974 12.572 69.3974 9.224C69.3974 5.84 67.8674 3.482 65.2394 3.482C62.6294 3.482 61.0994 5.84 61.0994 9.224ZM67.3814 9.224C67.3814 11.744 66.4814 13.238 65.2394 13.238C64.0334 13.238 63.1514 11.744 63.1514 9.224C63.1514 6.686 64.0334 5.174 65.2394 5.174C66.4814 5.174 67.3814 6.686 67.3814 9.224ZM85.7027 12.968C83.2907 11.726 81.7607 9.494 81.7607 6.11V5.696H84.8567V4.022H76.3427V5.696H79.5467V6.128C79.5467 9.494 78.2327 11.978 75.5327 13.418L76.7927 14.984C78.6647 14.066 80.2847 11.924 80.6627 10.304C81.1487 11.852 83.1107 13.886 84.5327 14.606L85.7027 12.968ZM88.9427 18.422V2.384H86.8367V18.422H88.9427ZM103.25 2.384H101.108V14.012H103.25V8.702H105.536V6.956H103.25V2.384ZM103.628 17.954V16.28H94.9521V12.824H92.8461V17.954H103.628ZM98.6781 11.168V3.608H91.1721V11.168H98.6781ZM96.5901 9.512H93.2601V5.246H96.5901V9.512ZM122.423 9.818C122.423 8.162 120.335 7.244 117.185 7.244C114.053 7.244 111.983 8.162 111.983 9.818C111.983 11.474 114.053 12.392 117.185 12.392C120.335 12.392 122.423 11.474 122.423 9.818ZM115.421 18.404V14.768H118.823V18.404H120.929V14.768H124.403V13.094H109.913V14.768H113.315V18.404H115.421ZM123.683 6.686V5.03H110.651V6.686H123.683ZM120.209 9.836C120.209 10.484 118.913 10.844 117.185 10.844C115.457 10.844 114.197 10.484 114.197 9.836C114.197 9.152 115.457 8.81 117.185 8.81C118.913 8.81 120.209 9.152 120.209 9.836ZM114.269 4.292H120.065V2.654H114.269V4.292ZM138.206 11.834V2.402H136.1V11.834H138.206ZM127.352 12.608V14.282H136.1V18.44H138.224V12.608H127.352ZM134.732 9.332C132.842 8.72 131.006 6.938 131.006 4.436V3.158H128.828V4.544C128.828 6.974 127.28 8.864 124.94 9.71L126.218 11.384C127.712 10.862 129.458 9.368 129.926 7.73C130.628 9.206 132.302 10.502 133.526 10.952L134.732 9.332ZM154.458 12.14V10.448H139.968V12.14H154.458ZM152.784 17.99V16.334H143.856V13.31H141.75V17.99H152.784ZM152.82 6.182C152.82 4.346 150.732 2.978 147.204 2.978C143.694 2.978 141.642 4.346 141.642 6.182C141.642 8.054 143.694 9.422 147.222 9.422C150.732 9.422 152.82 8.054 152.82 6.182ZM150.642 6.218C150.642 7.154 149.328 7.784 147.204 7.784C145.134 7.784 143.802 7.154 143.802 6.218C143.802 5.246 145.134 4.598 147.204 4.598C149.328 4.598 150.642 5.246 150.642 6.218ZM173.667 16.406V14.75H167.439V11.654H172.263V9.98H169.995L170.661 6.398L168.627 6.056L168.051 9.98H164.847L164.523 6.02L162.417 6.29L162.867 9.98H160.509V11.654H165.333V14.75H159.177V16.406H173.667ZM172.299 5.264V3.59H160.473V5.264H172.299ZM187.47 18.422V2.384H185.364V18.422H187.47ZM182.538 4.058H175.05V5.804H180.27C179.982 8.99 177.588 12.338 174.078 13.94L175.374 15.524C180.27 12.86 182.412 8.9 182.538 4.058ZM205.977 8.54V2.96H195.339V8.54H199.569V10.034H193.413V11.708H207.903V10.034H201.675V8.54H205.977ZM206.877 16.784C204.267 16.424 201.729 14.93 201.729 12.842V12.356H199.569V12.842C199.569 14.984 197.247 16.46 194.403 16.73L195.339 18.44C197.697 18.134 199.947 16.676 200.649 15.272C201.441 16.676 203.637 18.098 205.941 18.44L206.877 16.784ZM203.835 6.92H197.445V4.58H203.835V6.92ZM222.084 18.422V2.384H220.086V8.864H218.754V2.672H216.792V17.684H218.754V10.556H220.086V18.422H222.084ZM215.784 11.816C215.784 9.8 214.362 8.486 212.274 8.486C210.222 8.486 208.764 9.782 208.764 11.816C208.764 13.724 210.204 15.146 212.274 15.146C214.362 15.146 215.784 13.832 215.784 11.816ZM208.422 7.892H216.072V6.218H208.422V7.892ZM213.894 11.816C213.894 12.788 213.21 13.49 212.274 13.49C211.356 13.49 210.672 12.824 210.672 11.816C210.672 10.826 211.356 10.142 212.274 10.142C213.21 10.142 213.894 10.826 213.894 11.816ZM210.168 5.3H214.488V3.626H210.168V5.3ZM224.548 12.68H226.348L226.6 3.446H224.26L224.548 12.68ZM224.368 16.514H226.528V14.408H224.368V16.514Z" fill="black"/>
<path d="M24.7252 38.92C24.7252 37.6111 23.1489 37.0763 21.0941 37.0763C19.0674 37.0763 17.477 37.6111 17.477 38.92C17.477 40.2289 19.0674 40.7637 21.0941 40.7637C23.1489 40.7637 24.7252 40.2289 24.7252 38.92ZM19.3911 45.9852V42.2274H22.7548V45.9852H23.6556V42.2274H26.6393V41.4674H15.5348V42.2274H18.4904V45.9852H19.3911ZM23.7541 38.92C23.7541 39.7504 22.2481 40.0037 21.0941 40.0037C19.9541 40.0037 18.4341 39.7504 18.4341 38.92C18.4341 38.0896 19.9541 37.8504 21.0941 37.8504C22.2481 37.8504 23.7541 38.0896 23.7541 38.92ZM25.9637 36.4148V35.6407H16.2385V36.4148H25.9637ZM23.1067 34.7541V33.9659H19.0815V34.7541H23.1067ZM37.3053 41.003V33.6844H36.4046V41.003H37.3053ZM34.5187 39.4689C33.1253 38.9481 31.4505 37.4422 31.4505 35.4578V34.2896H30.5498V35.4859C30.5498 37.4704 29.0861 39.0185 27.3831 39.8489L27.9461 40.5385C29.6209 39.5393 30.6483 38.4696 31.0283 37.1889C31.4927 38.4696 32.7172 39.5533 33.9698 40.1867L34.5187 39.4689ZM37.3053 45.9852V41.6926H29.1424V42.4526H36.4046V45.9852H37.3053ZM50.4907 39.6659V38.9059H48.4499V33.6844H47.5492V45.9852H48.4499V39.6659H50.4907ZM46.7892 42.8748L46.7188 42.1148C45.6351 42.2837 44.087 42.4244 42.4966 42.4667V38.5822H41.5958V42.4948C40.6951 42.523 39.4566 42.5089 38.8092 42.5089L38.964 43.3252C40.0195 43.3252 41.4973 43.3111 42.7358 43.2407C43.8618 43.1844 45.607 43.0437 46.7892 42.8748ZM45.804 35.1059H39.4847V35.8659H44.861C44.861 37.2733 44.6781 39.5111 44.5092 40.4541L45.3818 40.5385C45.6633 39.1874 45.8181 36.7385 45.804 35.1059ZM64.0745 40.0319V33.6844H63.1737V40.0319H64.0745ZM64.5671 45.9007V45.1267H57.15V43.5644H64.0885V40.6793H56.193V41.4533H63.1878V42.8607H56.2634V45.9007H64.5671ZM57.4737 34.1911C55.8271 34.1911 54.4337 35.2607 54.4337 36.8933C54.4337 38.5259 55.8271 39.5815 57.4737 39.5815C59.1345 39.5815 60.5137 38.5119 60.5137 36.8793C60.5137 35.2467 59.1345 34.1911 57.4737 34.1911ZM57.4737 34.9793C58.7545 34.9793 59.5989 35.7533 59.5989 36.8933C59.5989 38.0333 58.7545 38.7793 57.4737 38.7793C56.2774 38.7793 55.3485 38.0193 55.3485 36.8793C55.3485 35.7393 56.2774 34.9793 57.4737 34.9793ZM76.908 39.863V39.1311H65.8035V39.863H76.908ZM75.8805 45.7741V45.0281H68.0835V43.7756H75.402V41.0593H67.1405V41.8193H74.5013V43.0578H67.1828V45.7741H75.8805ZM75.5428 36.1193C75.5428 34.6978 73.9383 34.0222 71.3628 34.0222C68.8294 34.0222 67.1968 34.6978 67.1968 36.1193C67.1968 37.5548 68.8294 38.2163 71.3628 38.2163C73.9383 38.2163 75.5428 37.5548 75.5428 36.1193ZM71.3628 34.7541C73.3191 34.7541 74.642 35.2185 74.642 36.1193C74.642 37.02 73.3191 37.4704 71.3628 37.4704C69.4065 37.4704 68.1257 37.02 68.1257 36.1193C68.1257 35.2185 69.4065 34.7541 71.3628 34.7541ZM91.9273 44.4089V43.6348H86.8044V40.4963H90.534V34.7822H82.2021V40.4963H85.9036V43.6348H80.8229V44.4089H91.9273ZM89.6332 39.7363H83.1029V35.5563H89.6332V39.7363ZM102.298 39.1733V38.4133H95.0075V35.2607H102.115V34.5007H94.1208V39.1733H102.298ZM98.5541 45.8022V41.6222H103.677V40.8622H92.5726V41.6222H97.6534V45.8022H98.5541ZM116.994 45.8163V40.9607H116.093V42.6356H110.238V40.9607H109.337V45.8163H116.994ZM107.775 35.303H110.548V35.8378C110.548 37.5126 108.915 39.2156 107.353 39.8348L107.859 40.5104C109.225 39.9052 110.66 38.5259 110.97 37.3859C111.462 38.4978 112.687 39.68 113.954 40.1867L114.446 39.4548C112.968 38.9622 111.448 37.4844 111.448 35.8519V35.303H114.207V34.5289H107.775V35.303ZM116.093 45.0704H110.238V43.3815H116.093V45.0704ZM118.908 37.5548V36.7807H116.994V33.6844H116.093V40.2852H116.994V37.5548H118.908ZM129.348 45.9852V33.6844H128.448V45.9852H129.348ZM125.675 35.0215H119.989V35.7956H124.69C124.465 38.6385 122.607 41.1719 119.468 42.7341L120.017 43.4519C123.015 41.8333 125.605 39.103 125.675 35.0215ZM143.523 44.5637C143.523 43.663 142.58 43.1 139.92 43.1C137.232 43.1 136.317 43.663 136.317 44.5637C136.317 45.4504 137.232 46.0133 139.92 46.0133C142.58 46.0133 143.523 45.4504 143.523 44.5637ZM144.846 37.5126C143.172 37.3296 140.92 36.443 140.469 35.1341H144.326V34.36H135.473V35.1341H139.4C138.992 36.4852 136.88 37.3156 135.037 37.5126L135.459 38.2444C137.528 37.8926 139.442 36.9356 139.906 35.88C140.469 36.9356 142.369 37.8926 144.424 38.2585L144.846 37.5126ZM145.466 39.7644V39.0044H140.343V37.5689H139.442V39.0044H134.361V39.7644H145.466ZM142.637 44.5637C142.637 45.0704 141.652 45.3096 139.92 45.3096C138.161 45.3096 137.232 45.0704 137.232 44.5637C137.232 44.043 138.161 43.8037 139.92 43.8037C141.652 43.8037 142.637 44.043 142.637 44.5637ZM144.424 42.6637V41.9178H135.431V42.6637H144.424ZM141.905 41.2704V40.4822H137.936V41.2704H141.905ZM157.215 40.8481V40.0741H146.111V40.8481H157.215ZM155.864 45.577V44.817H148.489V42.0444H147.589V45.577H155.864ZM155.822 36.443C155.822 34.8807 154.274 34.1207 151.67 34.1207C149.081 34.1207 147.504 34.8807 147.504 36.443C147.504 38.0193 149.066 38.7652 151.656 38.7652C154.26 38.7652 155.822 38.0193 155.822 36.443ZM151.67 34.8807C153.626 34.8807 154.935 35.3874 154.935 36.443C154.935 37.4844 153.626 38.0052 151.656 38.0052C149.7 38.0052 148.433 37.4844 148.433 36.443C148.433 35.3874 149.714 34.8807 151.67 34.8807ZM162.383 42.143V42.903H169.913V46.0837H170.813V42.143H167.126V40.3133H172.235V39.5533H161.13V40.3133H166.225V42.143H162.383ZM166.211 34.2333C166.211 35.9081 163.692 37.4281 161.806 37.6393L162.242 38.3711C164.128 37.9911 166.113 36.6822 166.675 35.4578C167.253 36.6822 169.237 37.9911 171.123 38.3711L171.559 37.6393C169.673 37.4281 167.14 35.9081 167.14 34.2333V33.8393H166.211V34.2333ZM183.506 39.863C181.606 39.4126 178.89 37.4422 178.89 35.4859V34.6415H177.961V35.4859C177.961 37.4422 175.385 39.4126 173.373 39.8348L173.865 40.5667C176.173 39.8911 178.045 38.0896 178.411 36.9356C178.847 38.1037 180.818 39.8911 182.999 40.5948L183.506 39.863ZM183.985 44.4089V43.6348H178.862V40.4822H177.961V43.6348H172.88V44.4089H183.985ZM199.004 44.4089V43.6348H193.881V40.4963H197.611V34.7822H189.279V40.4963H192.98V43.6348H187.899V44.4089H199.004ZM196.71 39.7363H190.179V35.5563H196.71V39.7363ZM210.754 40.3415V39.5815H199.649V40.3415H210.754ZM209.332 45.7459V41.777H201.085V45.7459H209.332ZM208.431 44.9859H201.986V42.523H208.431V44.9859ZM209.388 36.2881C209.388 34.8526 207.812 34.0644 205.194 34.0644C202.591 34.0644 201.014 34.8526 201.014 36.2881C201.014 37.7378 202.591 38.4978 205.194 38.4978C207.812 38.4978 209.388 37.7378 209.388 36.2881ZM208.488 36.2881C208.488 37.2874 207.165 37.7519 205.194 37.7519C203.238 37.7519 201.943 37.2874 201.943 36.2881C201.943 35.303 203.238 34.8385 205.194 34.8385C207.165 34.8385 208.488 35.303 208.488 36.2881Z" fill="black"/>
</svg>
