<svg width="241" height="59" viewBox="0 0 241 59" fill="none" xmlns="http://www.w3.org/2000/svg">
<path d="M20.04 19.352V17.36H11.568V14.96C14.952 14.72 17.088 13.304 17.088 11.192C17.088 8.864 14.472 7.352 10.392 7.352C6.336 7.352 3.696 8.864 3.696 11.192C3.696 13.28 5.784 14.672 9.12 14.96V17.36H0.72V19.352H20.04ZM18.84 6.464V4.472H1.92V6.464H18.84ZM14.592 11.192C14.592 12.512 12.624 13.16 10.392 13.16C8.16 13.16 6.192 12.512 6.192 11.192C6.192 9.872 8.16 9.248 10.392 9.248C12.624 9.248 14.592 9.872 14.592 11.192ZM6.576 3.128H14.16V1.16H6.576V3.128ZM40.7336 7.208V5.144H37.5896V0.511999H35.1416V12.32H37.5896V7.208H40.7336ZM37.5896 21.608V13.544H23.9096V21.608H37.5896ZM35.1416 19.664H26.3816V15.464H35.1416V19.664ZM33.0296 8.12C30.4856 8.696 27.4136 8.936 24.2456 8.96V1.688H21.8216V11.072L24.1016 11.048C26.9096 11.024 30.7256 10.736 33.3656 10.112L33.0296 8.12ZM60.4839 14.936C57.3399 13.232 55.0359 10.04 55.0359 5.72V4.688H59.3799V2.744H48.0279V4.688H52.4919V5.744C52.4919 10.064 50.3559 13.448 46.9479 15.368L48.5079 17.168C51.0519 15.824 53.2119 12.992 53.7639 10.688C54.4599 12.896 57.0519 15.632 59.0439 16.736L60.4839 14.936ZM64.7319 21.896V0.511999H62.2839V21.896H64.7319ZM78.5376 6.776C78.5376 3.776 76.0896 1.616 73.0656 1.616C70.0416 1.616 67.6176 3.824 67.6176 6.776C67.6176 9.8 70.0896 11.816 73.0656 11.816C76.1376 11.816 78.5376 9.8 78.5376 6.776ZM70.3056 13.952V15.944H82.5456V21.92H85.0176V13.952H70.3056ZM79.1616 10.256H82.5456V12.824H85.0176V0.511999H82.5456V3.248H79.1616L79.2576 5.264H82.5456V8.24H79.2576L79.1616 10.256ZM76.1376 6.752C76.1376 8.504 74.9136 9.896 73.0656 9.896C71.2896 9.896 70.0416 8.552 70.0416 6.752C70.0416 5.096 71.2656 3.632 73.0656 3.632C75.0096 3.632 76.1376 5.072 76.1376 6.752ZM100.023 7.304C100.023 4.304 97.5992 2.192 94.4312 2.192C91.3352 2.192 88.9592 4.352 88.9592 7.304C88.9592 10.208 91.3112 12.176 94.4312 12.176C97.5752 12.176 100.023 10.256 100.023 7.304ZM97.5512 7.28C97.5512 8.984 96.1112 10.088 94.4312 10.088C92.7992 10.088 91.3592 8.984 91.3592 7.28C91.3592 5.504 92.7752 4.304 94.4312 4.304C96.1592 4.304 97.5512 5.432 97.5512 7.28ZM105.567 0.511999H103.119V21.896H105.567V0.511999ZM101.919 14.456C100.071 14.648 97.6712 14.816 94.6232 14.936C92.1272 15.08 89.7992 15.08 87.5192 15.056L87.9032 17.168C92.9192 17.144 97.5272 16.928 102.111 16.424L101.919 14.456ZM131.389 21.896V0.511999H128.941V21.896H131.389ZM114.421 9.656C114.421 14.168 116.461 17.144 119.893 17.144C123.325 17.144 125.318 14.168 125.318 9.68C125.318 5.144 123.325 2.168 119.893 2.168C116.461 2.168 114.421 5.144 114.421 9.656ZM122.989 9.656C122.989 13.088 121.717 15.152 119.893 15.152C118.093 15.152 116.845 13.088 116.845 9.656C116.845 6.224 118.093 4.184 119.893 4.184C121.717 4.184 122.989 6.224 122.989 9.656ZM152.107 13.112V0.511999H149.755V5.72H147.691V0.895998H145.363V12.848H147.691V7.76H149.755V13.112H152.107ZM137.563 14.144V16.112H149.659V21.92H152.107V14.144H137.563ZM144.835 10.184C142.843 9.224 140.683 7.112 140.683 4.04V1.856H138.307V4.112C138.307 7.208 136.435 9.584 133.963 10.952L135.379 12.68C137.251 11.72 138.979 9.776 139.555 8.096C140.131 9.56 142.147 11.336 143.587 12.008L144.835 10.184ZM155.113 3.92H159.553V4.28C159.553 7.424 157.273 9.992 154.273 11.12L155.761 13.04C157.897 12.224 160.201 10.136 160.825 8.048C161.737 10.016 163.825 11.72 165.577 12.416L166.945 10.472C164.449 9.68 162.097 7.376 162.097 4.184V3.92H166.345V1.88H155.113V3.92ZM157.585 14.216V16.184H169.561V21.92H172.009V14.216H157.585ZM171.985 13.112V0.511999H169.537V5.84H166.057V7.88H169.537V13.112H171.985ZM192.246 16.016V0.511999H189.798V16.016H192.246ZM192.75 21.272V19.304H180.558V14.552H178.11V21.272H192.75ZM186.246 7.328C186.246 4.28 184.038 2.096 180.774 2.096C177.486 2.096 175.254 4.304 175.254 7.352C175.254 10.376 177.51 12.56 180.774 12.56C184.038 12.56 186.246 10.376 186.246 7.328ZM183.798 7.328C183.798 9.08 182.646 10.472 180.774 10.472C178.95 10.472 177.726 9.08 177.726 7.328C177.726 5.504 178.95 4.136 180.774 4.136C182.646 4.136 183.798 5.456 183.798 7.328ZM218.381 21.896V0.511999H215.933V21.896H218.381ZM211.829 2.768H201.917V4.784H209.189C208.781 9.272 205.589 13.76 200.669 16.016L202.205 17.888C208.373 14.504 211.685 9.392 211.829 2.768ZM238.306 10.112V8.192H226.066V6.512H237.778V1.232H223.522V3.128H235.306V4.736H223.594V10.112H229.45V11.816H221.05V13.784H240.37V11.816H231.898V10.112H238.306ZM223.306 15.248V17.216H235.402V21.968H237.85V15.248H223.306ZM8.304 47.088V45.864H3.36V41.592H9.552V40.272H1.824V53.352C6 53.4 8.544 53.16 10.848 52.68L10.704 51.384C8.904 51.816 5.904 52.032 3.36 51.96V47.088H8.304ZM12.888 46.872V57.576H14.4V38.232H12.888V45.552H9.672V46.872H12.888ZM18.576 58.68V37.704H17.04V58.68H18.576ZM31.5176 53.256V39.936H22.0376V53.256H31.5176ZM29.9816 51.936H23.5736V41.256H29.9816V51.936ZM40.7816 47.568V46.248H37.2296V37.704H35.6936V58.68H37.2296V47.568H40.7816ZM57.5153 37.704H55.9793V58.68H57.5153V47.976H61.0673V46.656H57.5153V37.704ZM51.9953 39.984H42.3953V41.304H50.3873C50.0033 46.152 47.0513 50.472 41.6993 53.136L42.6353 54.36C47.7473 51.6 51.8753 46.944 51.9953 39.984ZM84.6816 49.896V37.704H83.1456V49.896H84.6816ZM73.4496 38.976C70.5696 38.976 68.1456 40.872 68.1456 43.8C68.1456 46.728 70.5696 48.6 73.4496 48.6C76.3296 48.6 78.7776 46.704 78.7776 43.776C78.7776 40.848 76.3296 38.976 73.4496 38.976ZM73.4496 40.296C75.7056 40.296 77.1936 41.736 77.1936 43.8C77.1936 45.888 75.7056 47.28 73.4496 47.28C71.3616 47.28 69.7056 45.864 69.7056 43.776C69.7056 41.688 71.3376 40.296 73.4496 40.296ZM85.6656 58.704L86.6256 57.624C84.6816 56.88 82.4496 54.528 82.4496 51.936V50.616H80.9136V52.056C80.9136 54.552 78.8256 56.856 76.6176 57.936L77.5776 58.968C79.2576 58.128 81.1296 56.208 81.6816 54.552C82.2336 56.136 84.1536 57.96 85.6416 58.704H85.6656ZM77.8416 56.184C76.1616 55.536 74.5776 54.048 74.5776 51.72V50.64H73.0416V51.888C73.0416 54.408 70.8096 56.784 68.7216 57.648L69.6336 58.752C71.4816 57.84 73.3776 55.8 73.8576 54.216C74.4096 55.536 75.6096 56.64 76.7376 57.264L77.8416 56.184ZM106.815 49.992V48.672H87.8792V49.992H106.815ZM104.607 58.152V56.832H92.0312V52.056H90.5192V58.152H104.607ZM104.535 45.696V44.376H92.0552V38.424H90.5432V45.696H104.535ZM130.742 54.72C130.742 52.32 128.246 50.88 123.47 50.88C118.741 50.88 116.197 52.32 116.197 54.72C116.197 57.12 118.741 58.56 123.47 58.56C128.246 58.56 130.742 57.12 130.742 54.72ZM123.47 52.152C126.949 52.152 129.157 53.064 129.157 54.72C129.157 56.4 126.949 57.288 123.47 57.288C119.989 57.288 117.781 56.4 117.781 54.72C117.781 53.064 119.989 52.152 123.47 52.152ZM132.925 48.864V47.544H123.613V43.224H122.078V47.544H113.989V48.864H132.925ZM130.501 38.904H116.365V40.224H128.918L128.894 41.808C128.894 43.104 128.701 44.664 128.365 45.888L129.878 46.104C130.261 44.592 130.501 42.408 130.501 40.872V38.904ZM153.571 45.768V44.448H150.307V37.704H148.771V53.4H150.307V45.768H153.571ZM151.003 58.176V56.856H138.811V51.792H137.275V58.176H151.003ZM135.043 39.528V40.848H142.699C142.195 44.448 138.883 47.904 134.155 49.248L134.947 50.568C140.299 48.744 144.043 45.048 144.427 39.528H135.043Z" fill="black"/>
</svg>
