<svg width="113" height="90" viewBox="0 0 113 90" fill="none" xmlns="http://www.w3.org/2000/svg">
<g filter="url(#filter0_i_783_1033)">
<path d="M25.0575 65.3127L26.3481 63.2471C26.3481 63.2471 29.3366 60.7942 25.0575 58.7932C20.7784 56.7276 17.3823 54.7266 17.3823 54.7266H13.9862L11.8127 60.8588C11.8127 60.8588 14.3937 60.8588 13.9862 62.4725C13.5786 64.0863 10.9976 63.3117 11.8127 65.3127C12.6957 67.3783 10.9976 66.5392 14.8013 68.1529C18.6728 69.7667 19.9634 71.3804 21.6614 69.7667C23.3595 68.1529 25.0575 65.3127 25.0575 65.3127V65.3127Z" fill="white"/>
</g>
<g filter="url(#filter1_i_783_1033)">
<path d="M23.2483 77.0271L20.1887 74.9393L12.1114 73.6997L7.46091 70.4375C7.46091 70.4375 2.81038 74.9393 2.81038 75.7875C2.81038 76.6357 -0.677512 81.529 0.117974 82.7686C0.91346 84.0082 2.0149 85.6393 4.76851 85.6393C7.52211 85.6393 10.1533 82.7686 13.6412 81.1375C17.1291 79.5064 18.2918 77.0271 19.8215 77.8753C21.3513 78.6582 23.3094 77.0271 23.3094 77.0271H23.2483Z" fill="white"/>
</g>
<g filter="url(#filter2_i_783_1033)">
<path d="M39.9451 66.3828L33.1939 68.5116C33.1939 68.5116 31.4172 70.6403 31.4172 71.4386C31.4172 72.2369 32.3411 76.0288 32.3411 76.0288C32.3411 76.0288 31.4172 76.827 31.4172 78.9558V83.1468C31.4172 83.1468 33.6913 88.6017 35.468 89.4665C37.2446 90.3314 40.3715 88.6017 41.2953 86.1404C42.2192 83.6125 39.5187 76.0953 39.5187 76.0953C39.5187 76.0953 34.1177 73.9665 35.468 73.5674C36.8182 73.1682 40.8689 72.7691 41.2953 72.7691C41.7217 72.7691 43.072 71.5051 43.072 71.5051L41.7217 66.4494H39.9451V66.3828Z" fill="white"/>
</g>
<g filter="url(#filter3_i_783_1033)">
<path d="M61.1384 23.6674V19.379L57.5666 13.9097C57.5666 13.9097 54.8094 11.983 54.4334 11.1751C54.0574 10.3671 49.295 7.25958 49.295 7.63248C49.295 8.00539 45.3471 11.548 45.3471 11.9209C45.3471 12.2938 39.0181 16.6443 39.0181 16.6443C39.0181 16.6443 40.9606 23.2945 40.9606 23.6674C40.9606 24.0403 37.8275 24.0403 40.146 26.7749C42.5272 29.5096 50.0469 30.3175 50.0469 30.3175C50.0469 30.3175 50.4229 27.9558 50.8616 31.1255C51.2375 34.233 50.0469 35.8489 50.0469 36.2219C50.0469 36.5948 51.9895 38.2107 54.3707 38.2107C56.752 38.2107 59.8852 37.8378 60.2611 38.2107C60.6371 38.5836 66.2142 39.0186 66.2142 39.0186C66.2142 39.0186 66.5902 39.0186 66.2142 35.476C65.8382 31.9334 63.833 29.1988 63.833 29.1988L61.8277 26.4642L61.0131 23.7295L61.1384 23.6674Z" fill="white"/>
</g>
<g filter="url(#filter4_i_783_1033)">
<path d="M80.3342 1.61685C78.986 1.61685 73.6642 0.336837 73.6642 0.336837L72.7417 5.45685L68.6972 8.01685C68.6972 8.01685 66.9232 8.89264 67.7747 10.1726C68.6972 11.4526 69.5487 12.261 69.1229 13.1368C68.6972 14.0126 66.0008 13.1368 66.4265 14.4168C66.8523 15.6968 69.5486 17.7852 69.5486 17.7852C69.5486 17.7852 68.2005 19.941 68.2005 20.7495C68.2005 21.5579 69.9744 23.3094 70.8969 23.3094C71.8193 23.3094 74.4447 19.4695 74.4447 19.4695C74.4447 19.4695 75.3672 17.7852 76.2187 17.3137C77.1411 16.9095 80.2632 15.2253 80.2632 15.2253H82.0372C82.9596 15.2253 84.7335 11.8568 84.7335 11.8568C84.7335 11.8568 83.8111 10.5768 86.5075 10.981C89.2039 11.3853 88.2814 10.9811 89.6296 11.8568C90.9778 12.7326 91.8293 12.7326 92.326 12.7326C92.8227 12.7326 94.5966 11.4526 93.2484 10.1726C91.9002 8.89264 90.552 8.48841 89.7006 7.20841C88.7781 5.92841 88.7781 2.56 88.7781 2.56C88.7781 2.56 87.9266 0 87.4299 0H82.0372L80.2632 1.68421L80.3342 1.61685Z" fill="white"/>
</g>
<g filter="url(#filter5_i_783_1033)">
<path d="M95.4857 11.6562C95.4857 11.6562 94.1506 15.2156 94.1506 15.5903C94.1506 15.9649 93.2371 17.5885 94.1506 17.9632C94.9938 18.3379 98.1558 19.1496 98.1558 19.1496V21.0854C98.1558 21.8972 96.8207 22.2719 99.0693 23.0837C101.248 23.8955 107.009 22.2719 107.009 22.2719H111.858C111.858 22.2719 113.614 19.899 112.771 19.1496C111.858 18.3378 109.68 16.0274 109.68 15.5903C109.68 15.1532 107.923 14.7785 107.431 14.4038C107.009 14.0292 104.339 13.2174 104.339 13.2174L98.5774 11.6562H95.4857V11.6562Z" fill="white"/>
</g>
<g filter="url(#filter6_i_783_1033)">
<path d="M88.2428 23.3803C88.2428 23.3803 83.7774 22.902 83.3521 24.4165C82.9268 25.931 82.0054 27.9237 81.5801 28.402C81.1548 28.8802 78.0361 30.3947 78.0361 30.3947L80.7295 33.4237C80.7295 33.4237 81.1548 34.9382 82.9268 35.8948C84.6988 36.931 87.3922 38.9238 87.3922 38.9238C87.3922 38.9238 87.8175 38.4455 88.2428 38.9238C88.6681 39.402 90.9362 37.8875 90.9362 37.8875C90.9362 37.8875 90.5109 36.8513 91.7868 36.8513C93.0626 36.8513 95.3308 37.8875 95.3308 37.8875C95.3308 37.8875 96.6775 37.4092 97.1027 36.373C97.528 35.3368 96.6775 34.3803 97.1027 33.344C97.528 32.3078 97.1027 29.8368 97.1027 29.8368L95.756 26.3295C95.756 26.3295 93.984 25.8513 93.0626 25.8513C92.1412 25.8513 90.8653 25.373 90.8653 25.373L89.9439 24.8947L88.1719 23.3803H88.2428Z" fill="white"/>
</g>
<g filter="url(#filter7_i_783_1033)">
<path d="M71.8526 27.4589C71.078 27.6218 70.4856 28.8431 70.44 29.9831C70.3945 30.9602 70.6679 31.693 71.0324 32.5887C71.2147 32.9958 71.4425 33.6472 71.8982 34.1358C72.4905 34.7872 73.5841 35.3571 73.9031 34.6243C74.1309 34.1357 73.812 33.5658 73.6297 31.0416C73.493 29.4945 73.6297 29.0874 73.3563 28.436C73.0373 27.7032 72.445 27.296 71.8982 27.3775L71.8526 27.4589Z" fill="white"/>
</g>
<g filter="url(#filter8_i_783_1033)">
<path d="M89.9873 67.1187C89.9873 67.1187 87.8316 70.6142 87.3448 71.35C86.9276 72.1472 83.3811 74.4775 83.3811 74.8455C83.3811 75.2134 83.3811 76.0106 82.9638 77.1758C82.5466 78.3409 81.2254 80.242 82.9638 81.0392C84.7023 81.7751 86.9276 82.2043 86.9276 82.2043C86.9276 82.2043 91.7257 79.874 92.2125 81.0392C92.6297 82.2043 92.6297 83.0015 94.4378 84.1053C96.1762 85.2705 98.4015 85.6384 98.8187 85.6384C99.236 85.6384 99.236 83.6761 100.557 83.3081C101.878 82.9402 105.355 80.242 105.355 80.242C105.355 80.242 105.773 77.1758 104.034 76.3786C102.296 75.6427 100.557 74.8455 100.557 74.8455L99.7227 72.9444L101.461 70.9821L101.878 67.1187L94.0205 66.3828L90.0568 67.1187H89.9873Z" fill="white"/>
</g>
<path d="M96.5 73.5L87 29L72.5 30L48.5 14.5L39 69L96.5 73.5Z" stroke="#FD8002" stroke-width="2" stroke-linejoin="round" stroke-dasharray="2 2"/>
<defs>
<filter id="filter0_i_783_1033" x="11.6545" y="54.7266" width="15.7085" height="15.707" filterUnits="userSpaceOnUse" color-interpolation-filters="sRGB">
<feFlood flood-opacity="0" result="BackgroundImageFix"/>
<feBlend mode="normal" in="SourceGraphic" in2="BackgroundImageFix" result="shape"/>
<feColorMatrix in="SourceAlpha" type="matrix" values="0 0 0 0 0 0 0 0 0 0 0 0 0 0 0 0 0 0 127 0" result="hardAlpha"/>
<feOffset dy="-1.11864"/>
<feComposite in2="hardAlpha" operator="arithmetic" k2="-1" k3="1"/>
<feColorMatrix type="matrix" values="0 0 0 0 0 0 0 0 0 0 0 0 0 0 0 0 0 0 0.25 0"/>
<feBlend mode="normal" in2="shape" result="effect1_innerShadow_783_1033"/>
</filter>
<filter id="filter1_i_783_1033" x="0" y="70.4375" width="23.3093" height="15.2031" filterUnits="userSpaceOnUse" color-interpolation-filters="sRGB">
<feFlood flood-opacity="0" result="BackgroundImageFix"/>
<feBlend mode="normal" in="SourceGraphic" in2="BackgroundImageFix" result="shape"/>
<feColorMatrix in="SourceAlpha" type="matrix" values="0 0 0 0 0 0 0 0 0 0 0 0 0 0 0 0 0 0 127 0" result="hardAlpha"/>
<feOffset dy="-1.11864"/>
<feComposite in2="hardAlpha" operator="arithmetic" k2="-1" k3="1"/>
<feColorMatrix type="matrix" values="0 0 0 0 0 0 0 0 0 0 0 0 0 0 0 0 0 0 0.25 0"/>
<feBlend mode="normal" in2="shape" result="effect1_innerShadow_783_1033"/>
</filter>
<filter id="filter2_i_783_1033" x="31.4172" y="66.3828" width="11.6548" height="23.3086" filterUnits="userSpaceOnUse" color-interpolation-filters="sRGB">
<feFlood flood-opacity="0" result="BackgroundImageFix"/>
<feBlend mode="normal" in="SourceGraphic" in2="BackgroundImageFix" result="shape"/>
<feColorMatrix in="SourceAlpha" type="matrix" values="0 0 0 0 0 0 0 0 0 0 0 0 0 0 0 0 0 0 127 0" result="hardAlpha"/>
<feOffset dy="-1.11864"/>
<feComposite in2="hardAlpha" operator="arithmetic" k2="-1" k3="1"/>
<feColorMatrix type="matrix" values="0 0 0 0 0 0 0 0 0 0 0 0 0 0 0 0 0 0 0.25 0"/>
<feBlend mode="normal" in2="shape" result="effect1_innerShadow_783_1033"/>
</filter>
<filter id="filter3_i_783_1033" x="39.0181" y="7.60156" width="27.3633" height="31.418" filterUnits="userSpaceOnUse" color-interpolation-filters="sRGB">
<feFlood flood-opacity="0" result="BackgroundImageFix"/>
<feBlend mode="normal" in="SourceGraphic" in2="BackgroundImageFix" result="shape"/>
<feColorMatrix in="SourceAlpha" type="matrix" values="0 0 0 0 0 0 0 0 0 0 0 0 0 0 0 0 0 0 127 0" result="hardAlpha"/>
<feOffset dy="-1.11864"/>
<feComposite in2="hardAlpha" operator="arithmetic" k2="-1" k3="1"/>
<feColorMatrix type="matrix" values="0 0 0 0 0 0 0 0 0 0 0 0 0 0 0 0 0 0 0.25 0"/>
<feBlend mode="normal" in2="shape" result="effect1_innerShadow_783_1033"/>
</filter>
<filter id="filter4_i_783_1033" x="66.3811" y="0" width="27.3633" height="23.3086" filterUnits="userSpaceOnUse" color-interpolation-filters="sRGB">
<feFlood flood-opacity="0" result="BackgroundImageFix"/>
<feBlend mode="normal" in="SourceGraphic" in2="BackgroundImageFix" result="shape"/>
<feColorMatrix in="SourceAlpha" type="matrix" values="0 0 0 0 0 0 0 0 0 0 0 0 0 0 0 0 0 0 127 0" result="hardAlpha"/>
<feOffset dy="-1.11864"/>
<feComposite in2="hardAlpha" operator="arithmetic" k2="-1" k3="1"/>
<feColorMatrix type="matrix" values="0 0 0 0 0 0 0 0 0 0 0 0 0 0 0 0 0 0 0.25 0"/>
<feBlend mode="normal" in2="shape" result="effect1_innerShadow_783_1033"/>
</filter>
<filter id="filter5_i_783_1033" x="93.7446" y="11.6562" width="19.2556" height="11.6562" filterUnits="userSpaceOnUse" color-interpolation-filters="sRGB">
<feFlood flood-opacity="0" result="BackgroundImageFix"/>
<feBlend mode="normal" in="SourceGraphic" in2="BackgroundImageFix" result="shape"/>
<feColorMatrix in="SourceAlpha" type="matrix" values="0 0 0 0 0 0 0 0 0 0 0 0 0 0 0 0 0 0 127 0" result="hardAlpha"/>
<feOffset dy="-1.11864"/>
<feComposite in2="hardAlpha" operator="arithmetic" k2="-1" k3="1"/>
<feColorMatrix type="matrix" values="0 0 0 0 0 0 0 0 0 0 0 0 0 0 0 0 0 0 0.25 0"/>
<feBlend mode="normal" in2="shape" result="effect1_innerShadow_783_1033"/>
</filter>
<filter id="filter6_i_783_1033" x="78.0361" y="23.3086" width="19.2556" height="15.707" filterUnits="userSpaceOnUse" color-interpolation-filters="sRGB">
<feFlood flood-opacity="0" result="BackgroundImageFix"/>
<feBlend mode="normal" in="SourceGraphic" in2="BackgroundImageFix" result="shape"/>
<feColorMatrix in="SourceAlpha" type="matrix" values="0 0 0 0 0 0 0 0 0 0 0 0 0 0 0 0 0 0 127 0" result="hardAlpha"/>
<feOffset dy="-1.11864"/>
<feComposite in2="hardAlpha" operator="arithmetic" k2="-1" k3="1"/>
<feColorMatrix type="matrix" values="0 0 0 0 0 0 0 0 0 0 0 0 0 0 0 0 0 0 0.25 0"/>
<feBlend mode="normal" in2="shape" result="effect1_innerShadow_783_1033"/>
</filter>
<filter id="filter7_i_783_1033" x="70.4351" y="27.3672" width="3.54712" height="7.60156" filterUnits="userSpaceOnUse" color-interpolation-filters="sRGB">
<feFlood flood-opacity="0" result="BackgroundImageFix"/>
<feBlend mode="normal" in="SourceGraphic" in2="BackgroundImageFix" result="shape"/>
<feColorMatrix in="SourceAlpha" type="matrix" values="0 0 0 0 0 0 0 0 0 0 0 0 0 0 0 0 0 0 127 0" result="hardAlpha"/>
<feOffset dy="-1.11864"/>
<feComposite in2="hardAlpha" operator="arithmetic" k2="-1" k3="1"/>
<feColorMatrix type="matrix" values="0 0 0 0 0 0 0 0 0 0 0 0 0 0 0 0 0 0 0.25 0"/>
<feBlend mode="normal" in2="shape" result="effect1_innerShadow_783_1033"/>
</filter>
<filter id="filter8_i_783_1033" x="82.0898" y="66.3828" width="23.3093" height="19.2539" filterUnits="userSpaceOnUse" color-interpolation-filters="sRGB">
<feFlood flood-opacity="0" result="BackgroundImageFix"/>
<feBlend mode="normal" in="SourceGraphic" in2="BackgroundImageFix" result="shape"/>
<feColorMatrix in="SourceAlpha" type="matrix" values="0 0 0 0 0 0 0 0 0 0 0 0 0 0 0 0 0 0 127 0" result="hardAlpha"/>
<feOffset dy="-1.11864"/>
<feComposite in2="hardAlpha" operator="arithmetic" k2="-1" k3="1"/>
<feColorMatrix type="matrix" values="0 0 0 0 0 0 0 0 0 0 0 0 0 0 0 0 0 0 0.25 0"/>
<feBlend mode="normal" in2="shape" result="effect1_innerShadow_783_1033"/>
</filter>
</defs>
</svg>
