<svg width="367" height="264" viewBox="0 0 367 264" fill="none" xmlns="http://www.w3.org/2000/svg">
<g filter="url(#filter0_d_783_1036)">
<rect x="10" y="7" width="347" height="244" rx="10" fill="white"/>
</g>
<path d="M41.8824 33.3655H39.9184V50.5211H41.8824V41.5871H44.5395V39.9505H41.8824V33.3655ZM37.2421 46.2851V34.7518H35.2781V38.9877H31.177V34.771H29.213V46.2851H37.2421ZM35.2781 44.687H31.177V40.5281H35.2781V44.687ZM60.7369 41.5871V39.9312H58.1568V33.3655H56.1929V50.5211H58.1568V41.5871H60.7369ZM54.5948 44.1286C52.3998 44.5908 49.6079 44.7063 47.4899 44.6678V36.5809H53.3432V34.9636H45.5452V46.3236H47.3551C50.224 46.3236 52.9774 46.1311 54.8451 45.746L54.5948 44.1286ZM71.0233 38.8144C71.0233 36.4077 69.0786 34.7133 66.537 34.7133C64.0532 34.7133 62.147 36.4462 62.147 38.8144C62.147 41.1442 64.0339 42.7231 66.537 42.7231C69.0593 42.7231 71.0233 41.1827 71.0233 38.8144ZM69.0401 38.7952C69.0401 40.1623 67.8848 41.048 66.537 41.048C65.2277 41.048 64.0724 40.1623 64.0724 38.7952C64.0724 37.3704 65.2084 36.4077 66.537 36.4077C67.9233 36.4077 69.0401 37.3126 69.0401 38.7952ZM75.471 33.3655H73.5071V50.5211H75.471V33.3655ZM72.5443 44.5522C71.0618 44.7063 69.1363 44.8411 66.691 44.9373C64.6886 45.0529 62.8209 45.0529 60.9917 45.0336L61.2998 46.728C65.324 46.7087 69.0208 46.5354 72.6984 46.1311L72.5443 44.5522ZM97.901 39.5846V37.948H95.3979V33.3655H93.4147V44.5908H95.3979V39.5846H97.901ZM90.5843 42.2802V34.6748H82.613V42.2802H90.5843ZM88.6011 40.7399H84.5962V36.2344H88.6011V40.7399ZM96.6495 49.154C94.0116 48.7304 91.1042 46.9013 91.1042 44.456V43.7628H89.0632V44.456C89.0632 46.9013 86.2136 48.8267 83.4602 49.1348L84.3844 50.6944C86.849 50.3093 89.3906 48.5571 90.0452 46.9783C90.8346 48.5186 93.3377 50.2708 95.6867 50.7136L96.6495 49.154ZM114.214 42.1454V40.4896H111.807V33.3655H109.843V50.5211H111.807V42.1454H114.214ZM108.842 44.8603C107.475 45.0143 105.819 45.1684 103.605 45.2647V40.4703H101.622V45.3417C100.409 45.3802 99.234 45.3609 98.1173 45.3609L98.3869 47.0361C101.949 47.0168 105.511 46.882 108.996 46.4007L108.842 44.8603ZM107.899 35.2716H99.0608V36.8698H105.915C105.896 38.7759 105.704 41.1442 105.434 42.5498L107.302 42.7808C107.725 41.0287 107.918 38.2946 107.899 35.2716ZM132.6 33.3655H130.637V50.5211H132.6V41.5871H135.258V39.9505H132.6V33.3655ZM127.96 46.2851V34.7518H125.996V38.9877H121.895V34.771H119.931V46.2851H127.96ZM125.996 44.687H121.895V40.5281H125.996V44.687ZM151.455 41.5871V39.9312H148.875V33.3655H146.911V50.5211H148.875V41.5871H151.455ZM145.313 44.1286C143.118 44.5908 140.326 44.7063 138.208 44.6678V36.5809H144.061V34.9636H136.263V46.3236H138.073C140.942 46.3236 143.696 46.1311 145.563 45.746L145.313 44.1286ZM161.741 38.8144C161.741 36.4077 159.797 34.7133 157.255 34.7133C154.771 34.7133 152.865 36.4462 152.865 38.8144C152.865 41.1442 154.752 42.7231 157.255 42.7231C159.777 42.7231 161.741 41.1827 161.741 38.8144ZM159.758 38.7952C159.758 40.1623 158.603 41.048 157.255 41.048C155.946 41.048 154.791 40.1623 154.791 38.7952C154.791 37.3704 155.927 36.4077 157.255 36.4077C158.641 36.4077 159.758 37.3126 159.758 38.7952ZM166.189 33.3655H164.225V50.5211H166.189V33.3655ZM163.262 44.5522C161.78 44.7063 159.854 44.8411 157.409 44.9373C155.407 45.0529 153.539 45.0529 151.71 45.0336L152.018 46.728C156.042 46.7087 159.739 46.5354 163.416 46.1311L163.262 44.5522ZM186.289 47.5174C186.289 45.6883 184.21 44.4752 180.513 44.4752C176.835 44.4752 174.756 45.6883 174.756 47.5174C174.756 49.3851 176.835 50.5789 180.513 50.5789C184.21 50.5789 186.289 49.3851 186.289 47.5174ZM181.668 41.048C181.668 39.3536 179.916 38.2176 177.644 38.2176C175.334 38.2176 173.581 39.3536 173.581 41.0287C173.581 42.7231 175.353 43.8591 177.644 43.8591C179.916 43.8591 181.668 42.7231 181.668 41.048ZM188.638 40.0852H186.116V37.9865H188.638V36.3884H186.116V33.3655H184.133V44.0901H186.116V41.7026H188.638V40.0852ZM180.513 45.9963C182.92 45.9963 184.268 46.6125 184.268 47.5367C184.268 48.4609 182.92 49.077 180.513 49.077C178.125 49.077 176.778 48.4609 176.778 47.5367C176.778 46.6317 178.125 45.9963 180.513 45.9963ZM182.592 37.6207V36.0611H172.657V37.6207H182.592ZM179.724 41.0287C179.724 41.8759 178.742 42.3958 177.644 42.3958C176.547 42.3958 175.526 41.8759 175.526 41.0287C175.526 40.1815 176.527 39.6809 177.644 39.6809C178.742 39.6809 179.724 40.1815 179.724 41.0287ZM175.141 35.0791H180.166V33.5195H175.141V35.0791ZM203.18 50.5211V33.3655H201.216V50.5211H203.18ZM189.567 40.7014C189.567 44.3212 191.204 46.7087 193.957 46.7087C196.71 46.7087 198.309 44.3212 198.309 40.7206C198.309 37.0816 196.71 34.694 193.957 34.694C191.204 34.694 189.567 37.0816 189.567 40.7014ZM196.441 40.7014C196.441 43.4547 195.42 45.1106 193.957 45.1106C192.513 45.1106 191.512 43.4547 191.512 40.7014C191.512 37.948 192.513 36.3114 193.957 36.3114C195.42 36.3114 196.441 37.948 196.441 40.7014ZM223.588 47.2671C223.588 45.2839 221.451 44.0131 217.639 44.0131C213.826 44.0131 211.65 45.2839 211.65 47.2671C211.65 49.2311 213.826 50.5018 217.639 50.5018C221.451 50.5018 223.588 49.2311 223.588 47.2671ZM225.514 42.5305V40.9709H218.024V37.9095H216.04V40.9709H210.014V42.5305H225.514ZM223.511 34.0394H211.843V35.6182H221.528C221.566 36.9468 221.412 38.5064 221.085 39.7964L222.991 40.066C223.376 38.4101 223.569 36.0611 223.511 34.0394ZM217.639 45.6112C220.045 45.6112 221.566 46.1889 221.566 47.2671C221.566 48.3646 220.045 48.923 217.639 48.923C215.213 48.923 213.691 48.3646 213.691 47.2671C213.691 46.1889 215.213 45.6112 217.639 45.6112ZM241.133 39.3921C238.669 39.2573 235.511 37.871 235.126 35.7723H240.363V34.1741H227.732V35.7723H233.008C232.681 37.871 229.87 39.238 227.001 39.4306L227.848 40.9709C230.678 40.6436 233.258 39.2958 234.048 37.6207C234.972 39.238 237.687 40.6244 240.267 40.9709L241.133 39.3921ZM241.788 44.0901V42.492H234.991V40.0275H233.027V42.492H226.288V44.0901H241.788ZM240.036 50.0397V48.4609H230.255V45.1106H228.271V50.0397H240.036ZM251.535 43.4547C251.535 41.356 249.899 39.7964 247.453 39.7964C244.989 39.7964 243.333 41.4138 243.333 43.4547C243.333 45.5727 244.989 47.1131 247.453 47.1131C249.899 47.1131 251.535 45.515 251.535 43.4547ZM249.591 43.4547C249.591 44.6485 248.782 45.4957 247.453 45.4957C246.202 45.4957 245.316 44.6485 245.316 43.4547C245.316 42.2417 246.202 41.4138 247.453 41.4138C248.686 41.4138 249.591 42.2417 249.591 43.4547ZM252.402 38.9685V37.3704H242.428V38.9685H252.402ZM244.854 35.9841H250.053V34.3667H244.854V35.9841ZM255.887 33.3655H253.904V50.5211H255.887V42.0684H258.544V40.4126H255.887V33.3655ZM274.337 43.5125V41.9144H258.837V43.5125H274.337ZM272.431 39.8157V38.2368H262.919V33.9238H260.936V39.8157H272.431ZM272.546 50.059V48.4801H262.823V45.0143H260.84V50.059H272.546ZM39.052 73.0877C38.0508 73.2417 36.1446 73.3958 34.5465 73.4728V71.9132C36.4912 71.5858 37.8005 70.2766 37.8005 68.5822C37.8005 66.5797 36.0291 65.0971 33.5838 65.0971C31.1 65.0971 29.3286 66.5797 29.3286 68.5629C29.3286 70.2766 30.6186 71.5858 32.5825 71.9132V73.5305C31.0614 73.569 29.3863 73.569 28.1348 73.569L28.4236 75.2249C32.1204 75.1864 35.9713 74.9939 39.2253 74.5703L39.052 73.0877ZM42.0364 64.3655H40.0725V77.1889H42.0364V71.6821H44.501V70.0455H42.0364V64.3655ZM42.46 81.2323V79.6534H32.7558V76.4187H30.7919V81.2323H42.46ZM35.875 68.5629C35.875 69.5064 35.0278 70.4691 33.5838 70.4691C32.1204 70.4691 31.2732 69.5449 31.2732 68.5629C31.2732 67.6002 32.1204 66.6182 33.5838 66.6182C35.0278 66.6182 35.875 67.5809 35.875 68.5629ZM58.4457 73.569V71.9709H48.857V67.2729H58.3494V65.6748H46.8738V73.569H51.5911V77.7665H44.8521V79.3454H60.3518V77.7665H53.555V73.569H58.4457ZM76.9729 69.5834V67.9853H74.4505V64.3655H72.4673V73.0684H74.4505V69.5834H76.9729ZM75.0282 81.3863V79.8267H65.3817V78.3826H74.4505V73.9734H63.3408V75.5715H72.4673V76.9193H63.4178V81.3863H75.0282ZM71.0618 71.3548C69.1363 70.7579 66.9991 68.8902 66.9991 66.2139V64.9238H64.9581V66.2909C64.9581 68.948 63.1675 70.9119 60.7799 71.7976L61.9352 73.2802C63.7066 72.5871 65.4973 71.066 66.0171 69.2753C66.7873 70.989 68.578 72.279 69.9643 72.8374L71.0618 71.3548ZM91.5144 81.5211V64.3655H89.5505V81.5211H91.5144ZM77.9016 71.7014C77.9016 75.3212 79.5382 77.7087 82.2916 77.7087C85.0449 77.7087 86.6431 75.3212 86.6431 71.7206C86.6431 68.0816 85.0449 65.694 82.2916 65.694C79.5382 65.694 77.9016 68.0816 77.9016 71.7014ZM84.7754 71.7014C84.7754 74.4547 83.7549 76.1106 82.2916 76.1106C80.8475 76.1106 79.8463 74.4547 79.8463 71.7014C79.8463 68.948 80.8475 67.3114 82.2916 67.3114C83.7549 67.3114 84.7754 68.948 84.7754 71.7014ZM98.849 79.1913H107.09V77.574H101.545L103.316 75.8026C105.164 73.8579 106.917 72.0094 106.917 69.7182C106.917 67.3691 105.453 65.9443 102.681 65.9443C101.198 65.9443 99.8694 66.5027 99.0222 67.0226L99.4266 68.5437C100.158 68.0623 101.236 67.5809 102.218 67.5809C103.951 67.5809 104.818 68.2934 104.818 69.9492C104.818 71.6821 103.431 73.2225 101.622 75.1286L98.849 78.0168V79.1913ZM111.965 79.4224C114.891 79.4224 116.624 77.4777 116.624 75.0901C116.624 72.3368 115.045 71.0467 112.388 71.0467C111.888 71.0467 111.137 71.1623 110.675 71.297L110.906 67.7542H116.085V66.1561H109.365L108.884 73.2032C109.5 72.9144 110.713 72.5486 111.56 72.5486C113.486 72.5486 114.564 73.261 114.564 75.0709C114.564 76.7653 113.409 77.7665 111.483 77.7665C110.463 77.7665 109.327 77.3622 108.614 76.9193L108.249 78.4789C109.076 78.9988 110.444 79.4224 111.965 79.4224ZM125.285 67.9853H129.772V69.4101H125.285V70.9697H129.772V76.8038H131.736V64.3655H129.772V66.4257H125.285V67.9853ZM126.884 72.125C125.035 72.5486 122.84 72.7026 120.472 72.7026V65.5207H118.508V74.3777H120.222C122.397 74.3585 125.401 74.1467 127.172 73.7231L126.884 72.125ZM132.159 81.0397V79.4609H122.532V75.764H120.549V81.0397H132.159ZM144.121 76.7268C141.733 75.5908 139.827 73.4535 139.827 69.9877V69.9107H143.331V68.3511H134.243V69.9107H137.786V69.9877C137.786 73.4535 135.995 75.8026 133.396 77.1696L134.628 78.6137C136.631 77.6125 138.383 75.4945 138.845 73.7423C139.403 75.4175 141.367 77.4199 143.081 78.1901L144.121 76.7268ZM147.221 64.3655H145.238V81.5211H147.221V72.8566H149.801V71.2008H147.221V64.3655ZM136.207 66.907H141.329V65.3474H136.207V66.907ZM160.068 69.8144C160.068 67.4077 158.123 65.7133 155.582 65.7133C153.098 65.7133 151.192 67.4462 151.192 69.8144C151.192 72.1442 153.079 73.7231 155.582 73.7231C158.104 73.7231 160.068 72.1827 160.068 69.8144ZM158.085 69.7952C158.085 71.1623 156.929 72.048 155.582 72.048C154.272 72.048 153.117 71.1623 153.117 69.7952C153.117 68.3704 154.253 67.4077 155.582 67.4077C156.968 67.4077 158.085 68.3126 158.085 69.7952ZM164.516 64.3655H162.552V81.5211H164.516V64.3655ZM161.589 75.5522C160.106 75.7063 158.181 75.8411 155.736 75.9373C153.733 76.0529 151.866 76.0529 150.036 76.0336L150.344 77.728C154.369 77.7087 158.065 77.5354 161.743 77.1311L161.589 75.5522ZM172.081 69.4871H175.797C175.509 71.2008 173.718 72.6641 171.581 73.1647L172.62 74.7436C174.507 74.2237 176.279 72.7604 176.837 71.297C177.588 72.5871 179.359 73.8194 180.9 74.1852L181.862 72.6063C180.091 72.356 178.146 71.066 177.838 69.4871H181.381V67.9083H172.081V69.4871ZM185.463 64.3655H183.48V81.5211H185.463V64.3655ZM182.517 76.3032C181.246 76.4765 179.513 76.592 177.8 76.669V73.7231H175.817V76.746C174.218 76.8038 172.582 76.7845 171.099 76.7845L171.407 78.4211C175.297 78.3826 179.09 78.2864 182.671 77.8243L182.517 76.3032ZM174.353 66.83H179.167V65.2512H174.353V66.83ZM194.979 71.7784C194.979 68.5244 193.862 65.7325 191.282 65.7325C188.722 65.7325 187.586 68.5244 187.586 71.7591C187.586 75.0131 188.722 77.8243 191.282 77.8243C193.862 77.8243 194.979 75.0131 194.979 71.7784ZM201.853 81.5211V64.3655H199.966V71.1045H198.272V64.6928H196.404V80.7317H198.272V72.7604H199.966V81.5211H201.853ZM193.112 71.7784C193.112 74.2622 192.534 76.0914 191.302 76.0914C190.089 76.0914 189.492 74.2622 189.492 71.7784C189.492 69.2946 190.089 67.4462 191.302 67.4462C192.534 67.4462 193.112 69.2946 193.112 71.7784ZM217.319 66.2139H205.497V67.7735H215.316L215.278 70.238L204.957 70.7387L205.208 72.2983L215.182 71.7591C215.085 73.1262 214.912 74.397 214.642 75.5715L216.549 75.764C217.222 72.6256 217.319 69.2753 217.319 66.2139ZM219.167 79.2491V77.6702H211.388V73.7038H209.405V77.6702H203.667V79.2491H219.167ZM235.442 79.2491V77.6702H219.942V79.2491H235.442ZM235.037 72.356C232.457 71.8939 228.741 69.4871 228.741 66.5412V65.4052H226.681V66.5412C226.681 69.5064 223.177 71.8362 220.385 72.279L221.347 73.8964C223.947 73.261 226.893 71.3163 227.682 69.1983C228.568 71.2778 231.475 73.2225 233.998 73.8964L235.037 72.356Z" fill="black"/>
<path d="M102.803 102.402H98.4818V103.075H101.948C101.915 103.632 101.819 104.156 101.669 104.648L98.086 104.862L98.2572 105.6L101.413 105.322C100.76 106.712 99.5729 107.761 98.0325 108.424L98.5353 109.034C101.103 107.793 102.739 105.782 102.803 102.402ZM105.125 101.439H104.312V110.788H105.125V105.964H106.654V105.268H105.125V101.439ZM111.834 108.189C111.802 107.964 111.781 107.75 111.759 107.525C111.428 107.579 111.01 107.611 110.55 107.654C110.679 106.391 110.786 105.129 110.893 103.878L110.08 103.792C109.994 105.086 109.909 106.402 109.834 107.696C109.759 107.707 109.695 107.707 109.63 107.707L108.882 107.739C108.807 106.424 108.711 105.108 108.646 103.792L107.833 103.899L108.111 107.761H107.074L107.202 108.467C107.994 108.467 108.817 108.435 109.684 108.381C110.508 108.338 111.331 108.263 111.834 108.189ZM113.332 110.306V101.663H112.54V105.033H111.256V105.707H112.54V110.306H113.332ZM115.075 110.788V101.439H114.273V110.788H115.075ZM111.534 103.279V102.605H107.309V103.279H111.534ZM120.487 109.643H121.813V102.252H121.118L119.257 103.086V103.856L120.487 103.61V109.643Z" fill="black"/>
<path d="M141.943 107.012V101.439H141.13V107.012H141.943ZM139.954 105.814C138.83 105.429 137.515 104.284 137.515 102.787V101.824H136.691V102.819C136.691 104.306 135.557 105.578 134.231 106.124L134.734 106.777C135.91 106.177 136.841 105.215 137.13 104.241C137.504 105.204 138.542 106.049 139.472 106.456L139.954 105.814ZM141.943 110.788V107.525H135.707V108.199H141.13V110.788H141.943ZM152.161 104.573V103.899H150.739V101.439H149.926V107.033H150.739V104.573H152.161ZM150.856 108.969C150.856 107.921 149.776 107.183 147.754 107.183C145.722 107.183 144.663 107.9 144.663 108.969C144.663 110.028 145.722 110.745 147.754 110.745C149.776 110.745 150.856 110.018 150.856 108.969ZM150.011 108.969C150.011 109.643 149.166 110.071 147.754 110.071C146.342 110.071 145.508 109.633 145.508 108.969C145.508 108.306 146.342 107.868 147.754 107.868C149.166 107.868 150.011 108.295 150.011 108.969ZM144.684 105.718V102.872H148.086V102.188H143.871V106.391H144.631C146.246 106.391 147.979 106.252 149.016 106.071L148.931 105.407C148.022 105.578 146.438 105.718 145.144 105.718H144.684ZM155.776 109.6H160.44V108.574H157.498L158.365 107.686C159.263 106.755 160.376 105.589 160.376 104.284C160.376 102.958 159.552 102.188 157.947 102.188C157.102 102.188 156.354 102.455 155.862 102.744L156.076 103.717C156.482 103.471 157.081 103.225 157.594 103.225C158.525 103.225 159.006 103.567 159.006 104.455C159.006 105.375 158.194 106.284 157.177 107.354L155.776 108.83V109.6Z" fill="black"/>
<path d="M178.227 105.129V104.445H176.826V101.439H176.013V108.456H176.826V105.129H178.227ZM177.2 110.563V109.879H171.659V107.836H170.846V110.563H177.2ZM175.446 106.777L175.36 106.124C174.601 106.252 173.445 106.327 172.333 106.37V104.177H171.531V106.391C170.835 106.413 169.98 106.413 169.445 106.413L169.552 107.14C170.311 107.14 171.445 107.087 172.408 107.055C173.296 107.012 174.601 106.905 175.446 106.777ZM174.729 102.113H170.012V102.797H173.895C173.916 103.514 173.82 104.648 173.649 105.279L174.44 105.407C174.633 104.626 174.761 103.289 174.729 102.113ZM186.156 109.012C186.156 107.942 184.904 107.343 183.043 107.343C181.203 107.343 179.973 107.921 179.973 109.012C179.973 110.093 181.182 110.67 183.064 110.67C184.926 110.67 186.156 110.093 186.156 109.012ZM183.064 108.007C184.423 108.007 185.311 108.37 185.311 109.012C185.311 109.665 184.444 110.007 183.064 110.007C181.717 110.007 180.818 109.643 180.818 109.012C180.818 108.392 181.706 108.007 183.064 108.007ZM187.482 104.755V104.07H186.07V101.439H185.247V107.354H186.07V104.755H187.482ZM184.669 106.306L184.583 105.643C183.813 105.76 182.658 105.867 181.545 105.91V104.027H180.732V105.921C180.048 105.931 179.235 105.931 178.721 105.931L178.839 106.659C179.599 106.659 180.7 106.627 181.663 106.584C182.551 106.541 183.877 106.424 184.669 106.306ZM183.845 102.006H179.32V102.68H183.011C183.011 103.535 182.904 104.434 182.776 104.969L183.578 105.076C183.738 104.402 183.845 103.321 183.845 102.006ZM193.892 107.953C192.608 107.258 191.421 105.75 191.421 104.006V103.054H193.603V102.38H188.394V103.054H190.576V104.017C190.576 105.782 189.453 107.376 188.084 108.178L188.586 108.777C189.667 108.082 190.694 106.883 191.004 105.718C191.325 106.819 192.512 107.996 193.389 108.563L193.892 107.953ZM194.972 101.439V110.788H195.785V101.439H194.972ZM201.411 109.643H202.738V102.252H202.042L200.181 103.086V103.856L201.411 103.61V109.643Z" fill="black"/>
<path d="M30.8625 110.213C32.8136 110.213 33.9689 108.916 33.9689 107.324C33.9689 105.489 32.9163 104.629 31.1449 104.629C30.8111 104.629 30.3105 104.706 30.0025 104.796L30.1565 102.434H33.6094V101.368H29.1296L28.8087 106.066C29.2194 105.874 30.0281 105.63 30.5929 105.63C31.8765 105.63 32.5954 106.105 32.5954 107.312C32.5954 108.441 31.8252 109.109 30.5416 109.109C29.8613 109.109 29.1039 108.839 28.629 108.544L28.3851 109.584C28.937 109.93 29.8484 110.213 30.8625 110.213ZM44.2742 111.612V100.175H43.0163V104.719H41.8739V100.406H40.6288V111.073H41.8739V105.823H43.0163V111.612H44.2742ZM39.4992 101.548H35.0835V102.626H38.1899C38.0358 104.924 36.7265 107.042 34.4545 108.39L35.3017 109.301C38.0487 107.491 39.4735 104.975 39.4992 101.548ZM52.0817 103.807C52.0817 102.203 50.7852 101.073 49.0908 101.073C47.435 101.073 46.1642 102.228 46.1642 103.807C46.1642 105.36 47.4221 106.413 49.0908 106.413C50.7724 106.413 52.0817 105.386 52.0817 103.807ZM50.7596 103.794C50.7596 104.706 49.9894 105.296 49.0908 105.296C48.218 105.296 47.4478 104.706 47.4478 103.794C47.4478 102.845 48.2051 102.203 49.0908 102.203C50.015 102.203 50.7596 102.806 50.7596 103.794ZM55.0469 100.175H53.7376V111.612H55.0469V100.175ZM53.0957 107.632C52.1074 107.735 50.8237 107.825 49.1935 107.889C47.8586 107.966 46.6134 107.966 45.394 107.953L45.5994 109.083C48.2822 109.07 50.7467 108.955 53.1984 108.685L53.0957 107.632ZM68.4855 109.353C68.4855 107.966 67.0478 107.081 64.5961 107.081C62.1572 107.081 60.7324 107.966 60.7324 109.353C60.7324 110.713 62.1572 111.612 64.5961 111.612C67.0478 111.612 68.4855 110.713 68.4855 109.353ZM59.59 101.997H61.9775V102.087C61.9775 103.782 60.7709 105.155 59.1664 105.746L59.9366 106.772C61.0918 106.336 62.3113 105.219 62.645 104.103C63.1456 105.168 64.2367 106.066 65.1994 106.452L65.9182 105.412C64.5961 104.988 63.3253 103.717 63.3253 102.036V101.997H65.6102V100.906H59.59V101.997ZM70.0258 104.09V102.999H68.3315V100.175H67.0093V106.939H68.3315V104.09H70.0258ZM67.1377 109.353C67.1377 110.097 66.2006 110.546 64.5961 110.546C63.0044 110.546 62.0802 110.097 62.0802 109.353C62.0802 108.582 63.0044 108.146 64.5961 108.146C66.2006 108.146 67.1377 108.582 67.1377 109.353ZM80.2978 105.36C78.5778 105.04 76.1646 103.448 76.1646 101.51V100.829H74.7911V101.51C74.7911 103.474 72.5319 105.014 70.6578 105.309L71.2996 106.375C73.0325 105.964 74.9323 104.654 75.4586 103.23C76.049 104.642 77.9103 105.938 79.6175 106.375L80.2978 105.36ZM80.6316 110.174V109.109H76.1004V106.298H74.7911V109.109H70.2984V110.174H80.6316Z" fill="black"/>
<path d="M86.6223 149.639V148.539H79.3856V147.284H86.2697V143.898H77.9185V145.012H84.8308V146.197H77.9326V149.639H86.6223ZM82.7994 156.086V152.009H87.7791V150.853H76.4232V152.009H81.3605V156.086H82.7994ZM96.1899 151.53C95.6821 151.6 95.005 151.671 94.1868 151.741L94.61 146.846L93.1852 146.705L92.8749 151.812H92.6915C92.2683 151.84 91.8169 151.854 91.3655 151.868L91.0692 146.719L89.6727 146.889L90.0818 151.897C89.4893 151.911 88.8686 151.911 88.2479 151.911L88.4736 153.124C89.6303 153.124 90.9846 153.096 92.2683 153.025C93.9047 152.94 95.4141 152.799 96.2887 152.658L96.1899 151.53ZM98.6868 156.114V143.545H97.2479V156.114H98.6868ZM95.6962 145.859V144.702H88.657V145.859H95.6962ZM113.286 143.658H112.214V155.987H113.286V149.71H115.303V148.793H113.286V143.658ZM110.084 144.984H104.286V145.887H108.927C108.702 148.666 106.938 151.262 103.863 152.687L104.526 153.533C107.7 151.882 110.013 148.991 110.084 144.984ZM125.873 155.987V143.658H124.801V155.987H125.873ZM116.139 148.934C116.139 151.558 117.296 153.307 119.313 153.307C121.359 153.307 122.501 151.558 122.501 148.948C122.501 146.339 121.359 144.589 119.313 144.589C117.296 144.589 116.139 146.339 116.139 148.934ZM121.486 148.948C121.486 150.965 120.625 152.376 119.313 152.376C118.015 152.376 117.155 150.965 117.155 148.948C117.155 146.917 118.015 145.52 119.313 145.52C120.625 145.52 121.486 146.917 121.486 148.948ZM137.443 150.683V149.795H130.122V145.774H137.331V144.886H129.05V150.683H137.443ZM138.784 154.295V153.392H127.653V154.295H138.784Z" fill="black"/>
<path d="M82.4584 171.981L82.3922 171.396C81.796 171.473 80.7362 171.561 79.6101 171.616V170.678C80.8466 170.556 81.6525 169.839 81.6525 168.757C81.6525 167.62 80.703 166.803 79.2568 166.803C77.8216 166.803 76.8611 167.62 76.8611 168.757C76.8611 169.839 77.667 170.556 78.9035 170.678V171.66C77.8878 171.716 76.9494 171.749 76.287 171.749L76.4195 172.389C77.115 172.389 78.3074 172.334 79.3893 172.268C80.5816 172.179 81.7518 172.069 82.4584 171.981ZM81.0011 168.757C81.0011 169.541 80.3277 170.082 79.2568 170.082C78.197 170.082 77.5125 169.607 77.5125 168.757C77.5125 167.995 78.197 167.41 79.2568 167.41C80.3277 167.41 81.0011 167.973 81.0011 168.757ZM85.2957 170.236V169.64H83.7942V166.284H83.0877V173.615H83.7942V170.236H85.2957ZM84.0371 175.701V175.094H78.484V173.096H77.7774V175.701H84.0371ZM94.4615 174.696V174.089H90.4429V171.539H93.3685V170.932H87.6167V167.73H93.3243V167.123H86.9101V171.539H89.7363V174.089H85.7509V174.696H94.4615ZM103.701 172.974C102.409 172.29 101.118 170.733 101.118 169.011V167.907H103.436V167.3H98.1149V167.907H100.389V169.033C100.389 170.788 99.1858 172.411 97.8279 173.239L98.2916 173.78C99.4066 172.985 100.422 171.804 100.765 170.523C101.118 171.738 102.332 172.886 103.237 173.504L103.701 172.974ZM104.916 166.284V175.933H105.622V166.284H104.916ZM109.654 166.836C108.341 166.836 107.248 167.719 107.248 169.088C107.248 170.457 108.341 171.329 109.654 171.329C110.957 171.329 112.061 170.446 112.061 169.077C112.061 167.708 110.957 166.836 109.654 166.836ZM109.654 167.443C110.67 167.443 111.343 168.117 111.343 169.088C111.343 170.06 110.67 170.722 109.654 170.722C108.694 170.722 107.965 170.049 107.965 169.077C107.965 168.106 108.683 167.443 109.654 167.443ZM112.348 168.205H114.247V169.883H112.348V170.468H114.247V171.992H114.954V166.284H114.247V167.62H112.348V168.205ZM108.561 172.488V173.096H114.247V175.944H114.954V172.488H108.561ZM122.615 174.818C123.509 174.818 124.248 174.63 124.834 174.409V171.197H122.482V171.793H124.127V173.968C123.73 174.111 123.2 174.189 122.626 174.189C120.605 174.189 119.987 172.963 119.987 171.108V170.844C119.987 169.132 120.727 167.796 122.603 167.796C123.575 167.796 124.116 168.017 124.558 168.216V167.598C124.138 167.388 123.597 167.167 122.648 167.167C120.727 167.167 119.214 168.249 119.214 170.943V171.12C119.214 173.626 120.495 174.818 122.615 174.818ZM127.803 174.785C128.454 174.785 129.084 174.542 129.625 174.189H129.658L129.724 174.696H130.32V169.243H129.636V173.703C129.15 173.99 128.587 174.189 128.002 174.189C127.163 174.189 126.843 173.891 126.843 173.14V169.243H126.147V173.228C126.147 174.277 126.754 174.785 127.803 174.785ZM131.749 174.696H132.445V169.254H131.749V174.696ZM131.738 168.117H132.456V167.355H131.738V168.117ZM135.778 174.785C136.551 174.785 137.069 174.553 137.434 174.222H137.478L137.544 174.696H138.129V166.792H137.434V169.552C137.125 169.353 136.65 169.154 135.943 169.154C134.541 169.154 133.537 170.004 133.537 171.959V172.102C133.537 174.111 134.663 174.785 135.778 174.785ZM135.977 174.222C134.961 174.222 134.254 173.67 134.254 172.08V171.881C134.254 170.325 134.95 169.751 136.054 169.751C136.628 169.751 137.158 169.916 137.434 170.137V173.703C137.136 173.968 136.661 174.222 135.977 174.222ZM141.742 174.785C142.603 174.785 143.21 174.542 143.541 174.321V173.791C143.089 174.023 142.581 174.189 141.852 174.189C140.571 174.189 139.909 173.581 139.887 172.091H143.707V171.694C143.707 170.038 143.022 169.154 141.543 169.154C140.273 169.154 139.169 170.004 139.169 171.903V172.036C139.169 173.769 140.03 174.785 141.742 174.785ZM141.521 169.717C142.503 169.717 142.978 170.292 142.978 171.539H139.898C139.986 170.192 140.737 169.717 141.521 169.717Z" fill="black"/>
<path d="M104.743 215.031C103.591 213.882 102.065 213.181 100.439 213.054C98.8129 212.927 97.1951 213.383 95.8775 214.339C94.4951 213.316 92.7746 212.853 91.0623 213.041C89.35 213.23 87.7731 214.057 86.6492 215.355C85.5253 216.654 84.9379 218.328 85.0052 220.04C85.0725 221.753 85.7896 223.376 87.0121 224.583L93.7589 231.305C94.3239 231.858 95.0848 232.168 95.8775 232.168C96.6702 232.168 97.4311 231.858 97.996 231.305L104.743 224.583C106.011 223.314 106.723 221.597 106.723 219.807C106.723 218.017 106.011 216.3 104.743 215.031ZM103.211 223.092L96.4642 229.803C96.3874 229.88 96.296 229.941 96.1953 229.983C96.0946 230.024 95.9866 230.046 95.8775 230.046C95.7684 230.046 95.6603 230.024 95.5597 229.983C95.459 229.941 95.3676 229.88 95.2908 229.803L88.544 223.06C87.6919 222.193 87.2148 221.03 87.2148 219.818C87.2148 218.606 87.6919 217.442 88.544 216.576C89.4122 215.723 90.5832 215.245 91.8033 215.245C93.0234 215.245 94.1944 215.723 95.0626 216.576C95.1636 216.677 95.2838 216.758 95.4162 216.812C95.5486 216.867 95.6906 216.895 95.834 216.895C95.9774 216.895 96.1195 216.867 96.2518 216.812C96.3842 216.758 96.5044 216.677 96.6054 216.576C97.4736 215.723 98.6446 215.245 99.8647 215.245C101.085 215.245 102.256 215.723 103.124 216.576C103.988 217.431 104.481 218.588 104.497 219.8C104.513 221.012 104.052 222.182 103.211 223.06V223.092Z" fill="#929292"/>
<path d="M114.243 227.474H115.683V217.948H114.922L112.582 219V219.845L114.243 219.485V227.474ZM119.172 227.474H120.612V217.948H119.85L117.51 219V219.845L119.172 219.485V227.474ZM126.649 227.488H128.019V225.563H129.487V224.455H128.019V217.962H126.967L122.384 224.649V225.563H126.649V227.488ZM123.866 224.455L126.662 220.357V224.455H123.866Z" fill="#929292"/>
<path d="M54.2431 227.474H55.6831V217.948H54.9215L52.5815 219V219.845L54.2431 219.485V227.474ZM59.172 227.474H60.612V217.948H59.8504L57.5104 219V219.845L59.172 219.485V227.474ZM66.6486 227.488H68.0194V225.563H69.487V224.455H68.0194V217.962H66.967L62.384 224.649V225.563H66.6486V227.488ZM63.8655 224.455L66.6624 220.357V224.455H63.8655Z" fill="#929292"/>
<path d="M325 214.267V225.033M328.857 216.8L325 213L321.143 216.8M316 223.133V229.467C316 230.139 316.271 230.783 316.753 231.258C317.235 231.733 317.889 232 318.571 232H331.429C332.111 232 332.765 231.733 333.247 231.258C333.729 230.783 334 230.139 334 229.467V223.133" stroke="#929292" stroke-width="2" stroke-linecap="round" stroke-linejoin="round"/>
<path d="M28 222C28 222.667 28.5484 223.204 29.2043 223.204H35.7957V229.796C35.7957 230.452 36.3441 231 37 231C37.6559 231 38.2043 230.452 38.2043 229.796V223.204H44.7957C45.4516 223.204 46 222.667 46 222C46 221.344 45.4516 220.796 44.7957 220.796H38.2043V214.204C38.2043 213.548 37.6559 213 37 213C36.3441 213 35.7957 213.548 35.7957 214.204V220.796H29.2043C28.5484 220.796 28 221.344 28 222Z" fill="#929292"/>
<path d="M28 222C28 222.667 28.5484 223.204 29.2043 223.204H35.7957V229.796C35.7957 230.452 36.3441 231 37 231C37.6559 231 38.2043 230.452 38.2043 229.796V223.204H44.7957C45.4516 223.204 46 222.667 46 222C46 221.344 45.4516 220.796 44.7957 220.796H38.2043V214.204C38.2043 213.548 37.6559 213 37 213C36.3441 213 35.7957 213.548 35.7957 214.204V220.796H29.2043C28.5484 220.796 28 221.344 28 222Z" stroke="#929292"/>
<circle cx="47" cy="158" r="19" fill="#D9D9D9"/>
<path d="M271.78 167.4H274.1V164.6H276.12V162.78H274.1V153.46H272.42L265.48 163.16V164.6H271.78V167.4ZM268.16 162.78L271.8 157.62V162.78H268.16ZM276.489 169.88H278.369L279.809 165.84H277.289L276.489 169.88ZM286.186 167.42C289.046 167.42 291.486 165.6 291.486 160.78V159.92C291.486 155.1 289.046 153.32 286.206 153.32C283.386 153.32 280.866 155.08 280.866 159.98V160.84C280.866 165.5 283.186 167.42 286.186 167.42ZM286.186 165.54C284.326 165.54 283.426 164.02 283.426 160.84V159.78C283.426 156.58 284.346 155.22 286.206 155.22C288.006 155.22 288.946 156.66 288.946 159.92V160.94C288.946 164.22 288.026 165.54 286.186 165.54ZM298.716 167.42C301.576 167.42 304.016 165.6 304.016 160.78V159.92C304.016 155.1 301.576 153.32 298.736 153.32C295.916 153.32 293.396 155.08 293.396 159.98V160.84C293.396 165.5 295.716 167.42 298.716 167.42ZM298.716 165.54C296.856 165.54 295.956 164.02 295.956 160.84V159.78C295.956 156.58 296.876 155.22 298.736 155.22C300.536 155.22 301.476 156.66 301.476 159.92V160.94C301.476 164.22 300.556 165.54 298.716 165.54ZM311.245 167.42C314.105 167.42 316.545 165.6 316.545 160.78V159.92C316.545 155.1 314.105 153.32 311.265 153.32C308.445 153.32 305.925 155.08 305.925 159.98V160.84C305.925 165.5 308.245 167.42 311.245 167.42ZM311.245 165.54C309.385 165.54 308.485 164.02 308.485 160.84V159.78C308.485 156.58 309.405 155.22 311.265 155.22C313.065 155.22 314.005 156.66 314.005 159.92V160.94C314.005 164.22 313.085 165.54 311.245 165.54ZM328.115 155.64C328.115 153.72 326.255 152.32 323.655 152.32C321.055 152.32 319.135 153.72 319.135 155.6C319.135 157.56 321.055 158.92 323.655 158.92C326.255 158.92 328.115 157.56 328.115 155.64ZM327.275 163.74H330.675V165.54H333.015V151.76H330.675V162.06H327.275V163.74ZM333.295 169.1V167.24H322.555V163.84H320.215V169.1H333.295ZM325.475 164.68V161.34C326.855 161.24 328.175 161.12 329.395 160.92L329.255 159.2C326.755 159.52 322.275 159.74 317.895 159.74C318.015 160.34 318.115 160.98 318.215 161.58C319.555 161.58 321.295 161.56 323.155 161.5V164.68H325.475ZM325.795 155.64C325.795 156.42 324.975 157.16 323.655 157.16C322.295 157.16 321.495 156.42 321.495 155.64C321.495 154.86 322.295 154.06 323.655 154.06C324.975 154.06 325.795 154.86 325.795 155.64Z" fill="black"/>
<defs>
<filter id="filter0_d_783_1036" x="0.787611" y="0.858407" width="365.425" height="262.425" filterUnits="userSpaceOnUse" color-interpolation-filters="sRGB">
<feFlood flood-opacity="0" result="BackgroundImageFix"/>
<feColorMatrix in="SourceAlpha" type="matrix" values="0 0 0 0 0 0 0 0 0 0 0 0 0 0 0 0 0 0 127 0" result="hardAlpha"/>
<feOffset dy="3.0708"/>
<feGaussianBlur stdDeviation="4.60619"/>
<feComposite in2="hardAlpha" operator="out"/>
<feColorMatrix type="matrix" values="0 0 0 0 0 0 0 0 0 0 0 0 0 0 0 0 0 0 0.1 0"/>
<feBlend mode="normal" in2="BackgroundImageFix" result="effect1_dropShadow_783_1036"/>
<feBlend mode="normal" in="SourceGraphic" in2="effect1_dropShadow_783_1036" result="shape"/>
</filter>
</defs>
</svg>
