<svg width="218" height="35" viewBox="0 0 218 35" fill="none" xmlns="http://www.w3.org/2000/svg">
<path d="M127.619 22.244H129.131L131.831 12.83H131.885L134.477 22.244H136.007L139.013 10.148H137.573L135.305 19.742H135.251L132.551 10.148H131.255L128.519 19.742H128.465L126.179 10.148H124.577L127.619 22.244ZM141.819 22.406C143.007 22.406 143.709 21.992 144.159 21.488H144.249L144.411 22.244H145.635V15.764C145.635 13.964 144.501 13.118 142.521 13.118C141.441 13.118 140.595 13.298 139.785 13.604V14.702C140.325 14.594 141.045 14.45 141.927 14.45C143.529 14.45 144.123 14.774 144.123 16.142V16.97L141.747 17.258C140.055 17.474 139.047 18.32 139.047 19.868C139.047 21.596 140.217 22.406 141.819 22.406ZM142.197 21.218C141.261 21.218 140.631 20.768 140.631 19.832C140.631 18.86 141.117 18.446 142.143 18.338L144.123 18.14V20.606C143.727 20.966 142.989 21.218 142.197 21.218ZM147.479 22.244H149.009V15.044C149.657 14.738 150.575 14.45 151.367 14.45C152.771 14.45 153.113 14.882 153.113 15.908V22.244H154.625V15.584C154.625 13.856 153.797 13.118 152.033 13.118C150.935 13.118 149.783 13.532 149.027 14.072H148.937V13.298H147.479V22.244ZM159.645 22.406C160.833 22.406 161.697 22.046 162.219 21.524H162.309L162.453 22.244H163.749V9.356H162.219V13.676C161.751 13.406 161.031 13.118 159.933 13.118C157.647 13.118 155.955 14.54 155.955 17.798V18.05C155.955 21.344 157.935 22.406 159.645 22.406ZM160.149 21.146C158.601 21.146 157.557 20.408 157.557 17.996V17.6C157.557 15.26 158.493 14.432 160.131 14.432C161.031 14.432 161.841 14.648 162.219 14.954V20.444C161.841 20.75 161.139 21.146 160.149 21.146ZM169.161 22.406C171.609 22.406 173.265 20.696 173.265 17.888V17.6C173.265 14.792 171.735 13.118 169.179 13.118C166.731 13.118 165.093 14.846 165.093 17.654V17.96C165.093 20.75 166.587 22.406 169.161 22.406ZM169.197 21.146C167.811 21.146 166.677 20.408 166.677 17.996V17.492C166.677 15.494 167.577 14.378 169.143 14.378C170.529 14.378 171.663 15.152 171.663 17.564V18.05C171.663 20.048 170.763 21.146 169.197 21.146ZM177.644 24.08H179.03L183.206 9.104H181.82L177.644 24.08ZM197.694 18.05L197.55 16.826C196.65 16.952 194.904 17.096 193.32 17.186V15.674C195.246 15.422 196.578 14.162 196.578 12.506C196.578 10.652 194.904 9.248 192.528 9.248C190.152 9.248 188.478 10.652 188.478 12.506C188.478 14.162 189.774 15.422 191.736 15.674V17.258C190.26 17.312 188.73 17.33 187.578 17.33L187.812 18.662C188.892 18.662 190.926 18.608 192.708 18.5C194.508 18.392 196.542 18.212 197.694 18.05ZM202.464 15.17V13.82H200.124V8.528H198.558V20.354H200.124V15.17H202.464ZM200.52 23.954V22.676H191.592V19.598H189.99V23.954H200.52ZM194.922 12.506C194.922 13.532 194.022 14.414 192.528 14.414C191.016 14.414 190.116 13.568 190.116 12.506C190.116 11.516 191.016 10.562 192.528 10.562C194.022 10.562 194.922 11.48 194.922 12.506ZM217.131 22.262V20.966H210.795V17.276H215.547V15.98H206.205V11.102H215.457V9.806H204.621V17.276H209.193V20.966H202.929V22.262H217.131Z" fill="black"/>
<path d="M0 17.7959C0 18.1035 0.114258 18.3672 0.360352 18.5957L7.19824 25.293C7.3916 25.4863 7.6377 25.5918 7.92773 25.5918C8.50781 25.5918 8.97363 25.1348 8.97363 24.5459C8.97363 24.2559 8.85059 24.001 8.65723 23.7988L2.49609 17.7959L8.65723 11.793C8.85059 11.5908 8.97363 11.3271 8.97363 11.0459C8.97363 10.457 8.50781 10 7.92773 10C7.6377 10 7.3916 10.1055 7.19824 10.2988L0.360352 16.9873C0.114258 17.2246 0 17.4883 0 17.7959Z" fill="#1C1C1E"/>
</svg>
