<svg width="175" height="108" viewBox="0 0 175 108" fill="none" xmlns="http://www.w3.org/2000/svg">
<path d="M55.6928 23.5083C49.8924 21.3213 48.2759 19.1343 48.2759 16.5193C48.2759 14.3798 50.2252 11.0992 55.1223 11.0992C59.7341 11.0992 63.1097 13.9044 65.1541 19.4195H65.9624L62.9196 10.7189H58.8307C57.5946 10.3861 56.2633 10.2434 54.837 10.2434C49.0366 10.2434 44.4723 13.524 44.4723 18.4211C44.4723 23.2231 47.325 26.0757 53.6959 28.8333C59.4013 31.3532 63.4425 32.4467 63.4425 37.1061C63.4425 41.7654 60.1144 43.6196 54.9321 43.6196C50.3203 43.6196 46.1364 40.3866 43.8067 33.7779H42.9509L46.5643 44H50.9384C52.1745 44.2853 53.8386 44.4754 55.2649 44.4754C62.7769 44.4754 67.9593 40.5768 67.9593 34.9666C67.9593 30.4974 65.5345 27.2644 55.6928 23.5083ZM83.9535 37.3438C83.7633 39.198 82.6698 43.6196 79.5319 43.6196C76.1562 43.6196 76.6792 38.7226 76.6792 34.9666V22.8427H83.5732V22.0345H76.6792V16.1865H71.8297V22.0345H68.454V22.8427H71.8297V36.1552C71.8297 42.3835 75.1102 44.4754 78.7236 44.4754C83.4781 44.4754 84.3339 39.1505 84.6191 37.3438H83.9535ZM106.495 43.1442V30.5925C106.638 23.651 103.024 21.559 96.4157 21.559C95.3698 21.559 94.0861 21.8443 93.468 22.0345H90.4727L88.4283 27.7398H89.2841C90.6153 24.0789 93.0401 22.4148 96.1305 22.4148C101.313 22.4148 101.646 26.7414 101.646 31.7811V32.0188C100.647 30.2597 98.6979 28.453 95.0369 28.453C90.5678 28.453 85.5756 30.7351 85.5756 36.488C85.5756 42.1933 90.5678 44.4754 95.0369 44.4754C98.6979 44.4754 100.647 42.6688 101.646 40.9096V44H109.871V43.1442H106.495ZM101.646 37.9619C101.646 39.7685 100.077 43.6196 95.5599 43.6196C91.7088 43.6196 90.1399 40.0063 90.1399 36.488C90.1399 32.9221 91.7088 29.3088 95.5599 29.3088C100.077 29.3088 101.646 33.1599 101.646 34.9666V37.9619ZM124.857 22.0345V22.8427H127.9L122.052 38.2947L116.157 22.8427H119.2V22.0345H108.169V22.8427H110.927L119.39 44.4754H119.723C119.675 44.6181 119.532 44.9509 119.532 44.9509C117.631 49.848 115.776 54.0319 112.401 54.0319C109.928 54.0319 108.217 51.0366 110.832 47.3281L109.976 46.3297L106.553 50.9415C107.409 52.9384 109.073 54.9352 111.783 54.9352C116.727 54.9352 118.629 49.7053 120.626 44.4754L128.851 22.8427H131.609V22.0345H124.857Z" fill="black"/>
<path d="M9.97445 83.91V72.548H8.98645V83.91H9.97445ZM2.29145 80.179V74.511H6.72445V73.679H1.30345V81.05H2.66845C4.64445 81.011 6.54245 80.868 7.76445 80.634L7.64745 79.815C6.15245 80.101 3.95545 80.231 2.29145 80.179ZM18.6875 80.465C17.1275 79.62 15.6845 77.787 15.6845 75.668V74.511H18.3365V73.692H12.0055V74.511H14.6575V75.681C14.6575 77.826 13.2925 79.763 11.6285 80.738L12.2395 81.466C13.5525 80.621 14.8005 79.165 15.1775 77.748C15.5675 79.087 17.0105 80.517 18.0765 81.206L18.6875 80.465ZM20.0005 72.548V83.91H20.9885V72.548H20.0005ZM32.3665 83.767V82.948H25.5935V81.856H31.9505V79.217H24.5665V80.049H30.9625V81.102H24.6055V83.767H32.3665ZM31.9375 78.632V72.548H30.9495V75.239H28.9215V76.045H30.9495V78.632H31.9375ZM24.0985 77.501V76.071H28.0375V75.278H24.0985V73.978H28.3235V73.159H23.1105V78.32H24.1375C26.1395 78.307 27.6865 78.242 28.9865 77.995L28.8435 77.202C27.7125 77.436 26.1915 77.501 24.8525 77.501H24.0985ZM45.9116 78.814V77.995H39.0086V73.523H38.0206V78.814H41.4136V81.57H36.7986V82.402H47.0556V81.57H42.4016V78.814H45.9116ZM53.4547 81.05V73.718H48.1377V81.05H53.4547ZM52.4667 80.231H49.1257V74.537H52.4667V80.231ZM58.3817 77.956V77.124H56.5227V72.548H55.5347V83.91H56.5227V77.956H58.3817ZM67.7967 79.022V78.203H61.0497V74.498H67.6927V73.679H60.0617V79.022H67.7967ZM69.0317 82.35V81.518H58.7747V82.35H69.0317ZM73.7238 78.671H74.9978V77.345H73.7238V78.671ZM86.4044 75.46C86.4044 74.004 85.1824 73.016 83.4274 73.016C81.6594 73.016 80.4374 74.004 80.4374 75.46C80.4374 76.877 81.6594 77.865 83.4274 77.865C85.1694 77.865 86.4044 76.877 86.4044 75.46ZM89.0694 83.91V72.548H88.0944V80.374H85.4944V81.193H88.0944V83.91H89.0694ZM85.4424 75.46C85.4424 76.461 84.5584 77.033 83.4274 77.033C82.2834 77.033 81.3864 76.461 81.3864 75.46C81.3864 74.42 82.2834 73.848 83.4274 73.848C84.5584 73.848 85.4424 74.42 85.4424 75.46ZM83.8564 83.572V79.503C85.1174 79.438 86.4954 79.334 87.3534 79.217L87.2754 78.437C86.1704 78.567 84.8704 78.645 83.4534 78.697C82.2054 78.749 80.9704 78.762 79.6184 78.762L79.7614 79.62C80.7884 79.607 81.8024 79.607 82.8684 79.555V83.572H83.8564ZM95.5984 73.848H91.1784V74.68H94.5844C94.5584 75.317 94.4674 75.928 94.2984 76.526L90.7104 76.786L90.9314 77.683L94.0124 77.332C93.4144 78.723 92.3354 79.945 90.6324 80.868L91.2824 81.596C94.2074 79.802 95.5984 77.332 95.5984 73.848ZM98.1074 83.338V72.821H97.1584V76.968H95.4034V77.787H97.1584V83.338H98.1074ZM100.317 83.91V72.548H99.3424V83.91H100.317ZM111.071 83.91V72.548H110.083V83.91H111.071ZM102.101 77.41C102.101 79.828 103.167 81.44 105.026 81.44C106.911 81.44 107.964 79.828 107.964 77.423C107.964 75.018 106.911 73.406 105.026 73.406C103.167 73.406 102.101 75.018 102.101 77.41ZM107.028 77.423C107.028 79.282 106.235 80.582 105.026 80.582C103.83 80.582 103.037 79.282 103.037 77.423C103.037 75.551 103.83 74.264 105.026 74.264C106.235 74.264 107.028 75.551 107.028 77.423ZM118.914 77.475H121.007V80.764H121.995V72.548H121.007V74.264H118.914V75.096H121.007V76.643H118.914V77.475ZM119.343 78.398C117.991 77.904 116.47 76.565 116.47 74.667V73.211H115.469V74.706C115.469 76.526 114.104 78.099 112.583 78.775L113.194 79.542C114.429 78.905 115.638 77.618 115.989 76.422C116.47 77.579 117.588 78.619 118.758 79.178L119.343 78.398ZM122.242 83.559V82.74H115.677V80.088H114.689V83.559H122.242ZM127.662 78.671H128.936V77.345H127.662V78.671ZM134.31 82.454H135.272V75.135H135.311L139.64 82.454H140.706V73.731H139.77V80.712H139.731L135.532 73.731H134.31V82.454ZM152.536 75.902V75.07H150.807V72.548H149.819V78.346H150.807V75.902H152.536ZM151.236 83.793V82.974H144.58V81.661H150.807V78.944H143.553V79.75H149.819V80.907H143.592V83.793H151.236ZM143.397 77.124V74.121H147.674V73.289H142.409V77.943H143.332C145.295 77.943 147.505 77.787 148.766 77.579L148.662 76.773C147.57 76.994 145.542 77.124 143.956 77.124H143.397ZM163.537 76.162V75.33H161.808V72.548H160.82V78.385H161.808V76.162H163.537ZM162.224 83.832V83.026H155.646V81.713H161.808V78.996H154.58V79.802H160.82V80.972H154.658V83.832H162.224ZM159.52 77.332C158.324 76.942 156.634 75.772 156.634 73.952V72.925H155.633V73.991C155.633 75.811 154.281 77.098 152.799 77.683L153.358 78.476C154.723 77.826 155.802 76.812 156.166 75.59C156.712 76.812 157.973 77.683 158.974 78.112L159.52 77.332ZM173.342 83.91V72.548H172.354V83.91H173.342ZM170.001 73.757H164.593V74.589H168.948C168.74 77.15 167.05 79.62 164.177 80.881L164.749 81.661C167.687 80.27 169.949 77.449 170.001 73.757ZM15.4571 98.685C14.2221 98.984 11.9991 99.153 10.0491 99.166V92.679H9.06109V100.037H9.75009C11.4791 100.037 14.2091 99.842 15.6001 99.517L15.4571 98.685ZM17.4071 91.548H16.4191V102.91H17.4071V96.904H19.2661V96.059H17.4071V91.548ZM28.0181 91.548V102.91H29.0061V91.548H28.0181ZM26.2241 95.136C26.2241 93.472 24.9501 92.432 23.2731 92.432C21.6221 92.432 20.3091 93.537 20.3091 95.136C20.3091 96.657 21.5961 97.775 23.2731 97.775C24.9111 97.775 26.2241 96.748 26.2241 95.136ZM25.2621 95.136C25.2621 96.202 24.3521 96.943 23.2731 96.943C22.1681 96.943 21.2711 96.189 21.2711 95.136C21.2711 94.07 22.1811 93.277 23.2731 93.277C24.3781 93.277 25.2621 93.992 25.2621 95.136ZM27.3551 100.024L27.2641 99.218C26.4321 99.322 24.9631 99.413 23.3771 99.465C21.9991 99.543 20.6601 99.569 19.6851 99.556L19.8671 100.427C20.7251 100.414 21.9731 100.375 23.3121 100.31C24.7551 100.245 26.3801 100.141 27.3551 100.024ZM42.1482 94.902V97.736H39.8472V98.555H42.1482V102.91H43.1362V91.548H42.1482V94.083H39.8472V94.902H42.1482ZM33.8802 96.358C33.8802 98.776 34.8942 100.375 36.6882 100.375C38.5082 100.375 39.5092 98.776 39.5092 96.371C39.5092 93.953 38.5082 92.341 36.6882 92.341C34.8942 92.341 33.8802 93.953 33.8802 96.358ZM38.5342 96.371C38.5342 98.217 37.8062 99.517 36.6882 99.517C35.5962 99.517 34.8552 98.217 34.8552 96.371C34.8552 94.499 35.5962 93.199 36.6882 93.199C37.8062 93.199 38.5342 94.499 38.5342 96.371ZM54.1763 100.752C54.1763 99.413 52.7983 98.581 50.3543 98.581C47.9233 98.581 46.5583 99.413 46.5583 100.752C46.5583 102.078 47.9233 102.91 50.3543 102.91C52.7983 102.91 54.1763 102.078 54.1763 100.752ZM45.1023 93.329H47.6893C47.6893 93.537 47.6893 93.81 47.6763 93.94C47.6243 95.552 46.1813 96.995 44.7513 97.541L45.2843 98.334C46.5063 97.801 47.8713 96.436 48.1833 95.37C48.6513 96.397 49.8733 97.463 51.0563 97.931L51.6413 97.138C50.2503 96.722 48.7943 95.487 48.7033 93.94C48.6903 93.81 48.6903 93.55 48.6903 93.329H51.2513V92.497H45.1023V93.329ZM50.3543 99.413C52.1353 99.413 53.1623 99.894 53.1623 100.752C53.1623 101.597 52.1353 102.078 50.3543 102.078C48.6123 102.078 47.5593 101.597 47.5593 100.752C47.5593 99.894 48.6123 99.413 50.3543 99.413ZM53.0973 95.331V98.607H54.0853V91.548H53.0973V94.499H50.8093V95.331H53.0973ZM68.1114 94.538C68.1114 93.056 66.5904 92.068 64.0684 92.068C61.5594 92.068 60.0384 93.056 60.0384 94.538C60.0384 96.007 61.5594 96.995 64.0684 96.995C66.5904 96.995 68.1114 95.994 68.1114 94.538ZM62.5864 102.91V98.88H65.5244V102.91H66.5124V98.88H69.2034V98.048H58.9464V98.88H61.5984V102.91H62.5864ZM64.0684 92.939C65.9794 92.939 67.1364 93.563 67.1364 94.538C67.1364 95.5 65.9794 96.124 64.0684 96.124C62.1834 96.124 61.0134 95.5 61.0134 94.538C61.0134 93.563 62.1834 92.939 64.0684 92.939ZM79.2684 100.934C79.2684 99.725 77.9554 98.971 75.4854 98.971C73.0154 98.971 71.7414 99.712 71.7414 100.934C71.7414 102.143 73.0154 102.884 75.4854 102.884C77.9554 102.884 79.2684 102.143 79.2684 100.934ZM75.4854 99.777C77.2144 99.777 78.2414 100.206 78.2414 100.934C78.2414 101.675 77.2144 102.078 75.4854 102.078C73.7694 102.078 72.7684 101.662 72.7684 100.934C72.7684 100.219 73.7694 99.777 75.4854 99.777ZM79.2164 98.971V91.548H78.2284V94.512H76.2264V95.318H78.2284V96.618H76.2264V97.437H78.2284V98.971H79.2164ZM74.8094 92.614V91.769H71.5594V92.614H74.8094ZM76.3174 94.226V93.433H69.9734V94.226H76.3174ZM75.8494 96.696C75.8494 95.526 74.7314 94.811 73.2234 94.811C71.7414 94.811 70.6234 95.526 70.6234 96.696C70.6234 97.853 71.7544 98.581 73.2234 98.581C74.7314 98.581 75.8494 97.84 75.8494 96.696ZM74.8614 96.696C74.8614 97.398 74.1204 97.788 73.2234 97.788C72.3654 97.788 71.5984 97.398 71.5984 96.696C71.5984 95.994 72.3524 95.604 73.2234 95.604C74.1204 95.604 74.8614 95.994 74.8614 96.696ZM83.6005 92.536C81.9495 92.536 81.1045 94.148 81.1045 96.423C81.1045 98.711 81.9495 100.31 83.6005 100.31C85.1605 100.31 85.9925 98.919 86.0965 96.865H87.3185V102.364H88.2805V91.769H87.3185V96.046H86.0965C86.0185 93.979 85.1735 92.536 83.6005 92.536ZM85.1215 96.423C85.1215 98.269 84.5235 99.439 83.6005 99.439C82.6905 99.439 82.1055 98.269 82.1055 96.423C82.1055 94.59 82.6905 93.407 83.6005 93.407C84.5235 93.407 85.1215 94.59 85.1215 96.423ZM90.5035 102.91V91.548H89.5285V102.91H90.5035ZM104.01 102.91V98.854H96.5735V99.686H103.009V102.91H104.01ZM105.544 95.448V94.616H103.997V91.548H103.022V98.256H103.997V95.448H105.544ZM98.6015 97.034L98.4715 96.241C97.6915 96.436 97.0415 96.514 96.3785 96.514V93.225H98.2505V92.406H95.4035V97.359C96.8075 97.359 97.7305 97.229 98.6015 97.034ZM102.489 97.047L102.359 96.254C101.696 96.41 100.786 96.514 99.9405 96.514V93.225H101.904V92.406H98.9525V97.359C100.37 97.359 101.592 97.255 102.489 97.047ZM119.674 95.357V94.525H117.945V91.548H116.957V98.217H117.945V95.357H119.674ZM118.764 102.182C116.957 102.013 115.202 100.687 114.994 99.595H118.127V98.789H110.73V99.595H113.902C113.707 100.739 112.069 101.935 110.119 102.143L110.561 102.897C112.342 102.65 114.019 101.532 114.448 100.57C114.864 101.519 116.671 102.702 118.283 102.949L118.764 102.182ZM115.033 97.333V92.393H109.612V97.333H115.033ZM114.045 96.514H110.6V93.212H114.045V96.514ZM130.454 98.243V97.411H120.197V98.243H130.454ZM129.362 102.663V101.844H122.524V99.309H121.536V102.663H129.362ZM129.31 95.994V95.175H122.563V92.029H121.575V95.994H129.31ZM144.22 97.398C142.478 97.008 139.982 95.253 139.982 93.394V92.497H138.955V93.394C138.955 95.253 136.589 97.008 134.743 97.372L135.263 98.217C137.239 97.658 139.046 96.046 139.449 94.889C139.917 96.046 141.763 97.658 143.674 98.23L144.22 97.398ZM144.597 101.35V100.518H134.34V101.35H144.597ZM149.423 96.748V95.955H146.758V93.732H150.021V92.913H145.757V100.141C148.188 100.154 149.475 100.05 150.671 99.803L150.541 98.997C149.579 99.231 148.162 99.322 146.758 99.309V96.748H149.423ZM151.685 96.527V102.338H152.647V91.821H151.685V95.708H150.151V96.527H151.685ZM154.909 102.91V91.548H153.934V102.91H154.909ZM165.663 102.91V91.548H164.675V102.91H165.663ZM156.693 96.41C156.693 98.828 157.759 100.44 159.618 100.44C161.503 100.44 162.556 98.828 162.556 96.423C162.556 94.018 161.503 92.406 159.618 92.406C157.759 92.406 156.693 94.018 156.693 96.41ZM161.62 96.423C161.62 98.282 160.827 99.582 159.618 99.582C158.422 99.582 157.629 98.282 157.629 96.423C157.629 94.551 158.422 93.264 159.618 93.264C160.827 93.264 161.62 94.551 161.62 96.423Z" fill="black"/>
</svg>
