<svg width="212" height="86" viewBox="0 0 212 86" fill="none" xmlns="http://www.w3.org/2000/svg">
<path d="M48.8597 0.809844V1.84331H53.6826L44.2666 32.7323L33.0708 1.84331H37.8936V0.809844H22.2768V1.84331H26.3533L29.3962 10.2258L22.5065 32.7323L11.3681 1.84331H16.1909V0.809844H0.574145V1.84331H4.65057L19.0042 41.5741H20.9563L29.9704 11.8908L40.7069 41.5741H42.659L54.7734 1.84331H58.8499V0.809844H48.8597ZM84.1414 40.024L70.8787 0.235699H68.9266L56.0657 40.024H51.9893V41H61.9794V40.024H57.1566L61.2904 27.2779H73.2901L77.5387 40.024H72.7159V41H88.2178V40.024H84.1414ZM61.5775 26.3019L67.1467 9.07753L72.9456 26.3019H61.5775ZM115.855 0.809844V1.84331H120.678V31.4118L100.985 0.809844H90.5355V1.84331H95.3583V39.9665H90.5355V41H101.157V39.9665H96.3918L96.3344 4.77144L120.334 41.5741H121.712V1.84331H126.534V0.809844H115.855ZM145.065 0.809844H129.391V1.84331H134.214V40.024H129.391V41H145.065C162.806 41 168.089 30.3209 168.089 20.9049C168.089 11.4315 162.806 0.809844 145.065 0.809844ZM145.065 40.024H140.472V1.84331H145.065C159.993 1.84331 161.486 14.9912 161.486 20.9049C161.486 26.876 159.993 40.024 145.065 40.024ZM191.064 0.235699C179.122 0.235699 171.485 9.93875 171.485 20.9049C171.485 31.8711 179.122 41.5741 191.064 41.5741C203.006 41.5741 210.642 31.8711 210.642 20.9049C210.642 9.93875 203.006 0.235699 191.064 0.235699ZM191.064 40.5407C180.5 40.5407 178.088 27.565 178.088 20.9049C178.088 14.2448 180.5 1.26916 191.064 1.26916C201.571 1.26916 204.039 14.2448 204.039 20.9049C204.039 27.565 201.571 40.5407 191.064 40.5407Z" fill="white"/>
<path d="M2.43997 76.539C2.5657 76.539 2.6875 76.5626 2.80537 76.6097C2.92325 76.6569 3.02148 76.7197 3.10006 76.7983C3.1865 76.8769 3.25329 76.9712 3.30044 77.0812C3.35545 77.1834 3.38295 77.2894 3.38295 77.3995C3.38295 77.5173 3.35545 77.6313 3.30044 77.7413C3.25329 77.8435 3.1865 77.9378 3.10006 78.0242C3.02148 78.1028 2.92325 78.1656 2.80537 78.2128C2.6875 78.2599 2.5657 78.2835 2.43997 78.2835C2.31424 78.2835 2.19244 78.2599 2.07456 78.2128C1.96455 78.1656 1.86632 78.1028 1.77988 78.0242C1.7013 77.9378 1.6345 77.8435 1.5795 77.7413C1.53235 77.6313 1.50877 77.5173 1.50877 77.3995C1.50877 77.2894 1.53235 77.1834 1.5795 77.0812C1.6345 76.9712 1.7013 76.8769 1.77988 76.7983C1.86632 76.7197 1.96455 76.6569 2.07456 76.6097C2.19244 76.5626 2.31424 76.539 2.43997 76.539ZM2.43997 71.4115C2.5657 71.4115 2.6875 71.4351 2.80537 71.4822C2.92325 71.5294 3.02148 71.5962 3.10006 71.6826C3.1865 71.7612 3.25329 71.8555 3.30044 71.9655C3.35545 72.0677 3.38295 72.1777 3.38295 72.2956C3.38295 72.4056 3.35545 72.5156 3.30044 72.6256C3.25329 72.7278 3.1865 72.8221 3.10006 72.9085C3.02148 72.9871 2.92325 73.05 2.80537 73.0971C2.6875 73.1443 2.5657 73.1678 2.43997 73.1678C2.31424 73.1678 2.19244 73.1443 2.07456 73.0971C1.96455 73.05 1.86632 72.9871 1.77988 72.9085C1.7013 72.8221 1.6345 72.7278 1.5795 72.6256C1.53235 72.5156 1.50877 72.4056 1.50877 72.2956C1.50877 72.1777 1.53235 72.0677 1.5795 71.9655C1.6345 71.8555 1.7013 71.7612 1.77988 71.6826C1.86632 71.5962 1.96455 71.5294 2.07456 71.4822C2.19244 71.4351 2.31424 71.4115 2.43997 71.4115ZM13.7445 75.266C13.5401 75.266 13.324 75.266 13.0961 75.266C12.8761 75.266 12.6482 75.2699 12.4125 75.2778C12.1767 75.2856 11.941 75.2935 11.7052 75.3013C11.4774 75.3092 11.2573 75.321 11.0452 75.3367C11.0216 75.3838 11.0019 75.4388 10.9862 75.5017C10.9784 75.5567 10.9666 75.6117 10.9509 75.6667L9.97252 75.8082C9.9568 75.6667 9.93716 75.4663 9.91358 75.207C9.89787 74.9477 9.89001 74.712 9.89001 74.4998V71.8712C9.89001 71.7534 9.87822 71.6551 9.85464 71.5765C9.83107 71.4901 9.78392 71.4155 9.7132 71.3526C9.64247 71.2897 9.54032 71.2347 9.40673 71.1876C9.27314 71.1404 9.10026 71.0972 8.88809 71.0579L9.13562 70.5746C9.26921 70.5903 9.42637 70.61 9.60711 70.6336C9.79571 70.6493 9.98823 70.6689 10.1847 70.6925C10.389 70.7161 10.5894 70.7436 10.7858 70.775C10.9823 70.8064 11.1591 70.8379 11.3163 70.8693C11.3006 70.94 11.2848 71.0304 11.2691 71.1404C11.2534 71.2426 11.2377 71.3447 11.222 71.4469C11.2141 71.549 11.2063 71.6433 11.1984 71.7298C11.1905 71.8084 11.1866 71.8594 11.1866 71.883V72.2366C11.5717 72.2209 11.9803 72.2013 12.4125 72.1777C12.8525 72.1541 13.2769 72.1266 13.6855 72.0952V71.4115C13.6855 71.2936 13.6698 71.1954 13.6384 71.1168C13.6148 71.0383 13.5637 70.9715 13.4851 70.9165C13.4144 70.8536 13.3083 70.7986 13.1669 70.7514C13.0333 70.6964 12.8565 70.6453 12.6364 70.5982L12.8722 70.0678C13.0215 70.0835 13.1983 70.1071 13.4026 70.1385C13.6069 70.1621 13.8152 70.1896 14.0273 70.221C14.2395 70.2524 14.4438 70.2839 14.6403 70.3153C14.8367 70.3467 15.0057 70.3782 15.1471 70.4096C15.1314 70.4803 15.1157 70.5707 15.1 70.6807C15.0921 70.7829 15.0803 70.885 15.0646 70.9872C15.0489 71.0893 15.0371 71.1836 15.0293 71.2701C15.0214 71.3487 15.0175 71.3997 15.0175 71.4233V73.8279C15.0175 74.2523 14.99 74.598 14.935 74.8652C14.8878 75.1324 14.8525 75.3642 14.8289 75.5606L13.8387 75.6785C13.8309 75.6392 13.8191 75.5842 13.8034 75.5135C13.7955 75.4349 13.7759 75.3524 13.7445 75.266ZM15.8662 76.5272C16.1726 76.5744 16.4516 76.6608 16.7031 76.7865C16.9624 76.9123 17.1785 77.0655 17.3514 77.2462C17.5321 77.427 17.6696 77.6313 17.7639 77.8592C17.8661 78.0792 17.9172 78.311 17.9172 78.5546C17.9172 78.8454 17.8504 79.1126 17.7168 79.3562C17.5832 79.6076 17.3946 79.8237 17.151 80.0045C16.9152 80.1931 16.6323 80.3384 16.3023 80.4406C15.9801 80.5506 15.6265 80.6056 15.2414 80.6056C14.8485 80.6056 14.487 80.5506 14.157 80.4406C13.8348 80.3384 13.5559 80.1931 13.3201 80.0045C13.0844 79.8237 12.8997 79.6076 12.7661 79.3562C12.6404 79.1126 12.5775 78.8454 12.5775 78.5546C12.5775 78.3032 12.6286 78.0635 12.7307 77.8356C12.8329 77.6077 12.9783 77.4034 13.1669 77.2227C13.3555 77.0341 13.5794 76.8808 13.8387 76.763C14.0981 76.6372 14.3849 76.5547 14.6992 76.5154C14.6914 76.4211 14.6521 76.3504 14.5813 76.3032C14.5185 76.2561 14.4085 76.205 14.2513 76.15L14.4988 75.7021C14.5774 75.7178 14.6835 75.7414 14.8171 75.7728C14.9507 75.8043 15.0921 75.8357 15.2414 75.8671C15.3907 75.8985 15.5361 75.93 15.6776 75.9614C15.819 75.9928 15.9369 76.0204 16.0312 76.0439C15.929 76.2404 15.874 76.4015 15.8662 76.5272ZM15.43 69.1837C15.6108 69.2073 15.8229 69.2387 16.0665 69.278C16.3102 69.3173 16.5577 69.3605 16.8091 69.4077C17.0606 69.4548 17.3003 69.4981 17.5282 69.5373C17.7639 69.5766 17.9564 69.6081 18.1057 69.6316C18.09 69.7024 18.0743 69.7967 18.0586 69.9145C18.0507 70.0324 18.039 70.1503 18.0232 70.2682C18.0075 70.386 17.9957 70.4921 17.9879 70.5864C17.98 70.6729 17.9761 70.72 17.9761 70.7279V74.3937C17.9761 74.5352 17.9682 74.7041 17.9525 74.9006C17.9368 75.0892 17.9172 75.2817 17.8936 75.4781C17.87 75.6746 17.8464 75.8593 17.8229 76.0321C17.7993 76.205 17.7757 76.3386 17.7521 76.4329L16.7266 76.5979C16.7109 76.5115 16.6991 76.4015 16.6913 76.2679C16.6834 76.1343 16.6716 75.9968 16.6559 75.8553C16.6481 75.706 16.6402 75.5606 16.6323 75.4192C16.6323 75.2778 16.6323 75.152 16.6323 75.042V70.6807C16.6323 70.4528 16.5145 70.2682 16.2787 70.1267C16.0508 69.9774 15.6776 69.836 15.1589 69.7024L15.43 69.1837ZM16.5263 78.4957C16.5263 78.2992 16.4909 78.1185 16.4202 77.9535C16.3494 77.7806 16.2512 77.6313 16.1255 77.5055C16.0076 77.3798 15.8701 77.2816 15.7129 77.2109C15.5558 77.1401 15.3947 77.1048 15.2296 77.1048C15.0646 77.1048 14.9035 77.1401 14.7464 77.2109C14.5892 77.2816 14.4478 77.3798 14.322 77.5055C14.2042 77.6313 14.1059 77.7806 14.0273 77.9535C13.9566 78.1185 13.9213 78.2992 13.9213 78.4957C13.9213 78.6843 13.9566 78.8611 14.0273 79.0261C14.1059 79.1911 14.2042 79.3326 14.322 79.4505C14.4478 79.5762 14.5892 79.6705 14.7464 79.7333C14.9035 79.8041 15.0646 79.8394 15.2296 79.8394C15.4025 79.8394 15.5676 79.8041 15.7247 79.7333C15.8819 79.6705 16.0194 79.5762 16.1373 79.4505C16.2551 79.3326 16.3494 79.1911 16.4202 79.0261C16.4909 78.8611 16.5263 78.6843 16.5263 78.4957ZM13.6855 72.8967C13.3083 72.8889 12.8958 72.8928 12.4478 72.9085C12.0078 72.9164 11.5874 72.9282 11.1866 72.9439V74.0047C11.1866 74.1147 11.1827 74.2169 11.1748 74.3112C11.1748 74.4055 11.1709 74.4959 11.163 74.5823C11.5717 74.5744 11.996 74.5587 12.4361 74.5352C12.8761 74.5037 13.2926 74.4801 13.6855 74.4644V72.8967ZM26.4573 77.8474C26.5752 77.3837 26.6891 76.873 26.7991 76.315C26.9091 75.7492 27.0074 75.1835 27.0938 74.6177C27.1802 74.044 27.251 73.4939 27.306 72.9674C27.361 72.4409 27.3963 71.9812 27.412 71.5883C27.1292 71.5883 26.8148 71.5923 26.4691 71.6001C26.1312 71.6001 25.7933 71.604 25.4554 71.6119C25.1175 71.6119 24.7874 71.6198 24.4652 71.6355C24.1509 71.6433 23.8759 71.6551 23.6401 71.6708C23.5301 71.6787 23.3887 71.6905 23.2158 71.7062C23.0429 71.7219 22.8582 71.7416 22.6618 71.7651C22.4732 71.7809 22.2767 71.8044 22.0724 71.8359C21.876 71.8673 21.6913 71.8987 21.5184 71.9302C21.4241 71.7416 21.3259 71.5569 21.2237 71.3762C21.1294 71.1876 21.0351 70.999 20.9408 70.8104C21.0901 70.8261 21.2591 70.8418 21.4477 70.8575C21.6441 70.8732 21.8406 70.889 22.037 70.9047C22.2335 70.9204 22.4182 70.9361 22.591 70.9518C22.7718 70.9597 22.925 70.9636 23.0508 70.9636C23.4751 70.9636 23.9387 70.9557 24.4417 70.94C24.9446 70.9243 25.4514 70.9047 25.9622 70.8811C26.473 70.8575 26.9641 70.8261 27.4356 70.7868C27.9071 70.7475 28.3197 70.7043 28.6733 70.6571C28.7362 70.72 28.7951 70.7829 28.8501 70.8457C28.913 70.9086 28.9758 70.9715 29.0387 71.0343C28.968 71.5373 28.8776 72.0913 28.7676 72.6963C28.6576 73.3014 28.5318 73.9104 28.3904 74.5234C28.2568 75.1363 28.1114 75.7296 27.9543 76.3032C27.805 76.8769 27.6557 77.3798 27.5063 77.812C27.7657 77.8042 28.0289 77.7924 28.2961 77.7767C28.5711 77.7531 28.8422 77.7295 29.1094 77.7059C29.3766 77.6745 29.632 77.6431 29.8756 77.6116C30.1192 77.5802 30.3471 77.5488 30.5593 77.5173C30.5357 77.6981 30.5121 77.8827 30.4885 78.0713C30.465 78.2599 30.4375 78.4446 30.406 78.6253C30.2489 78.6175 30.0603 78.6136 29.8402 78.6136C29.6202 78.6057 29.3845 78.5978 29.133 78.59C28.8815 78.5821 28.6183 78.5782 28.3432 78.5782C28.0761 78.5703 27.8128 78.5664 27.5535 78.5664C26.7284 78.5664 25.9308 78.5782 25.1607 78.6018C24.3984 78.6175 23.6873 78.645 23.0272 78.6843C22.3749 78.7157 21.7934 78.7511 21.2827 78.7904C20.7719 78.8297 20.3632 78.8689 20.0568 78.9082C19.9861 78.7118 19.9153 78.5193 19.8446 78.3307C19.7739 78.1421 19.7032 77.9456 19.6324 77.7413C19.8603 77.7649 20.1039 77.7884 20.3632 77.812C20.6304 77.8277 20.8937 77.8474 21.153 77.871C21.4202 77.8867 21.6756 77.9024 21.9192 77.9181C22.1706 77.926 22.3946 77.9299 22.591 77.9299C22.8582 77.9299 23.1529 77.926 23.4751 77.9181C23.8051 77.9102 24.143 77.9024 24.4888 77.8945C24.8346 77.8867 25.1764 77.8788 25.5143 77.871C25.8601 77.8631 26.1744 77.8552 26.4573 77.8474ZM34.632 73.8279C34.6477 73.5214 34.6674 73.215 34.6909 72.9085C34.7145 72.602 34.7342 72.2956 34.7499 71.9891H34.6674C34.5731 71.9812 34.4473 71.9891 34.2902 72.0127C34.1409 72.0362 33.9444 72.0598 33.7008 72.0834C33.6301 72.0913 33.5279 72.103 33.3943 72.1188C33.2607 72.1345 33.1114 72.1541 32.9464 72.1777C32.7814 72.1934 32.6124 72.2131 32.4396 72.2366C32.2745 72.2602 32.1292 72.2838 32.0034 72.3074C31.8934 72.1188 31.7913 71.9302 31.697 71.7416C31.6027 71.553 31.5005 71.3683 31.3905 71.1876C31.4769 71.2033 31.6027 71.2229 31.7677 71.2465C31.9406 71.2701 32.1213 71.2936 32.3099 71.3172C32.4985 71.3329 32.6753 71.3487 32.8403 71.3644C33.0132 71.3801 33.1468 71.3879 33.2411 71.3879C33.634 71.3879 34.0859 71.3762 34.5966 71.3526C35.1074 71.3212 35.6654 71.274 36.2704 71.2111C36.2233 71.4705 36.1801 71.7062 36.1408 71.9184C36.1015 72.1305 36.0661 72.3349 36.0347 72.5313C36.0111 72.7278 35.9836 72.9242 35.9522 73.1207C35.9286 73.3093 35.9011 73.5097 35.8697 73.7218C35.8854 73.7061 35.905 73.7022 35.9286 73.71C35.96 73.71 35.9836 73.7061 35.9993 73.6983C35.9993 73.8554 35.9915 74.0047 35.9757 74.1462C35.9679 74.2876 35.964 74.4369 35.964 74.5941C35.7361 74.5784 35.5357 74.5666 35.3628 74.5587C35.1899 74.5509 35.0288 74.5469 34.8795 74.5469C34.6124 74.5469 34.3766 74.5548 34.1723 74.5705C33.9758 74.5862 33.7597 74.6019 33.524 74.6177C33.524 74.6805 33.5201 74.7355 33.5122 74.7827C33.5043 74.822 33.5004 74.8731 33.5004 74.9359V76.4801C33.5004 76.5822 33.5161 76.6529 33.5476 76.6922C33.579 76.7315 33.6065 76.7512 33.6301 76.7512C33.8265 76.7354 34.0584 76.7001 34.3255 76.6451C34.6006 76.5901 34.8874 76.5272 35.186 76.4565C35.4846 76.3779 35.7832 76.2993 36.0818 76.2207C36.3804 76.1343 36.6555 76.0479 36.9069 75.9614V76.539C36.349 76.7669 35.7911 76.9791 35.2332 77.1755C34.6752 77.372 34.0898 77.5409 33.4768 77.6824C33.4061 77.6981 33.3354 77.7099 33.2647 77.7177C33.2018 77.7256 33.1389 77.7295 33.0761 77.7295C32.7382 77.7295 32.5024 77.6274 32.3688 77.423C32.2431 77.2187 32.1802 76.9515 32.1802 76.6215V75.1127C32.1802 74.9713 32.1724 74.8573 32.1567 74.7709C32.141 74.6845 32.1056 74.6137 32.0506 74.5587C31.9956 74.4959 31.9091 74.4409 31.7913 74.3937C31.6812 74.3466 31.5319 74.2955 31.3433 74.2405C31.3826 74.154 31.4219 74.0754 31.4612 74.0047C31.5005 73.934 31.5398 73.8593 31.5791 73.7808C31.9406 73.8122 32.2785 73.8358 32.5928 73.8515C32.915 73.8593 33.2215 73.8633 33.5122 73.8633C33.9051 73.8633 34.2784 73.8515 34.632 73.8279ZM38.0975 69.7024C38.1368 69.6159 38.176 69.5295 38.2153 69.443C38.2546 69.3566 38.2939 69.2702 38.3332 69.1837C38.5218 69.2073 38.73 69.2427 38.9579 69.2898C39.1937 69.3291 39.4255 69.3723 39.6534 69.4195C39.8813 69.4666 40.0974 69.5138 40.3017 69.5609C40.5139 69.6002 40.6907 69.6316 40.8321 69.6552C40.8243 69.7259 40.8125 69.8202 40.7968 69.9381C40.7889 70.056 40.781 70.1699 40.7732 70.2799C40.7653 70.39 40.7575 70.4921 40.7496 70.5864C40.7417 70.6729 40.7378 70.72 40.7378 70.7279V77.2109C40.7378 77.4466 40.73 77.7217 40.7142 78.036C40.7064 78.3424 40.6907 78.6568 40.6671 78.979C40.6514 79.2933 40.6278 79.5919 40.5964 79.8748C40.5728 80.1655 40.5453 80.4092 40.5139 80.6056C40.341 80.6292 40.172 80.6528 40.007 80.6763C39.842 80.6999 39.673 80.7235 39.5001 80.7471C39.4844 80.6056 39.4726 80.4249 39.4648 80.2048C39.4569 79.9927 39.4451 79.7609 39.4294 79.5094C39.4216 79.2658 39.4137 79.0183 39.4059 78.7668C39.4059 78.5153 39.4059 78.2757 39.4059 78.0478V70.6925C39.4059 70.5746 39.3862 70.4685 39.3469 70.3742C39.3076 70.2799 39.2369 70.1935 39.1347 70.1149C39.0404 70.0363 38.9069 69.9656 38.734 69.9027C38.569 69.832 38.3568 69.7652 38.0975 69.7024ZM37.2488 74.4526C37.0916 74.4841 36.9344 74.5155 36.7773 74.5469C36.628 74.5784 36.4944 74.6137 36.3765 74.653C36.3137 74.4959 36.2508 74.3348 36.1879 74.1697C36.1251 73.9969 36.0622 73.8318 35.9993 73.6747C36.2586 73.714 36.459 73.7415 36.6005 73.7572C36.7419 73.7651 36.8912 73.769 37.0484 73.769C37.0798 73.769 37.1113 73.769 37.1427 73.769C37.1741 73.769 37.2095 73.7651 37.2488 73.7572V71.1286C37.2488 71.0186 37.2331 70.9204 37.2016 70.8339C37.1702 70.7475 37.1113 70.6689 37.0248 70.5982C36.9384 70.5196 36.8166 70.4489 36.6594 70.386C36.5022 70.3232 36.2979 70.2603 36.0465 70.1974C36.0858 70.111 36.129 70.0285 36.1761 69.9499C36.2233 69.8713 36.2704 69.7888 36.3176 69.7024C36.5062 69.7259 36.7066 69.7574 36.9187 69.7967C37.1388 69.8281 37.3549 69.8635 37.567 69.9027C37.7792 69.942 37.9796 69.9853 38.1682 70.0324C38.3646 70.0717 38.5336 70.111 38.675 70.1503C38.6593 70.221 38.6436 70.3153 38.6279 70.4332C38.6122 70.5432 38.5965 70.6571 38.5807 70.775C38.5729 70.885 38.565 70.9832 38.5572 71.0697C38.5493 71.1561 38.5454 71.2033 38.5454 71.2111V76.7865C38.5454 77.0301 38.5375 77.3091 38.5218 77.6234C38.5139 77.9299 38.4982 78.2442 38.4747 78.5664C38.4589 78.8807 38.4393 79.1833 38.4157 79.474C38.3921 79.7648 38.3646 80.0084 38.3332 80.2048C38.1682 80.2284 38.0032 80.2481 37.8381 80.2638C37.681 80.2795 37.5199 80.2991 37.3549 80.3227C37.3391 80.1813 37.3234 80.0005 37.3077 79.7805C37.2999 79.5683 37.292 79.3404 37.2841 79.0968C37.2763 78.8532 37.2684 78.6057 37.2606 78.3542C37.2527 78.1028 37.2488 77.867 37.2488 77.647V74.4526ZM51.8183 75.3956C51.8183 75.7414 51.8066 75.9928 51.783 76.15C51.7594 76.3072 51.7319 76.4486 51.7005 76.5744C51.7869 76.6058 51.8773 76.6372 51.9716 76.6687C52.0737 76.6922 52.1602 76.7158 52.2309 76.7394C52.0266 77.1244 51.7594 77.4938 51.4294 77.8474C51.7594 78.036 52.1052 78.2206 52.4666 78.4014C52.8281 78.5821 53.1896 78.7589 53.5511 78.9318C53.9125 79.0968 54.2583 79.2501 54.5884 79.3915C54.9263 79.5408 55.2288 79.6666 55.496 79.7687L54.5412 80.6999C53.9676 80.307 53.3625 79.9141 52.726 79.5212C52.0973 79.1361 51.4962 78.7629 50.9225 78.4014C50.3646 78.9357 49.7438 79.4033 49.0601 79.8041C48.3843 80.2127 47.7164 80.5427 47.0563 80.7942L46.738 80.3816C47.1781 80.1773 47.5867 79.9455 47.9639 79.6862C48.3489 79.4269 48.6947 79.1597 49.0012 78.8847C49.3155 78.6018 49.5945 78.3189 49.8381 78.036C50.0817 77.7452 50.2899 77.4702 50.4628 77.2109C50.4628 77.2187 50.4667 77.2109 50.4746 77.1873C50.4824 77.1559 50.4864 77.1244 50.4864 77.093C50.4942 77.0537 50.4903 77.0183 50.4746 76.9869C50.4667 76.9555 50.4471 76.9319 50.4157 76.9162C50.2899 76.8612 50.1799 76.8062 50.0856 76.7512C49.9992 76.6883 49.8577 76.6136 49.6613 76.5272L50.0502 76.1146C50.1131 76.1304 50.176 76.1461 50.2388 76.1618C50.3017 76.1775 50.3764 76.1972 50.4628 76.2207C50.4549 76.1343 50.451 76.04 50.451 75.9378C50.4589 75.8278 50.4628 75.6982 50.4628 75.5489V75.3367C50.1563 75.3445 49.8577 75.3524 49.567 75.3603C49.2841 75.3681 49.0169 75.3799 48.7654 75.3956C48.514 75.4035 48.29 75.4113 48.0936 75.4192C47.905 75.4271 47.7517 75.4349 47.6339 75.4428C47.4924 75.4506 47.3352 75.4624 47.1624 75.4781C46.9973 75.4939 46.8284 75.5135 46.6555 75.5371C46.4826 75.5528 46.3097 75.5724 46.1369 75.596C45.9718 75.6117 45.8225 75.6235 45.6889 75.6314L45.2175 74.4526C45.5711 74.4919 45.9718 74.5312 46.4198 74.5705C46.8677 74.6019 47.2684 74.6255 47.6221 74.6412C47.8107 74.6491 48.0582 74.653 48.3647 74.653C48.6711 74.653 49.0051 74.653 49.3666 74.653C49.7359 74.6452 50.117 74.6373 50.5099 74.6295C50.9107 74.6137 51.2918 74.6019 51.6533 74.5941C52.0227 74.5862 52.3606 74.5784 52.667 74.5705C52.9735 74.5548 53.221 74.543 53.4096 74.5352C53.6689 74.5273 53.94 74.5116 54.2229 74.488C54.5058 74.4644 54.7848 74.4409 55.0598 74.4173C55.3427 74.3858 55.6138 74.3583 55.8732 74.3348C56.1325 74.3033 56.3722 74.2758 56.5922 74.2523L56.4036 75.3485C56.2464 75.3406 56.0578 75.3328 55.8378 75.3249C55.6256 75.317 55.3938 75.3131 55.1424 75.3131C54.8909 75.3053 54.6316 75.2974 54.3644 75.2895C54.0972 75.2817 53.834 75.2778 53.5746 75.2778C53.3782 75.2778 53.1307 75.2817 52.832 75.2895C52.5334 75.2895 52.1955 75.2974 51.8183 75.3131V75.3956ZM51.7005 69.9027C52.0227 69.9656 52.3173 70.0638 52.5845 70.1974C52.8595 70.331 53.0914 70.4921 53.28 70.6807C53.4764 70.8614 53.6257 71.0658 53.7279 71.2936C53.8379 71.5215 53.8929 71.7612 53.8929 72.0127C53.8929 72.3113 53.8182 72.5903 53.6689 72.8496C53.5196 73.1089 53.3114 73.3368 53.0442 73.5332C52.7849 73.7218 52.4745 73.8711 52.113 73.9812C51.7594 74.0912 51.3743 74.1462 50.9579 74.1462C50.5492 74.1462 50.1681 74.0912 49.8145 73.9812C49.4687 73.8711 49.1662 73.7218 48.9069 73.5332C48.6554 73.3368 48.455 73.1089 48.3057 72.8496C48.1643 72.5903 48.0936 72.3113 48.0936 72.0127C48.0936 71.7455 48.1525 71.4901 48.2704 71.2465C48.3961 71.0029 48.565 70.7868 48.7772 70.5982C48.9894 70.4096 49.2409 70.2524 49.5316 70.1267C49.8224 70.001 50.1406 69.9185 50.4864 69.8792C50.4785 69.7927 50.4432 69.7259 50.3803 69.6788C50.3174 69.6238 50.1956 69.5766 50.0149 69.5373L50.2388 69.113L51.8301 69.4313C51.8144 69.4784 51.7948 69.5452 51.7712 69.6316C51.7476 69.7181 51.724 69.8085 51.7005 69.9027ZM52.5256 71.9419C52.5256 71.7455 52.4824 71.5608 52.3959 71.3879C52.3095 71.2072 52.1955 71.054 52.0541 70.9282C51.9126 70.7947 51.7515 70.6886 51.5708 70.61C51.3901 70.5314 51.2015 70.4921 51.005 70.4921C50.8007 70.4921 50.6042 70.5314 50.4157 70.61C50.2349 70.6886 50.0738 70.7947 49.9324 70.9282C49.7988 71.054 49.6927 71.2072 49.6141 71.3879C49.5355 71.5608 49.4962 71.7455 49.4962 71.9419C49.4962 72.162 49.5355 72.3624 49.6141 72.5431C49.6927 72.716 49.7988 72.8653 49.9324 72.991C50.0738 73.1089 50.2349 73.2032 50.4157 73.2739C50.5964 73.3368 50.7928 73.3682 51.005 73.3682C51.2093 73.3682 51.4019 73.3368 51.5826 73.2739C51.7712 73.2032 51.9323 73.1089 52.0659 72.991C52.2073 72.8653 52.3173 72.716 52.3959 72.5431C52.4824 72.3624 52.5256 72.162 52.5256 71.9419ZM65.8749 73.8161C65.4034 73.7926 64.8887 73.7808 64.3308 73.7808C63.7728 73.7808 63.2149 73.7847 62.657 73.7926C62.1069 73.8004 61.5804 73.8161 61.0775 73.8397C60.5824 73.8554 60.162 73.8711 59.8162 73.8869C59.4941 73.9026 59.2662 73.8201 59.1326 73.6393C58.999 73.4586 58.9322 73.2503 58.9322 73.0146V71.2583C58.9322 71.109 58.9165 70.9872 58.8851 70.8929C58.8615 70.7907 58.8065 70.7043 58.72 70.6336C58.6414 70.5628 58.5275 70.5039 58.3782 70.4568C58.2289 70.4017 58.0324 70.3467 57.7888 70.2917L58.0482 69.7495C58.1503 69.7652 58.3035 69.7888 58.5079 69.8202C58.72 69.8438 58.9401 69.8713 59.1679 69.9027C59.4037 69.9263 59.6277 69.9538 59.8398 69.9853C60.0599 70.0167 60.2327 70.0403 60.3585 70.056C60.3585 70.1031 60.3506 70.166 60.3349 70.2446C60.327 70.3232 60.3152 70.4096 60.2995 70.5039C60.2917 70.5982 60.2838 70.6925 60.276 70.7868C60.2681 70.8732 60.2642 70.9518 60.2642 71.0225V72.7435C60.2642 72.9949 60.3624 73.1246 60.5588 73.1325C60.8496 73.1325 61.2307 73.1246 61.7022 73.1089C62.1737 73.0853 62.6688 73.0578 63.1874 73.0264C63.7139 72.9871 64.2286 72.9439 64.7315 72.8967C65.2423 72.8496 65.6785 72.7985 66.0399 72.7435L65.8749 73.8161ZM67.6312 75.9732C67.4741 75.9653 67.2855 75.9575 67.0654 75.9496C66.8454 75.9418 66.6097 75.9339 66.3582 75.9261C66.1067 75.9182 65.8474 75.9103 65.5802 75.9025C65.3131 75.8946 65.0537 75.8907 64.8023 75.8907C64.5822 75.8907 64.3033 75.8907 63.9654 75.8907C63.6353 75.8907 63.2739 75.8985 62.8809 75.9143C62.4959 75.9221 62.0991 75.9339 61.6904 75.9496C61.2818 75.9575 60.8928 75.9693 60.5235 75.985C60.1541 76.0007 59.8202 76.0164 59.5216 76.0321C59.2308 76.0479 59.0108 76.0636 58.8615 76.0793C58.72 76.0871 58.5629 76.0989 58.39 76.1146C58.225 76.1304 58.056 76.1461 57.8831 76.1618C57.7103 76.1775 57.5374 76.1932 57.3645 76.2089C57.1995 76.2247 57.0502 76.2404 56.9166 76.2561L56.4451 75.0892C56.618 75.1127 56.8066 75.1363 57.0109 75.1599C57.223 75.1756 57.4352 75.1952 57.6474 75.2188C57.8596 75.2345 58.0678 75.2502 58.2721 75.266C58.4843 75.2738 58.6768 75.2778 58.8497 75.2778C59.0383 75.2856 59.2858 75.2895 59.5923 75.2895C59.8988 75.2895 60.2327 75.2895 60.5942 75.2895C60.9635 75.2817 61.3447 75.2738 61.7376 75.266C62.1383 75.2502 62.5195 75.2385 62.8809 75.2306C63.2503 75.2227 63.5882 75.2149 63.8946 75.207C64.2011 75.1913 64.4487 75.1795 64.6372 75.1717C64.8966 75.1638 65.1637 75.1481 65.4388 75.1245C65.7217 75.1009 66.0006 75.0774 66.2757 75.0538C66.5586 75.0224 66.8297 74.9909 67.089 74.9595C67.3562 74.9281 67.5998 74.8966 67.8198 74.8652L67.6312 75.9732ZM66.205 80.2402C65.7335 80.2088 65.2109 80.1891 64.6372 80.1813C64.0715 80.1734 63.5096 80.1695 62.9517 80.1695C62.3937 80.1773 61.8594 80.1891 61.3486 80.2048C60.8457 80.2206 60.4213 80.2363 60.0756 80.252C59.7534 80.2677 59.5255 80.2048 59.3919 80.0634C59.2662 79.9219 59.2033 79.7609 59.2033 79.5801V78.2481C59.2033 78.0831 59.1955 77.9535 59.1797 77.8592C59.164 77.757 59.1208 77.6745 59.0501 77.6116C58.9872 77.5409 58.8851 77.482 58.7436 77.4348C58.6022 77.3877 58.4096 77.3327 58.166 77.2698L58.39 76.7394C58.5079 76.7551 58.665 76.7787 58.8615 76.8101C59.0658 76.8337 59.274 76.8612 59.4862 76.8926C59.7062 76.9162 59.9184 76.9437 60.1227 76.9751C60.327 77.0066 60.4881 77.0301 60.606 77.0458C60.5981 77.1401 60.5824 77.2894 60.5588 77.4938C60.5431 77.6902 60.5353 77.8592 60.5353 78.0006V79.2029C60.5353 79.3365 60.5471 79.4151 60.5706 79.4387C60.5942 79.4622 60.6649 79.478 60.7828 79.4858C60.9793 79.4858 61.2229 79.4819 61.5136 79.474C61.8044 79.474 62.1187 79.4662 62.4566 79.4505C62.7945 79.4347 63.1481 79.4151 63.5175 79.3915C63.8868 79.3758 64.2443 79.3562 64.5901 79.3326C64.9437 79.309 65.2738 79.2815 65.5802 79.2501C65.8946 79.2265 66.1617 79.199 66.3818 79.1676L66.205 80.2402ZM77.0144 75.6196C77.1087 75.6039 77.199 75.5921 77.2855 75.5842C77.3719 75.5685 77.4584 75.5606 77.5448 75.5606L77.2855 76.5626C77.0262 76.539 76.7393 76.5233 76.425 76.5154C76.1107 76.5076 75.7846 76.5036 75.4467 76.5036C75.1088 76.5036 74.7709 76.5076 74.433 76.5154C74.1029 76.5233 73.7886 76.5351 73.49 76.5508C73.4743 76.5979 73.4585 76.6569 73.4428 76.7276C73.4271 76.7905 73.4035 76.8651 73.3721 76.9515L72.4527 77.1166C72.437 77.038 72.4173 76.9437 72.3938 76.8337C72.378 76.7237 72.3623 76.6097 72.3466 76.4918C72.3309 76.374 72.3152 76.2561 72.2995 76.1382C72.2916 76.0204 72.2837 75.9103 72.2759 75.8082L72.0637 72.7553C72.0559 72.6217 72.0401 72.5156 72.0166 72.437C71.993 72.3506 71.9498 72.2799 71.8869 72.2248C71.8319 72.1698 71.7494 72.1227 71.6394 72.0834C71.5294 72.0441 71.3879 72.0009 71.215 71.9537L71.4626 71.4587C72.492 71.5844 73.4939 71.6355 74.4683 71.6119C75.4506 71.5805 76.4682 71.5215 77.5212 71.4351C77.4977 71.6316 77.4623 71.9066 77.4151 72.2602C77.368 72.606 77.3208 72.9792 77.2737 73.38C77.2265 73.7808 77.1794 74.1815 77.1323 74.5823C77.0851 74.9752 77.0458 75.321 77.0144 75.6196ZM80.0791 77.1991C80.0791 77.4427 80.0751 77.7256 80.0673 78.0478C80.0594 78.3621 80.0476 78.6803 80.0319 79.0025C80.0162 79.3247 79.9966 79.6312 79.973 79.9219C79.9494 80.2127 79.9258 80.4445 79.9023 80.6174L78.865 80.7588C78.8493 80.6331 78.8335 80.4602 78.8178 80.2402C78.81 80.028 78.7982 79.7962 78.7825 79.5448C78.7746 79.2933 78.7668 79.0379 78.7589 78.7786C78.751 78.5193 78.7471 78.2757 78.7471 78.0478V70.6807C78.7471 70.4528 78.6371 70.2682 78.4171 70.1267C78.2049 69.9774 77.8395 69.836 77.3208 69.7024L77.5212 69.1837C77.7177 69.2073 77.9416 69.2387 78.1931 69.278C78.4524 69.3173 78.7039 69.3605 78.9475 69.4077C79.199 69.4548 79.4347 69.4981 79.6547 69.5373C79.8826 69.5766 80.0673 69.6081 80.2087 69.6316C80.193 69.7024 80.1773 69.7967 80.1616 69.9145C80.1459 70.0324 80.1302 70.1503 80.1144 70.2682C80.1066 70.386 80.0987 70.4921 80.0909 70.5864C80.083 70.6729 80.0791 70.72 80.0791 70.7279V73.7808C80.252 73.7651 80.4406 73.7454 80.6449 73.7218C80.8492 73.6983 81.0574 73.6747 81.2696 73.6511C81.4818 73.6275 81.69 73.604 81.8943 73.5804C82.0986 73.5489 82.2794 73.5175 82.4365 73.4861L82.2951 74.5941C82.1694 74.5862 82.0161 74.5823 81.8354 74.5823C81.6546 74.5744 81.4621 74.5705 81.2578 74.5705C81.0613 74.5705 80.857 74.5705 80.6449 74.5705C80.4406 74.5705 80.252 74.5705 80.0791 74.5705V77.1991ZM75.9889 72.2956C75.5017 72.272 75.0538 72.2681 74.6451 72.2838C74.2365 72.2995 73.82 72.3231 73.3957 72.3545L73.5253 75.596V75.8082C73.879 75.7925 74.2562 75.7767 74.6569 75.761C75.0655 75.7375 75.4585 75.7178 75.8356 75.7021L75.9889 72.2956ZM88.7606 69.9027C89.075 69.9578 89.3657 70.0481 89.6329 70.1739C89.9001 70.2996 90.128 70.4528 90.3166 70.6336C90.5052 70.8143 90.6505 71.0186 90.7527 71.2465C90.8627 71.4665 90.9177 71.6983 90.9177 71.9419C90.9177 72.2406 90.8431 72.5195 90.6938 72.7788C90.5523 73.0303 90.3519 73.2503 90.0926 73.4389C89.8411 73.6197 89.5386 73.7651 89.185 73.8751C88.8392 73.9772 88.462 74.0283 88.0534 74.0283C87.6369 74.0283 87.2558 73.9772 86.91 73.8751C86.5643 73.7651 86.2617 73.6197 86.0024 73.4389C85.751 73.2503 85.5545 73.0303 85.4131 72.7788C85.2716 72.5195 85.2009 72.2406 85.2009 71.9419C85.2009 71.6826 85.2598 71.4351 85.3777 71.1994C85.4956 70.9636 85.6567 70.7554 85.861 70.5746C86.0731 70.3939 86.3246 70.2446 86.6154 70.1267C86.9061 70.001 87.2283 69.9185 87.5819 69.8792C87.5741 69.7927 87.5348 69.722 87.464 69.667C87.3933 69.612 87.2715 69.557 87.0986 69.502C87.1379 69.4391 87.1772 69.3762 87.2165 69.3134C87.2558 69.2427 87.2951 69.1759 87.3344 69.113C87.4208 69.1287 87.5308 69.1523 87.6644 69.1837C87.8059 69.2073 87.9512 69.2348 88.1006 69.2662C88.2499 69.2898 88.3952 69.3173 88.5367 69.3487C88.686 69.3802 88.8117 69.4077 88.9139 69.4313C88.8903 69.4705 88.8628 69.5373 88.8314 69.6316C88.8078 69.7259 88.7842 69.8163 88.7606 69.9027ZM89.5504 71.8948C89.5504 71.6983 89.5072 71.5137 89.4207 71.3408C89.3421 71.1679 89.2321 71.0186 89.0907 70.8929C88.9492 70.7671 88.7881 70.6689 88.6074 70.5982C88.4345 70.5196 88.2538 70.4803 88.0652 70.4803C87.8687 70.4803 87.6801 70.5196 87.4994 70.5982C87.3265 70.6689 87.1694 70.7671 87.0279 70.8929C86.8943 71.0186 86.7882 71.1679 86.7097 71.3408C86.6311 71.5137 86.5918 71.6983 86.5918 71.8948C86.5918 72.0991 86.6311 72.2877 86.7097 72.4606C86.7882 72.6256 86.8943 72.771 87.0279 72.8967C87.1615 73.0146 87.3147 73.1089 87.4876 73.1796C87.6684 73.2425 87.8609 73.2739 88.0652 73.2739C88.2616 73.2739 88.4502 73.2425 88.631 73.1796C88.8117 73.1089 88.9689 73.0146 89.1025 72.8967C89.2361 72.771 89.3421 72.6256 89.4207 72.4606C89.5072 72.2877 89.5504 72.0991 89.5504 71.8948ZM93.6406 74.264L93.4638 75.3603C93.3066 75.3524 93.118 75.3445 92.898 75.3367C92.678 75.321 92.4422 75.3092 92.1907 75.3013C91.9393 75.2935 91.68 75.2895 91.4128 75.2895C91.1456 75.2817 90.8863 75.2778 90.6348 75.2778C90.4148 75.2778 90.1358 75.2817 89.7979 75.2895C89.4679 75.2974 89.1064 75.3053 88.7135 75.3131C88.3284 75.321 87.9316 75.3328 87.523 75.3485C87.1144 75.3563 86.7254 75.3681 86.356 75.3838C85.9867 75.3917 85.6527 75.4035 85.3541 75.4192C85.0634 75.4271 84.8394 75.4349 84.6822 75.4428C84.5487 75.4506 84.3954 75.4663 84.2225 75.4899C84.0575 75.5056 83.8846 75.5214 83.7039 75.5371C83.531 75.5528 83.3581 75.5724 83.1853 75.596C83.0202 75.6117 82.8749 75.6235 82.7491 75.6314C82.6705 75.4349 82.588 75.2424 82.5016 75.0538C82.423 74.8573 82.3484 74.6609 82.2776 74.4644C82.8198 74.5273 83.3699 74.5744 83.9279 74.6059C84.4936 74.6373 85.0044 74.653 85.4602 74.653C86.4268 74.653 87.299 74.6412 88.077 74.6177C88.8549 74.5941 89.57 74.5666 90.2223 74.5352C90.8745 74.4959 91.4756 74.4526 92.0257 74.4055C92.5837 74.3583 93.1219 74.3112 93.6406 74.264ZM89.9512 77.812C89.959 77.6391 89.9629 77.4741 89.9629 77.317C89.9708 77.1519 89.9787 76.9869 89.9865 76.8219C89.9158 76.8219 89.8372 76.8219 89.7508 76.8219C89.6643 76.814 89.574 76.8101 89.4797 76.8101C89.2754 76.8101 89.0514 76.814 88.8078 76.8219C88.5642 76.8297 88.3206 76.8415 88.077 76.8572C87.8334 76.8651 87.5976 76.8769 87.3697 76.8926C87.1419 76.9005 86.9454 76.9083 86.7804 76.9162C86.7018 76.924 86.5918 76.9358 86.4503 76.9515C86.3089 76.9594 86.1517 76.9751 85.9788 76.9987C85.8138 77.0144 85.6409 77.0341 85.4602 77.0576C85.2873 77.0812 85.1302 77.1087 84.9887 77.1401C84.8866 76.9594 84.7805 76.7787 84.6705 76.5979C84.5683 76.4093 84.4661 76.2247 84.364 76.0439C84.4976 76.0754 84.6783 76.1029 84.9062 76.1264C85.1419 76.15 85.3777 76.1736 85.6134 76.1972C85.8492 76.2129 86.0653 76.2247 86.2617 76.2325C86.466 76.2404 86.6036 76.2443 86.6743 76.2443C86.9965 76.2443 87.3697 76.2443 87.7941 76.2443C88.2184 76.2365 88.6506 76.2286 89.0907 76.2207C89.5386 76.205 89.9747 76.1854 90.3991 76.1618C90.8313 76.1382 91.2124 76.1068 91.5424 76.0675C91.5189 76.1304 91.4914 76.2286 91.4599 76.3622C91.4364 76.4958 91.4128 76.6451 91.3892 76.8101C91.3656 76.9673 91.3381 77.1284 91.3067 77.2934C91.2831 77.4505 91.2595 77.5881 91.236 77.7059C91.2988 77.6981 91.3499 77.6941 91.3892 77.6941C91.4285 77.6941 91.4678 77.6902 91.5071 77.6824C91.4914 77.8317 91.4717 77.981 91.4481 78.1303C91.4324 78.2717 91.4167 78.4132 91.401 78.5546C91.1102 78.5389 90.8038 78.5271 90.4816 78.5193C90.1594 78.5114 89.8333 78.5075 89.5032 78.5075C89.1811 78.5075 88.8667 78.5114 88.5603 78.5193C88.2538 78.5193 87.967 78.5232 87.6998 78.531C87.4326 78.5389 87.189 78.5468 86.969 78.5546C86.7568 78.5625 86.5879 78.5703 86.4621 78.5782C86.4543 78.6411 86.4503 78.7 86.4503 78.755C86.4582 78.8022 86.4621 78.8532 86.4621 78.9082V79.4151C86.4621 79.4858 86.4936 79.533 86.5564 79.5565C86.6193 79.588 86.7489 79.6037 86.9454 79.6037C87.2676 79.6037 87.6605 79.5919 88.1241 79.5683C88.5878 79.5526 89.0593 79.5251 89.5386 79.4858C90.0258 79.4544 90.4934 79.4151 90.9413 79.3679C91.3971 79.3287 91.7743 79.2854 92.0729 79.2383C92.0336 79.419 91.9943 79.5958 91.955 79.7687C91.9157 79.9494 91.8764 80.1302 91.8371 80.3109C91.5621 80.3031 91.2674 80.2952 90.9531 80.2873C90.6387 80.2873 90.3048 80.2873 89.9512 80.2873C89.574 80.2873 89.1928 80.2913 88.8078 80.2991C88.4306 80.307 88.0613 80.3149 87.6998 80.3227C87.3383 80.3306 87.0004 80.3384 86.6861 80.3463C86.3796 80.3541 86.1085 80.3581 85.8728 80.3581C85.582 80.3581 85.3855 80.2873 85.2834 80.1459C85.1812 80.0123 85.1302 79.8434 85.1302 79.639V79.0615C85.1302 78.9279 85.1184 78.8179 85.0948 78.7314C85.0791 78.645 85.0398 78.5743 84.9769 78.5193C84.9141 78.4564 84.8237 78.4014 84.7058 78.3542C84.5958 78.3071 84.4426 78.2521 84.2461 78.1892C84.2854 78.1185 84.3247 78.0478 84.364 77.977C84.4033 77.8985 84.4465 77.8238 84.4936 77.7531C84.8787 77.7924 85.2952 77.8199 85.7431 77.8356C86.1989 77.8513 86.6743 77.8592 87.1694 77.8592C87.6644 77.8592 88.1438 77.8552 88.6074 77.8474C89.0789 77.8395 89.5268 77.8277 89.9512 77.812ZM94.6015 79.6626C94.4758 79.6233 94.3618 79.5605 94.2597 79.474C94.1654 79.3954 94.0907 79.3051 94.0357 79.2029C93.9807 79.0929 93.9532 78.9829 93.9532 78.8729C93.9532 78.7707 93.9728 78.6686 94.0121 78.5664C94.0593 78.4642 94.1221 78.3739 94.2007 78.2953C94.2872 78.2167 94.3854 78.1539 94.4954 78.1067C94.6133 78.0517 94.739 78.0242 94.8726 78.0242C95.2183 78.0242 95.4777 78.1421 95.6506 78.3778C95.8313 78.6057 95.9217 78.8807 95.9217 79.2029C95.9217 79.643 95.7959 80.0398 95.5445 80.3934C95.293 80.7471 94.9001 81.0103 94.3657 81.1832L94.0475 80.7706C94.3461 80.6606 94.574 80.5152 94.7311 80.3345C94.8883 80.1538 94.9669 79.9494 94.9669 79.7216C94.9669 79.698 94.9669 79.6823 94.9669 79.6744C94.8412 79.698 94.7194 79.6941 94.6015 79.6626ZM105.104 74.6059C105.521 74.9359 105.973 75.2856 106.46 75.6549C106.947 76.0243 107.438 76.3622 107.933 76.6687L106.943 77.5409C106.566 77.1401 106.181 76.7354 105.788 76.3268C105.403 75.9103 105.014 75.5135 104.621 75.1363C104.103 75.6864 103.537 76.1932 102.924 76.6569C102.311 77.1126 101.666 77.5291 100.991 77.9063L100.637 77.4584C101.171 77.1126 101.682 76.7237 102.169 76.2915C102.664 75.8514 103.112 75.3956 103.513 74.9241C103.914 74.4448 104.26 73.9576 104.55 73.4625C104.849 72.9596 105.069 72.4724 105.211 72.0009C105.093 72.0009 104.955 72.0048 104.798 72.0127C104.641 72.0205 104.48 72.0284 104.315 72.0362C104.15 72.0441 103.989 72.052 103.831 72.0598C103.674 72.0677 103.541 72.0716 103.431 72.0716C103.344 72.0716 103.226 72.0795 103.077 72.0952C102.936 72.1109 102.778 72.1266 102.606 72.1423C102.441 72.158 102.272 72.1777 102.099 72.2013C101.934 72.2248 101.784 72.2445 101.651 72.2602L100.932 71.1404C101.034 71.1561 101.171 71.1758 101.344 71.1994C101.517 71.2229 101.702 71.2465 101.898 71.2701C102.095 71.2858 102.283 71.3015 102.464 71.3172C102.653 71.3329 102.814 71.3408 102.947 71.3408C103.23 71.3408 103.533 71.3369 103.855 71.329C104.177 71.3133 104.495 71.2936 104.81 71.2701C105.132 71.2465 105.438 71.2151 105.729 71.1758C106.02 71.1365 106.279 71.0933 106.507 71.0461L106.955 71.4587C106.546 72.5981 105.93 73.6472 105.104 74.6059ZM107.214 69.1837C107.395 69.2073 107.607 69.2387 107.851 69.278C108.094 69.3173 108.342 69.3605 108.593 69.4077C108.845 69.4548 109.085 69.4981 109.312 69.5373C109.548 69.5766 109.741 69.6081 109.89 69.6316C109.874 69.7024 109.859 69.7967 109.843 69.9145C109.835 70.0324 109.823 70.1503 109.808 70.2682C109.792 70.386 109.78 70.4921 109.772 70.5864C109.764 70.6729 109.76 70.72 109.76 70.7279V77.1991C109.76 77.4427 109.753 77.7256 109.737 78.0478C109.729 78.3621 109.713 78.6803 109.69 79.0025C109.666 79.3247 109.639 79.6312 109.607 79.9219C109.584 80.2127 109.556 80.4445 109.525 80.6174L108.546 80.7588C108.523 80.6331 108.503 80.4602 108.487 80.2402C108.472 80.028 108.456 79.7962 108.44 79.5448C108.432 79.2933 108.425 79.0379 108.417 78.7786C108.417 78.5193 108.417 78.2757 108.417 78.0478V70.6807C108.417 70.4528 108.299 70.2682 108.063 70.1267C107.835 69.9774 107.462 69.836 106.943 69.7024L107.214 69.1837ZM117.77 75.3838C117.77 75.5646 117.762 75.7414 117.747 75.9143C117.731 76.0871 117.711 76.2522 117.688 76.4093C118.002 76.4565 118.289 76.5429 118.548 76.6687C118.815 76.7944 119.043 76.9515 119.232 77.1401C119.42 77.3209 119.566 77.5252 119.668 77.7531C119.778 77.981 119.833 78.2246 119.833 78.4839C119.833 78.7825 119.762 79.0615 119.621 79.3208C119.487 79.5801 119.295 79.8041 119.043 79.9927C118.8 80.1813 118.509 80.3306 118.171 80.4406C117.833 80.5506 117.464 80.6056 117.063 80.6056C116.662 80.6056 116.293 80.5506 115.955 80.4406C115.617 80.3306 115.326 80.1813 115.083 79.9927C114.847 79.8041 114.658 79.5801 114.517 79.3208C114.383 79.0615 114.316 78.7825 114.316 78.4839C114.316 78.2246 114.368 77.981 114.47 77.7531C114.572 77.5173 114.713 77.3091 114.894 77.1284C115.083 76.9476 115.307 76.7944 115.566 76.6687C115.825 76.5429 116.116 76.4526 116.438 76.3975C116.43 76.2482 116.422 76.095 116.415 75.9378C116.415 75.7807 116.415 75.6471 116.415 75.5371V75.3838C116.108 75.3917 115.809 75.3996 115.519 75.4074C115.236 75.4153 114.969 75.4271 114.717 75.4428C114.466 75.4506 114.242 75.4585 114.045 75.4663C113.857 75.4742 113.703 75.4821 113.586 75.4899C113.444 75.4978 113.287 75.5096 113.114 75.5253C112.949 75.541 112.78 75.5567 112.607 75.5724C112.434 75.5882 112.262 75.6039 112.089 75.6196C111.924 75.6353 111.774 75.651 111.641 75.6667L111.169 74.4998C111.523 74.5391 111.924 74.5784 112.372 74.6177C112.819 74.6491 113.22 74.6727 113.574 74.6884C113.762 74.6962 114.01 74.7002 114.316 74.7002C114.623 74.7002 114.957 74.7002 115.318 74.7002C115.688 74.6923 116.069 74.6845 116.462 74.6766C116.862 74.6609 117.244 74.6491 117.605 74.6412C117.974 74.6334 118.312 74.6255 118.619 74.6177C118.925 74.6019 119.173 74.5902 119.361 74.5823C119.621 74.5744 119.892 74.5587 120.175 74.5352C120.458 74.5116 120.737 74.488 121.012 74.4644C121.295 74.433 121.566 74.4016 121.825 74.3701C122.084 74.3387 122.324 74.3073 122.544 74.2758L122.355 75.3956C122.198 75.3878 122.01 75.3799 121.79 75.3721C121.577 75.3642 121.346 75.3603 121.094 75.3603C120.843 75.3524 120.583 75.3445 120.316 75.3367C120.049 75.3288 119.786 75.3249 119.526 75.3249C119.33 75.3249 119.082 75.3288 118.784 75.3367C118.485 75.3367 118.147 75.3445 117.77 75.3603V75.3838ZM118.796 73.7336C118.521 73.7258 118.226 73.7258 117.912 73.7336C117.597 73.7336 117.275 73.7375 116.945 73.7454C116.623 73.7454 116.297 73.7533 115.967 73.769C115.644 73.7768 115.338 73.7847 115.047 73.7926C115.039 73.8476 115.028 73.9026 115.012 73.9576C114.996 74.0047 114.98 74.0519 114.965 74.099L114.022 74.2405C114.006 74.1619 113.99 74.0676 113.975 73.9576C113.967 73.8476 113.955 73.7336 113.939 73.6157C113.924 73.49 113.912 73.3682 113.904 73.2503C113.896 73.1246 113.892 73.0107 113.892 72.9085V70.9872C113.892 70.8772 113.88 70.7829 113.857 70.7043C113.833 70.6178 113.786 70.5432 113.715 70.4803C113.645 70.4175 113.546 70.3625 113.421 70.3153C113.295 70.2682 113.13 70.221 112.926 70.1739L113.138 69.6788C113.271 69.6945 113.432 69.7142 113.621 69.7377C113.81 69.7534 114.002 69.777 114.199 69.8085C114.403 69.8399 114.603 69.8752 114.8 69.9145C114.996 69.946 115.169 69.9774 115.318 70.0088C115.303 70.0796 115.287 70.166 115.271 70.2682C115.255 70.3703 115.24 70.4725 115.224 70.5746C115.216 70.6768 115.208 70.7671 115.2 70.8457C115.193 70.9243 115.189 70.9793 115.189 71.0108V71.1051C115.456 71.0972 115.735 71.0893 116.026 71.0815C116.324 71.0658 116.627 71.054 116.933 71.0461C117.24 71.0304 117.546 71.0147 117.853 70.999C118.159 70.9832 118.454 70.9636 118.737 70.94V70.61C118.737 70.4921 118.721 70.3939 118.69 70.3153C118.666 70.2289 118.615 70.1542 118.536 70.0913C118.458 70.0285 118.344 69.9735 118.194 69.9263C118.053 69.8713 117.868 69.8163 117.64 69.7613L117.888 69.2544C118.053 69.2702 118.234 69.2937 118.43 69.3252C118.635 69.3487 118.843 69.3762 119.055 69.4077C119.267 69.4391 119.471 69.4705 119.668 69.502C119.864 69.5334 120.041 69.5609 120.198 69.5845C120.183 69.6552 120.167 69.7456 120.151 69.8556C120.135 69.9578 120.12 70.0638 120.104 70.1739C120.096 70.276 120.088 70.3703 120.08 70.4568C120.073 70.5432 120.069 70.5982 120.069 70.6218V72.2013C120.069 72.6256 120.037 72.9792 119.974 73.2621C119.919 73.5372 119.872 73.7651 119.833 73.9458L118.843 74.1108C118.835 74.0558 118.827 73.9969 118.819 73.934C118.819 73.8633 118.811 73.7965 118.796 73.7336ZM118.477 78.4367C118.477 78.2403 118.438 78.0556 118.359 77.8827C118.281 77.7099 118.175 77.5645 118.041 77.4466C117.915 77.3209 117.766 77.2227 117.593 77.1519C117.428 77.0812 117.251 77.0458 117.063 77.0458C116.874 77.0458 116.697 77.0812 116.532 77.1519C116.367 77.2227 116.222 77.3209 116.096 77.4466C115.971 77.5645 115.868 77.7099 115.79 77.8827C115.719 78.0556 115.684 78.2403 115.684 78.4367C115.684 78.6411 115.719 78.8297 115.79 79.0025C115.868 79.1676 115.971 79.309 116.096 79.4269C116.222 79.5526 116.367 79.6469 116.532 79.7098C116.697 79.7805 116.874 79.8159 117.063 79.8159C117.251 79.8159 117.432 79.7805 117.605 79.7098C117.778 79.6469 117.927 79.5526 118.053 79.4269C118.187 79.309 118.289 79.1676 118.359 79.0025C118.438 78.8297 118.477 78.6411 118.477 78.4367ZM118.737 71.7769C118.194 71.7612 117.609 71.7573 116.98 71.7651C116.36 71.773 115.762 71.7966 115.189 71.8359V72.3899C115.189 72.5235 115.189 72.6492 115.189 72.7671C115.189 72.8771 115.181 72.9832 115.165 73.0853C115.432 73.0775 115.715 73.0696 116.014 73.0617C116.32 73.0539 116.627 73.046 116.933 73.0382C117.248 73.0225 117.558 73.0107 117.864 73.0028C118.171 72.9871 118.462 72.9714 118.737 72.9557V71.7769ZM130.371 70.7514C130.89 70.8379 131.33 71.0265 131.691 71.3172C132.053 71.6001 132.296 71.9419 132.422 72.3427C132.556 72.3584 132.685 72.3702 132.811 72.3781C132.937 72.3859 133.047 72.3899 133.141 72.3899C133.251 72.3899 133.408 72.3859 133.613 72.3781C133.825 72.3702 134.037 72.3663 134.249 72.3663V70.6925C134.249 70.4646 134.135 70.276 133.907 70.1267C133.679 69.9774 133.302 69.836 132.776 69.7024C132.823 69.6159 132.87 69.5295 132.917 69.443C132.964 69.3566 133.008 69.2702 133.047 69.1837C133.228 69.2073 133.44 69.2387 133.683 69.278C133.935 69.3173 134.186 69.3605 134.438 69.4077C134.689 69.4548 134.929 69.4981 135.157 69.5373C135.393 69.5766 135.585 69.6081 135.734 69.6316C135.719 69.7024 135.703 69.7967 135.687 69.9145C135.679 70.0324 135.668 70.1503 135.652 70.2682C135.636 70.386 135.624 70.4921 135.617 70.5864C135.609 70.6729 135.605 70.72 135.605 70.7279V73.4861C135.605 73.6275 135.597 73.7965 135.581 73.9929C135.565 74.1815 135.546 74.3741 135.522 74.5705C135.499 74.7591 135.471 74.9398 135.44 75.1127C135.416 75.2856 135.393 75.4192 135.369 75.5135C135.204 75.5292 135.039 75.5528 134.874 75.5842C134.709 75.6078 134.544 75.6314 134.379 75.6549C134.363 75.5764 134.347 75.4703 134.332 75.3367C134.316 75.2031 134.3 75.0656 134.285 74.9241C134.277 74.7748 134.269 74.6295 134.261 74.488C134.253 74.3466 134.249 74.2248 134.249 74.1226V73.0971C133.974 73.1128 133.664 73.1325 133.318 73.156C132.98 73.1796 132.685 73.211 132.434 73.2503C132.442 73.2582 132.446 73.2661 132.446 73.2739C132.399 73.5332 132.296 73.7729 132.139 73.9929C131.982 74.213 131.782 74.4055 131.538 74.5705C131.302 74.7277 131.027 74.8534 130.713 74.9477C130.407 75.0341 130.077 75.0774 129.723 75.0774C129.322 75.0774 128.949 75.0224 128.603 74.9123C128.265 74.7945 127.971 74.6373 127.719 74.4409C127.475 74.2444 127.283 74.0126 127.141 73.7454C127.008 73.4782 126.941 73.1914 126.941 72.8849C126.941 72.602 126.996 72.3388 127.106 72.0952C127.224 71.8516 127.385 71.6355 127.589 71.4469C127.794 71.2583 128.037 71.1011 128.32 70.9754C128.603 70.8497 128.913 70.7671 129.251 70.7279C129.244 70.6414 129.204 70.5707 129.134 70.5157C129.063 70.4528 128.933 70.39 128.745 70.3271C128.792 70.2564 128.835 70.1896 128.874 70.1267C128.913 70.056 128.957 69.9813 129.004 69.9027C129.09 69.9185 129.2 69.942 129.334 69.9735C129.475 70.0049 129.617 70.0363 129.758 70.0678C129.908 70.0992 130.049 70.1306 130.183 70.1621C130.316 70.1856 130.43 70.2092 130.524 70.2328C130.509 70.2878 130.481 70.3625 130.442 70.4568C130.41 70.5432 130.387 70.6414 130.371 70.7514ZM131.043 80.0516C130.815 80.0516 130.564 80.0516 130.289 80.0516C130.021 80.0516 129.766 80.0595 129.523 80.0752C129.515 80.1459 129.507 80.2127 129.499 80.2756C129.491 80.3384 129.479 80.4013 129.464 80.4642C129.306 80.5035 129.149 80.531 128.992 80.5467C128.843 80.5702 128.69 80.5977 128.532 80.6292C128.517 80.472 128.497 80.2638 128.473 80.0045C128.45 79.753 128.438 79.5172 128.438 79.2972V77.1991C128.438 77.0812 128.426 76.983 128.403 76.9044C128.387 76.818 128.348 76.7472 128.285 76.6922C128.222 76.6294 128.132 76.5744 128.014 76.5272C127.904 76.4801 127.754 76.4329 127.566 76.3858C127.597 76.2993 127.629 76.2168 127.66 76.1382C127.692 76.0518 127.723 75.9653 127.754 75.8789C127.99 75.9182 128.269 75.9536 128.591 75.985C128.921 76.0164 129.314 76.0911 129.77 76.2089C129.746 76.3583 129.723 76.5233 129.699 76.704C129.684 76.8848 129.676 77.0537 129.676 77.2109V77.2934C129.88 77.2934 130.1 77.2816 130.336 77.258C130.572 77.2344 130.799 77.2148 131.019 77.1991V76.7747C131.019 76.6647 131.004 76.5704 130.972 76.4918C130.949 76.4133 130.898 76.3425 130.819 76.2797C130.748 76.2168 130.65 76.1618 130.524 76.1146C130.399 76.0675 130.238 76.0164 130.041 75.9614C130.073 75.875 130.1 75.7925 130.124 75.7139C130.155 75.6274 130.187 75.541 130.218 75.4546C130.359 75.4703 130.524 75.4899 130.713 75.5135C130.902 75.5371 131.094 75.5646 131.291 75.596C131.495 75.6274 131.691 75.6628 131.88 75.7021C132.069 75.7335 132.234 75.765 132.375 75.7964C132.359 75.8671 132.344 75.9614 132.328 76.0793C132.32 76.1893 132.308 76.2954 132.293 76.3975C132.285 76.4997 132.277 76.5901 132.269 76.6687C132.261 76.7472 132.257 76.7865 132.257 76.7865V78.6607C132.257 78.8886 132.245 79.144 132.222 79.4269C132.387 79.2068 132.548 78.975 132.705 78.7314C132.862 78.4878 133.008 78.2442 133.141 78.0006C133.275 77.757 133.393 77.5173 133.495 77.2816C133.605 77.0458 133.687 76.8258 133.742 76.6215C133.75 76.5822 133.754 76.5233 133.754 76.4447C133.754 76.3425 133.691 76.2404 133.566 76.1382C133.44 76.0361 133.283 75.93 133.094 75.82C133.141 75.7571 133.184 75.6942 133.224 75.6314C133.271 75.5685 133.322 75.5056 133.377 75.4428C133.471 75.4585 133.605 75.486 133.778 75.5253C133.958 75.5646 134.147 75.6078 134.344 75.6549C134.54 75.7021 134.729 75.7532 134.909 75.8082C135.09 75.8553 135.235 75.8985 135.345 75.9378C135.267 76.2443 135.161 76.5429 135.027 76.8337C134.901 77.1244 134.76 77.4073 134.603 77.6824C134.776 77.8631 134.964 78.0517 135.169 78.2481C135.381 78.4446 135.593 78.6371 135.805 78.8257C136.017 79.0143 136.226 79.1911 136.43 79.3562C136.634 79.529 136.827 79.6744 137.007 79.7923C136.835 79.9259 136.662 80.0555 136.489 80.1813C136.316 80.307 136.143 80.4367 135.97 80.5702C135.672 80.1931 135.369 79.8237 135.063 79.4622C134.756 79.1008 134.454 78.7314 134.155 78.3542C133.801 78.8336 133.424 79.2697 133.023 79.6626C132.63 80.0634 132.234 80.4052 131.833 80.6881C131.77 80.641 131.711 80.5977 131.656 80.5585C131.601 80.5192 131.546 80.472 131.491 80.417C131.42 80.4327 131.357 80.4445 131.302 80.4524C131.247 80.4602 131.181 80.472 131.102 80.4877C131.094 80.4249 131.082 80.3581 131.067 80.2873C131.059 80.2166 131.051 80.138 131.043 80.0516ZM131.137 72.8378C131.137 72.6256 131.098 72.4292 131.019 72.2484C130.949 72.0598 130.851 71.8987 130.725 71.7651C130.599 71.6237 130.45 71.5176 130.277 71.4469C130.112 71.3683 129.935 71.329 129.746 71.329C129.542 71.329 129.354 71.3683 129.181 71.4469C129.008 71.5176 128.858 71.6237 128.733 71.7651C128.607 71.8987 128.505 72.0598 128.426 72.2484C128.356 72.4292 128.32 72.6256 128.32 72.8378C128.32 73.05 128.356 73.2464 128.426 73.4271C128.505 73.6079 128.607 73.7611 128.733 73.8869C128.858 74.0126 129.008 74.1108 129.181 74.1815C129.354 74.2523 129.542 74.2876 129.746 74.2876C129.935 74.2876 130.112 74.2523 130.277 74.1815C130.45 74.1108 130.599 74.0126 130.725 73.8869C130.851 73.7611 130.949 73.6079 131.019 73.4271C131.098 73.2464 131.137 73.05 131.137 72.8378ZM131.019 77.9653C130.815 77.9653 130.595 77.977 130.359 78.0006C130.124 78.0163 129.896 78.032 129.676 78.0478V78.8139C129.676 78.924 129.676 79.0261 129.676 79.1204C129.676 79.2068 129.668 79.2854 129.652 79.3562C129.88 79.3483 130.108 79.3365 130.336 79.3208C130.572 79.3129 130.799 79.3011 131.019 79.2854V77.9653ZM146.432 73.8161C145.96 73.7926 145.445 73.7808 144.887 73.7808C144.33 73.7808 143.772 73.7847 143.214 73.7926C142.664 73.8004 142.137 73.8161 141.634 73.8397C141.139 73.8554 140.719 73.8711 140.373 73.8869C140.051 73.9026 139.823 73.8201 139.689 73.6393C139.556 73.4586 139.489 73.2503 139.489 73.0146V71.2583C139.489 71.109 139.473 70.9872 139.442 70.8929C139.418 70.7907 139.363 70.7043 139.277 70.6336C139.198 70.5628 139.084 70.5039 138.935 70.4568C138.786 70.4017 138.589 70.3467 138.346 70.2917L138.605 69.7495C138.707 69.7652 138.86 69.7888 139.065 69.8202C139.277 69.8438 139.497 69.8713 139.725 69.9027C139.96 69.9263 140.184 69.9538 140.397 69.9853C140.617 70.0167 140.789 70.0403 140.915 70.056C140.915 70.1031 140.907 70.166 140.892 70.2446C140.884 70.3232 140.872 70.4096 140.856 70.5039C140.848 70.5982 140.84 70.6925 140.833 70.7868C140.825 70.8732 140.821 70.9518 140.821 71.0225V72.7435C140.821 72.9949 140.919 73.1246 141.116 73.1325C141.406 73.1325 141.787 73.1246 142.259 73.1089C142.73 73.0853 143.225 73.0578 143.744 73.0264C144.271 72.9871 144.785 72.9439 145.288 72.8967C145.799 72.8496 146.235 72.7985 146.597 72.7435L146.432 73.8161ZM148.188 75.9732C148.031 75.9653 147.842 75.9575 147.622 75.9496C147.402 75.9418 147.166 75.9339 146.915 75.9261C146.663 75.9182 146.404 75.9103 146.137 75.9025C145.87 75.8946 145.61 75.8907 145.359 75.8907C145.139 75.8907 144.86 75.8907 144.522 75.8907C144.192 75.8907 143.831 75.8985 143.438 75.9143C143.053 75.9221 142.656 75.9339 142.247 75.9496C141.838 75.9575 141.45 75.9693 141.08 75.985C140.711 76.0007 140.377 76.0164 140.078 76.0321C139.787 76.0479 139.567 76.0636 139.418 76.0793C139.277 76.0871 139.12 76.0989 138.947 76.1146C138.782 76.1304 138.613 76.1461 138.44 76.1618C138.267 76.1775 138.094 76.1932 137.921 76.2089C137.756 76.2247 137.607 76.2404 137.473 76.2561L137.002 75.0892C137.175 75.1127 137.363 75.1363 137.568 75.1599C137.78 75.1756 137.992 75.1952 138.204 75.2188C138.416 75.2345 138.624 75.2502 138.829 75.266C139.041 75.2738 139.233 75.2778 139.406 75.2778C139.595 75.2856 139.843 75.2895 140.149 75.2895C140.455 75.2895 140.789 75.2895 141.151 75.2895C141.52 75.2817 141.901 75.2738 142.294 75.266C142.695 75.2502 143.076 75.2385 143.438 75.2306C143.807 75.2227 144.145 75.2149 144.451 75.207C144.758 75.1913 145.005 75.1795 145.194 75.1717C145.453 75.1638 145.72 75.1481 145.995 75.1245C146.278 75.1009 146.557 75.0774 146.832 75.0538C147.115 75.0224 147.386 74.9909 147.646 74.9595C147.913 74.9281 148.156 74.8966 148.377 74.8652L148.188 75.9732ZM146.762 80.2402C146.29 80.2088 145.768 80.1891 145.194 80.1813C144.628 80.1734 144.066 80.1695 143.508 80.1695C142.95 80.1773 142.416 80.1891 141.905 80.2048C141.402 80.2206 140.978 80.2363 140.632 80.252C140.31 80.2677 140.082 80.2048 139.949 80.0634C139.823 79.9219 139.76 79.7609 139.76 79.5801V78.2481C139.76 78.0831 139.752 77.9535 139.736 77.8592C139.721 77.757 139.677 77.6745 139.607 77.6116C139.544 77.5409 139.442 77.482 139.3 77.4348C139.159 77.3877 138.966 77.3327 138.723 77.2698L138.947 76.7394C139.065 76.7551 139.222 76.7787 139.418 76.8101C139.622 76.8337 139.831 76.8612 140.043 76.8926C140.263 76.9162 140.475 76.9437 140.679 76.9751C140.884 77.0066 141.045 77.0301 141.163 77.0458C141.155 77.1401 141.139 77.2894 141.116 77.4938C141.1 77.6902 141.092 77.8592 141.092 78.0006V79.2029C141.092 79.3365 141.104 79.4151 141.127 79.4387C141.151 79.4622 141.222 79.478 141.339 79.4858C141.536 79.4858 141.78 79.4819 142.07 79.474C142.361 79.474 142.675 79.4662 143.013 79.4505C143.351 79.4347 143.705 79.4151 144.074 79.3915C144.443 79.3758 144.801 79.3562 145.147 79.3326C145.5 79.309 145.83 79.2815 146.137 79.2501C146.451 79.2265 146.718 79.199 146.938 79.1676L146.762 80.2402ZM156.286 74.6059C156.703 74.9281 157.155 75.2778 157.642 75.6549C158.137 76.0243 158.628 76.3622 159.115 76.6687L158.137 77.5409C157.76 77.1401 157.375 76.7354 156.982 76.3268C156.597 75.9103 156.208 75.5135 155.815 75.1363C155.296 75.6785 154.726 76.1814 154.106 76.6451C153.493 77.1009 152.852 77.5213 152.184 77.9063L151.831 77.4584C152.365 77.1126 152.876 76.7237 153.363 76.2915C153.858 75.8514 154.306 75.3956 154.707 74.9241C155.108 74.4448 155.453 73.9576 155.744 73.4625C156.043 72.9596 156.263 72.4724 156.404 72.0009C156.286 72.0009 156.149 72.0048 155.992 72.0127C155.834 72.0205 155.673 72.0284 155.508 72.0362C155.343 72.0441 155.182 72.052 155.025 72.0598C154.868 72.0677 154.734 72.0716 154.624 72.0716C154.538 72.0716 154.42 72.0795 154.271 72.0952C154.129 72.1109 153.972 72.1266 153.799 72.1423C153.634 72.158 153.465 72.1777 153.292 72.2013C153.127 72.2248 152.978 72.2445 152.844 72.2602L152.125 71.1404C152.228 71.1561 152.365 71.1758 152.538 71.1994C152.711 71.2229 152.892 71.2465 153.08 71.2701C153.277 71.2858 153.469 71.3015 153.658 71.3172C153.846 71.3329 154.007 71.3408 154.141 71.3408C154.424 71.3408 154.726 71.3369 155.049 71.329C155.371 71.3133 155.689 71.2936 156.003 71.2701C156.326 71.2465 156.632 71.2151 156.923 71.1758C157.214 71.1365 157.473 71.0933 157.701 71.0461L158.149 71.4587C157.944 72.0402 157.685 72.5903 157.371 73.1089C157.056 73.6275 156.695 74.1265 156.286 74.6059ZM160.671 77.1991C160.671 77.4427 160.667 77.7256 160.659 78.0478C160.651 78.3621 160.64 78.6803 160.624 79.0025C160.608 79.3247 160.589 79.6312 160.565 79.9219C160.541 80.2127 160.518 80.4445 160.494 80.6174L159.457 80.7588C159.441 80.6331 159.426 80.4602 159.41 80.2402C159.402 80.028 159.39 79.7962 159.375 79.5448C159.367 79.2933 159.359 79.0379 159.351 78.7786C159.343 78.5193 159.339 78.2757 159.339 78.0478V70.6807C159.339 70.4528 159.229 70.2682 159.009 70.1267C158.797 69.9774 158.432 69.836 157.913 69.7024L158.113 69.1837C158.31 69.2073 158.534 69.2387 158.785 69.278C159.044 69.3173 159.296 69.3605 159.54 69.4077C159.791 69.4548 160.027 69.4981 160.247 69.5373C160.475 69.5766 160.659 69.6081 160.801 69.6316C160.785 69.7024 160.769 69.7967 160.754 69.9145C160.738 70.0324 160.722 70.1503 160.706 70.2682C160.699 70.386 160.691 70.4921 160.683 70.5864C160.675 70.6729 160.671 70.72 160.671 70.7279V74.0637C160.844 74.0479 161.037 74.0283 161.249 74.0047C161.461 73.9812 161.669 73.9576 161.873 73.934C162.086 73.9104 162.29 73.8869 162.486 73.8633C162.683 73.8318 162.856 73.7965 163.005 73.7572L162.911 74.8534C162.785 74.8456 162.628 74.8416 162.439 74.8416C162.258 74.8416 162.066 74.8416 161.862 74.8416C161.657 74.8416 161.449 74.8416 161.237 74.8416C161.033 74.8416 160.844 74.8416 160.671 74.8416V77.1991ZM167.408 71.1051C167.738 71.1522 168.036 71.2426 168.304 71.3762C168.571 71.5097 168.799 71.6748 168.987 71.8712C169.176 72.0677 169.321 72.2877 169.423 72.5313C169.526 72.7749 169.577 73.0342 169.577 73.3093C169.577 73.6236 169.522 73.9065 169.412 74.158C169.616 74.1737 169.82 74.1894 170.025 74.2051C170.229 74.2208 170.398 74.2287 170.531 74.2287C170.618 74.2287 170.724 74.2287 170.85 74.2287C170.975 74.2287 171.117 74.2248 171.274 74.2169V72.2602C170.944 72.2759 170.614 72.3034 170.284 72.3427C169.962 72.382 169.698 72.4292 169.494 72.4842L168.893 71.4587C168.972 71.4744 169.082 71.4901 169.223 71.5058C169.372 71.5215 169.529 71.5373 169.695 71.553C169.86 71.5608 170.021 71.5687 170.178 71.5765C170.343 71.5765 170.484 71.5765 170.602 71.5765C170.681 71.5687 170.775 71.5648 170.885 71.5648C171.003 71.5569 171.133 71.5569 171.274 71.5648V70.6807C171.274 70.4528 171.156 70.2682 170.92 70.1267C170.693 69.9774 170.319 69.836 169.801 69.7024L170.072 69.1837C170.252 69.2073 170.465 69.2387 170.708 69.278C170.952 69.3173 171.199 69.3605 171.451 69.4077C171.702 69.4548 171.942 69.4981 172.17 69.5373C172.406 69.5766 172.602 69.6081 172.759 69.6316C172.744 69.7024 172.728 69.7967 172.712 69.9145C172.696 70.0324 172.681 70.1503 172.665 70.2682C172.649 70.386 172.633 70.4921 172.618 70.5864C172.61 70.6729 172.606 70.72 172.606 70.7279V75.5135C172.606 75.6942 172.598 75.8907 172.582 76.1029C172.575 76.3072 172.559 76.5154 172.535 76.7276C172.52 76.9398 172.496 77.1401 172.465 77.3287C172.441 77.5173 172.417 77.6784 172.394 77.812L171.368 77.977C171.353 77.8827 171.341 77.7492 171.333 77.5763C171.325 77.4034 171.313 77.2187 171.298 77.0223C171.29 76.818 171.282 76.6176 171.274 76.4211C171.274 76.2168 171.274 76.0439 171.274 75.9025V74.8888C170.936 74.9045 170.586 74.9359 170.225 74.9831C169.863 75.0224 169.569 75.0774 169.341 75.1481L169.105 74.653C168.854 74.9281 168.528 75.152 168.127 75.3249C167.734 75.4978 167.29 75.5842 166.795 75.5842C166.386 75.5842 166.009 75.5253 165.663 75.4074C165.318 75.2895 165.019 75.1284 164.767 74.9241C164.524 74.7198 164.331 74.4801 164.19 74.2051C164.056 73.9301 163.989 73.6315 163.989 73.3093C163.989 73.0264 164.044 72.7592 164.154 72.5077C164.265 72.2563 164.422 72.0323 164.626 71.8359C164.83 71.6316 165.074 71.4665 165.357 71.3408C165.648 71.2072 165.966 71.1208 166.312 71.0815C166.296 70.9793 166.253 70.9007 166.182 70.8457C166.111 70.7829 165.985 70.7239 165.805 70.6689L166.052 70.2446C166.139 70.2603 166.249 70.2839 166.382 70.3153C166.524 70.3467 166.665 70.3782 166.807 70.4096C166.956 70.441 167.097 70.4725 167.231 70.5039C167.372 70.5353 167.49 70.5628 167.585 70.5864C167.569 70.6414 167.541 70.7121 167.502 70.7986C167.471 70.885 167.439 70.9872 167.408 71.1051ZM168.209 73.2503C168.209 73.0303 168.17 72.8299 168.091 72.6492C168.021 72.4606 167.919 72.2995 167.785 72.1659C167.659 72.0245 167.51 71.9144 167.337 71.8359C167.172 71.7573 166.995 71.718 166.807 71.718C166.602 71.718 166.414 71.7573 166.241 71.8359C166.068 71.9144 165.915 72.0245 165.781 72.1659C165.655 72.2995 165.553 72.4606 165.475 72.6492C165.404 72.8299 165.369 73.0303 165.369 73.2503C165.369 73.4861 165.404 73.6983 165.475 73.8869C165.553 74.0754 165.655 74.2365 165.781 74.3701C165.915 74.5037 166.068 74.6098 166.241 74.6884C166.414 74.7591 166.602 74.7945 166.807 74.7945C166.995 74.7945 167.176 74.7591 167.349 74.6884C167.522 74.6098 167.671 74.5037 167.797 74.3701C167.922 74.2365 168.021 74.0754 168.091 73.8869C168.17 73.6983 168.209 73.4861 168.209 73.2503ZM173.207 80.1931C172.736 80.1852 172.248 80.1813 171.746 80.1813C171.25 80.1813 170.763 80.1852 170.284 80.1931C169.812 80.2009 169.357 80.2127 168.917 80.2284C168.484 80.2441 168.095 80.2638 167.75 80.2873C167.42 80.3109 167.188 80.2481 167.054 80.0988C166.921 79.9573 166.854 79.7962 166.854 79.6155V78.1421C166.854 77.977 166.846 77.8474 166.83 77.7531C166.814 77.6509 166.771 77.5684 166.701 77.5055C166.63 77.4348 166.524 77.3759 166.382 77.3287C166.241 77.2816 166.044 77.2266 165.793 77.1637L166.064 76.6333C166.182 76.649 166.339 76.6687 166.536 76.6922C166.74 76.7158 166.952 76.7433 167.172 76.7747C167.392 76.8062 167.604 76.8376 167.809 76.869C168.013 76.8926 168.174 76.9162 168.292 76.9398C168.284 76.9869 168.276 77.0498 168.268 77.1284C168.26 77.2069 168.253 77.2934 168.245 77.3877C168.237 77.4741 168.229 77.5606 168.221 77.647C168.213 77.7334 168.209 77.812 168.209 77.8827V79.2383C168.209 79.3719 168.221 79.4505 168.245 79.474C168.268 79.4976 168.335 79.5133 168.445 79.5212C168.736 79.529 169.093 79.5212 169.518 79.4976C169.95 79.474 170.394 79.4426 170.85 79.4033C171.313 79.3719 171.765 79.3326 172.205 79.2854C172.653 79.2383 173.046 79.1911 173.384 79.144L173.207 80.1931ZM185.29 72.7199C185.423 72.7042 185.584 72.6885 185.773 72.6728C185.961 72.657 186.119 72.6413 186.244 72.6256V70.6925C186.244 70.5746 186.225 70.4685 186.185 70.3742C186.146 70.2799 186.079 70.1935 185.985 70.1149C185.891 70.0363 185.757 69.9656 185.584 69.9027C185.419 69.832 185.207 69.7652 184.948 69.7024C184.987 69.6159 185.026 69.5295 185.066 69.443C185.105 69.3566 185.144 69.2702 185.184 69.1837C185.372 69.2073 185.58 69.2427 185.808 69.2898C186.044 69.3291 186.276 69.3723 186.504 69.4195C186.732 69.4666 186.948 69.5138 187.152 69.5609C187.364 69.6002 187.541 69.6316 187.682 69.6552C187.675 69.7259 187.663 69.8202 187.647 69.9381C187.639 70.056 187.631 70.1699 187.623 70.2799C187.616 70.39 187.608 70.4921 187.6 70.5864C187.592 70.6729 187.588 70.72 187.588 70.7279V72.7788C187.588 72.991 187.58 73.215 187.565 73.4507C187.557 73.6865 187.545 73.9222 187.529 74.158C187.513 74.3858 187.49 74.6059 187.458 74.818C187.435 75.0224 187.407 75.1992 187.376 75.3485C187.203 75.3721 187.03 75.3996 186.857 75.431C186.684 75.4546 186.508 75.4742 186.327 75.4899C186.311 75.3642 186.295 75.2227 186.28 75.0656C186.272 74.9006 186.264 74.7355 186.256 74.5705C186.256 74.4055 186.252 74.2444 186.244 74.0872C186.244 73.9222 186.244 73.7729 186.244 73.6393V73.3918C186.111 73.3996 185.95 73.4075 185.761 73.4154C185.572 73.4232 185.415 73.435 185.29 73.4507V73.4389C185.29 73.7847 185.27 74.1265 185.231 74.4644C185.199 74.8023 185.156 75.1363 185.101 75.4663C184.928 75.4899 184.763 75.5096 184.606 75.5253C184.449 75.541 184.284 75.5606 184.111 75.5842C184.095 75.5214 184.079 75.431 184.064 75.3131C184.056 75.1952 184.044 75.0656 184.028 74.9241C184.013 74.7827 184.001 74.6412 183.993 74.4998C183.985 74.3505 183.981 74.209 183.981 74.0754V71.1286C183.981 71.0186 183.965 70.9204 183.934 70.8339C183.91 70.7475 183.855 70.6689 183.769 70.5982C183.683 70.5196 183.561 70.4489 183.404 70.386C183.246 70.3232 183.042 70.2603 182.791 70.1974C182.838 70.111 182.877 70.0285 182.909 69.9499C182.948 69.8713 182.991 69.7888 183.038 69.7024C183.235 69.7259 183.443 69.7574 183.663 69.7967C183.883 69.8281 184.099 69.8635 184.311 69.9027C184.523 69.942 184.724 69.9853 184.912 70.0324C185.109 70.0717 185.278 70.111 185.419 70.1503C185.404 70.221 185.388 70.3153 185.372 70.4332C185.364 70.5432 185.352 70.6571 185.337 70.775C185.321 70.885 185.309 70.9832 185.301 71.0697C185.294 71.1561 185.29 71.2033 185.29 71.2111V72.7199ZM183.109 70.61C183.188 70.6807 183.258 70.7514 183.321 70.8222C183.392 70.885 183.466 70.9518 183.545 71.0225C183.317 71.6669 183.038 72.2445 182.708 72.7553C182.386 73.2661 182.013 73.7375 181.588 74.1697C181.172 74.6019 180.704 75.0066 180.186 75.3838C179.675 75.761 179.113 76.1304 178.5 76.4918C178.437 76.429 178.37 76.3661 178.3 76.3032C178.229 76.2325 178.162 76.1657 178.099 76.1029C178.555 75.7964 178.979 75.4624 179.372 75.1009C179.773 74.7316 180.135 74.3544 180.457 73.9694C180.787 73.5765 181.074 73.1796 181.317 72.7788C181.561 72.3702 181.753 71.9655 181.895 71.5648C181.494 71.5805 181.07 71.6001 180.622 71.6237C180.174 71.6473 179.64 71.7141 179.019 71.8241C178.901 71.6433 178.783 71.4626 178.665 71.2819C178.555 71.1011 178.441 70.9204 178.323 70.7396C178.465 70.7632 178.638 70.7868 178.842 70.8104C179.046 70.8261 179.254 70.8418 179.467 70.8575C179.679 70.8654 179.879 70.8732 180.068 70.8811C180.256 70.8811 180.402 70.8811 180.504 70.8811C180.74 70.8811 180.96 70.8772 181.164 70.8693C181.376 70.8614 181.584 70.8497 181.789 70.8339C181.993 70.8104 182.201 70.7829 182.413 70.7514C182.626 70.7121 182.857 70.665 183.109 70.61ZM186.044 77.6116C186.052 77.4152 186.056 77.2187 186.056 77.0223C186.064 76.8258 186.071 76.6333 186.079 76.4447C185.993 76.4447 185.903 76.4447 185.808 76.4447C185.722 76.4368 185.624 76.4329 185.514 76.4329C185.309 76.4329 185.089 76.4368 184.853 76.4447C184.626 76.4526 184.394 76.4643 184.158 76.4801C183.93 76.4879 183.71 76.4997 183.498 76.5154C183.286 76.5233 183.097 76.5351 182.932 76.5508C182.861 76.5586 182.751 76.5704 182.602 76.5861C182.461 76.594 182.303 76.6058 182.131 76.6215C181.966 76.6372 181.797 76.6569 181.624 76.6804C181.451 76.704 181.294 76.7276 181.152 76.7512C181.042 76.5704 180.932 76.3897 180.822 76.2089C180.72 76.0204 180.614 75.8357 180.504 75.6549C180.653 75.6864 180.846 75.7139 181.082 75.7375C181.325 75.761 181.569 75.7807 181.812 75.7964C182.064 75.8043 182.292 75.8121 182.496 75.82C182.7 75.8278 182.842 75.8318 182.92 75.8318C183.235 75.8318 183.592 75.8318 183.993 75.8318C184.402 75.8239 184.818 75.816 185.242 75.8082C185.667 75.7925 186.083 75.7728 186.492 75.7492C186.908 75.7257 187.282 75.6982 187.612 75.6667C187.588 75.7453 187.561 75.8593 187.529 76.0086C187.498 76.1579 187.466 76.3229 187.435 76.5036C187.403 76.6765 187.376 76.8572 187.352 77.0458C187.329 77.2266 187.305 77.3877 187.282 77.5291C187.337 77.5213 187.388 77.5173 187.435 77.5173C187.482 77.5173 187.529 77.5134 187.576 77.5055C187.561 77.6549 187.541 77.8002 187.517 77.9417C187.502 78.0831 187.486 78.2285 187.47 78.3778C187.14 78.3621 186.794 78.3542 186.433 78.3542C186.079 78.3464 185.726 78.3424 185.372 78.3424C184.783 78.3424 184.237 78.3503 183.734 78.366C183.239 78.3739 182.869 78.3817 182.626 78.3896C182.626 78.4682 182.622 78.531 182.614 78.5782C182.606 78.6175 182.602 78.6686 182.602 78.7314V79.4269C182.602 79.4976 182.602 79.5487 182.602 79.5801C182.61 79.6115 182.63 79.6312 182.661 79.639C182.692 79.6548 182.74 79.6587 182.802 79.6508C182.873 79.6508 182.967 79.6508 183.085 79.6508C183.408 79.6508 183.793 79.639 184.241 79.6155C184.688 79.5998 185.148 79.5723 185.62 79.533C186.091 79.5015 186.547 79.4622 186.987 79.4151C187.427 79.3758 187.796 79.3287 188.095 79.2736C188.056 79.4544 188.016 79.6351 187.977 79.8159C187.946 79.9966 187.91 80.1773 187.871 80.3581C187.572 80.3502 187.25 80.3424 186.904 80.3345C186.559 80.3345 186.197 80.3345 185.82 80.3345C185.466 80.3345 185.113 80.3384 184.759 80.3463C184.406 80.3541 184.064 80.362 183.734 80.3699C183.404 80.3777 183.093 80.3856 182.802 80.3934C182.512 80.4013 182.256 80.4052 182.036 80.4052C181.761 80.4052 181.569 80.3345 181.459 80.1931C181.349 80.0595 181.294 79.8905 181.294 79.6862V78.8493C181.294 78.7157 181.286 78.6096 181.27 78.531C181.254 78.4446 181.215 78.3739 181.152 78.3189C181.089 78.2639 180.999 78.2167 180.881 78.1774C180.763 78.1303 180.598 78.0753 180.386 78.0124C180.441 77.9417 180.484 77.871 180.516 77.8002C180.555 77.7217 180.598 77.647 180.645 77.5763C181.023 77.6156 181.431 77.647 181.871 77.6706C182.311 77.6863 182.767 77.6941 183.239 77.6941C183.726 77.6941 184.209 77.6863 184.688 77.6706C185.168 77.6549 185.62 77.6352 186.044 77.6116ZM193.924 71.7534C193.68 71.7376 193.39 71.7455 193.052 71.7769C192.722 71.8005 192.411 71.8241 192.121 71.8477C192.034 71.8555 191.916 71.8673 191.767 71.883C191.625 71.8909 191.472 71.9027 191.307 71.9184C191.142 71.9341 190.973 71.9498 190.8 71.9655C190.627 71.9812 190.47 72.0009 190.329 72.0245L189.669 70.9518C189.763 70.9675 189.893 70.9872 190.058 71.0108C190.231 71.0343 190.411 71.0579 190.6 71.0815C190.796 71.0972 190.985 71.1129 191.166 71.1286C191.354 71.1443 191.512 71.1522 191.637 71.1522C191.849 71.1522 192.105 71.1483 192.403 71.1404C192.71 71.1326 193.036 71.1247 193.382 71.1168C193.728 71.1011 194.077 71.0815 194.431 71.0579C194.784 71.0343 195.118 71.0068 195.433 70.9754C195.417 71.0225 195.401 71.0933 195.386 71.1876C195.37 71.274 195.354 71.3683 195.338 71.4705C195.323 71.5648 195.307 71.6591 195.291 71.7534C195.283 71.8398 195.276 71.9027 195.268 71.9419L195.056 73.6747C195.04 73.6825 195.032 73.6865 195.032 73.6865C195.032 73.6786 195.028 73.6786 195.02 73.6865L194.961 74.5705C194.498 74.5391 194.113 74.5234 193.806 74.5234C193.5 74.5155 193.232 74.5155 193.005 74.5234C192.785 74.5312 192.584 74.543 192.403 74.5587C192.231 74.5744 192.042 74.5862 191.838 74.5941C191.838 74.657 191.834 74.712 191.826 74.7591C191.826 74.7984 191.826 74.8495 191.826 74.9123V76.5626C191.826 76.7354 191.885 76.8219 192.003 76.8219C192.623 76.7747 193.303 76.6844 194.042 76.5508C194.781 76.4093 195.5 76.2286 196.199 76.0086V76.5979C195.523 76.8337 194.808 77.0537 194.054 77.258C193.307 77.4545 192.553 77.6156 191.791 77.7413C191.327 77.8199 190.993 77.7649 190.789 77.5763C190.592 77.3798 190.494 77.0891 190.494 76.704V75.0774C190.494 74.9359 190.486 74.822 190.47 74.7355C190.455 74.6491 190.415 74.5784 190.352 74.5234C190.297 74.4605 190.211 74.4055 190.093 74.3583C189.983 74.3112 189.834 74.2601 189.645 74.2051L189.905 73.7572C190.682 73.8515 191.386 73.8947 192.014 73.8869C192.651 73.8711 193.252 73.8436 193.818 73.8043L193.924 71.7534ZM197.201 74.4173C196.902 74.4487 196.592 74.4919 196.27 74.5469C195.947 74.6019 195.672 74.6491 195.445 74.6884L195.067 73.6747C195.366 73.7061 195.617 73.7297 195.822 73.7454C196.026 73.7611 196.226 73.7651 196.423 73.7572C196.509 73.7493 196.623 73.7454 196.765 73.7454C196.906 73.7375 197.052 73.7297 197.201 73.7218V70.6807C197.201 70.4528 197.087 70.2682 196.859 70.1267C196.639 69.9774 196.262 69.836 195.727 69.7024L195.999 69.1837C196.179 69.2073 196.391 69.2387 196.635 69.278C196.879 69.3173 197.126 69.3605 197.378 69.4077C197.629 69.4548 197.869 69.4981 198.097 69.5373C198.332 69.5766 198.525 69.6081 198.674 69.6316C198.659 69.7024 198.643 69.7967 198.627 69.9145C198.611 70.0324 198.596 70.1503 198.58 70.2682C198.572 70.386 198.564 70.4921 198.556 70.5864C198.549 70.6729 198.545 70.72 198.545 70.7279V77.1991C198.545 77.4427 198.537 77.7256 198.521 78.0478C198.513 78.3621 198.497 78.6803 198.474 79.0025C198.45 79.3247 198.423 79.6312 198.391 79.9219C198.368 80.2127 198.34 80.4445 198.309 80.6174L197.331 80.7588C197.315 80.6331 197.299 80.4602 197.283 80.2402C197.268 80.028 197.252 79.7962 197.236 79.5448C197.228 79.2933 197.221 79.0379 197.213 78.7786C197.205 78.5193 197.201 78.2757 197.201 78.0478V74.4173ZM205.258 71.7534C204.983 71.7376 204.668 71.7455 204.315 71.7769C203.969 71.8005 203.651 71.8241 203.36 71.8477C203.274 71.8555 203.156 71.8673 203.006 71.883C202.865 71.8909 202.712 71.9027 202.547 71.9184C202.382 71.9262 202.213 71.9419 202.04 71.9655C201.875 71.9812 201.722 72.0009 201.58 72.0245L200.908 70.9518C201.003 70.9675 201.132 70.9872 201.297 71.0108C201.47 71.0343 201.651 71.0579 201.839 71.0815C202.036 71.0972 202.224 71.1129 202.405 71.1286C202.594 71.1443 202.751 71.1522 202.877 71.1522C203.089 71.1522 203.352 71.1483 203.666 71.1404C203.989 71.1326 204.327 71.1247 204.68 71.1168C205.042 71.1011 205.407 71.0815 205.776 71.0579C206.154 71.0343 206.503 71.0068 206.825 70.9754C206.81 71.0225 206.79 71.0893 206.766 71.1758C206.751 71.2622 206.731 71.3565 206.708 71.4587C206.684 71.553 206.66 71.6473 206.637 71.7416C206.621 71.828 206.609 71.8948 206.601 71.9419L206.413 73.6865C206.476 73.6865 206.539 73.6865 206.601 73.6865C206.672 73.6786 206.743 73.6708 206.814 73.6629L206.696 74.5234C205.831 74.4841 205.112 74.4762 204.539 74.4998C203.973 74.5155 203.486 74.5391 203.077 74.5705C203.077 74.6334 203.073 74.6884 203.065 74.7355C203.057 74.7748 203.053 74.8259 203.053 74.8888V76.4801C203.053 76.6844 203.116 76.7865 203.242 76.7865C203.517 76.763 203.851 76.7276 204.244 76.6804C204.637 76.6254 205.061 76.5586 205.517 76.4801C205.973 76.3936 206.44 76.2954 206.92 76.1854C207.407 76.0754 207.882 75.9496 208.346 75.8082V70.6807C208.346 70.4528 208.228 70.2682 207.992 70.1267C207.764 69.9774 207.391 69.836 206.873 69.7024L207.144 69.1837C207.324 69.2073 207.537 69.2387 207.78 69.278C208.024 69.3173 208.271 69.3605 208.523 69.4077C208.774 69.4548 209.014 69.4981 209.242 69.5373C209.478 69.5766 209.67 69.6081 209.819 69.6316C209.804 69.7024 209.788 69.7967 209.772 69.9145C209.757 70.0324 209.741 70.1503 209.725 70.2682C209.709 70.386 209.698 70.4921 209.69 70.5864C209.682 70.6729 209.678 70.72 209.678 70.7279V77.1991C209.678 77.4427 209.67 77.7256 209.654 78.0478C209.647 78.3621 209.631 78.6803 209.607 79.0025C209.592 79.3247 209.568 79.6312 209.537 79.9219C209.513 80.2127 209.485 80.4445 209.454 80.6174L208.452 80.7588C208.436 80.6331 208.421 80.4602 208.405 80.2402C208.397 80.028 208.385 79.7962 208.37 79.5448C208.362 79.2933 208.354 79.0379 208.346 78.7786C208.346 78.5193 208.346 78.2757 208.346 78.0478V76.3975C207.945 76.5311 207.497 76.6687 207.002 76.8101C206.515 76.9437 206.028 77.0694 205.541 77.1873C205.053 77.3052 204.59 77.4073 204.15 77.4938C203.71 77.5802 203.336 77.6352 203.03 77.6588C202.558 77.7059 202.224 77.6431 202.028 77.4702C201.832 77.2894 201.733 77.0066 201.733 76.6215V75.0538C201.733 74.9202 201.725 74.8102 201.71 74.7237C201.694 74.6373 201.655 74.5627 201.592 74.4998C201.537 74.4369 201.45 74.3819 201.333 74.3348C201.223 74.2876 201.073 74.2365 200.885 74.1815L201.144 73.7336C201.859 73.8043 202.554 73.8436 203.23 73.8515C203.914 73.8515 204.562 73.8318 205.175 73.7926L205.258 71.7534Z" fill="white"/>
</svg>
