<svg width="348" height="57" viewBox="0 0 348 57" fill="none" xmlns="http://www.w3.org/2000/svg">
<rect width="348" height="57" rx="10" fill="#D9D9D9"/>
<path d="M106.984 20.2167V36.5561H109.318V20.2167H106.984ZM100.565 21.3661C98.1069 21.3661 96.2856 23.5942 96.2856 27.1663C96.2856 30.756 98.1069 33.0018 100.565 33.0018C103.023 33.0018 104.844 30.756 104.844 27.1663C104.844 23.5942 103.023 21.3661 100.565 21.3661ZM100.565 23.4704C101.767 23.4704 102.599 24.7613 102.599 27.1663C102.599 29.5889 101.767 30.8798 100.565 30.8798C99.3625 30.8798 98.5313 29.5889 98.5313 27.1663C98.5313 24.7613 99.3625 23.4704 100.565 23.4704ZM116.975 25.84L117.275 27.8029L126.612 27.3077C126.524 28.2803 126.347 29.359 126.064 30.5615L128.363 30.8444C129.123 27.2724 129.105 24.9912 129.105 23.0283V21.596H117.47V23.4527H126.807C126.807 24.0893 126.807 24.779 126.753 25.5217L116.975 25.84ZM123.358 32.7542V28.8639H121.024V32.7542H115.807V34.6463H130.538V32.7542H123.358ZM145.974 27.8913C142.296 27.2724 140.28 24.7436 140.28 22.3564V21.1893H137.787V22.3564C137.787 24.6906 135.753 27.2724 132.092 27.8913L133.083 29.8541C135.912 29.3059 137.981 27.7144 139.024 25.6455C140.068 27.7144 142.154 29.2883 144.984 29.8541L145.974 27.8913ZM131.739 32.6481V34.5402H146.487V32.6481H131.739ZM160.562 24.1601V26.0522H163.003V29.9249H165.337V20.2344H163.003V24.1601H160.562ZM161.535 27.6614C159.059 26.848 157.927 24.9381 157.857 23.0814H161.022V21.2069H152.269V23.0814H155.469C155.399 25.115 154.214 27.1839 151.632 28.0858L152.817 29.9249C154.709 29.2883 156 27.962 156.707 26.3175C157.415 27.7498 158.635 28.8992 160.403 29.4828L161.535 27.6614ZM159.837 34.7701C157.698 34.7701 156.583 34.328 156.583 33.4085C156.583 32.489 157.698 32.0469 159.837 32.0469C161.959 32.0469 163.073 32.489 163.073 33.4085C163.073 34.328 161.959 34.7701 159.837 34.7701ZM159.837 30.2785C156.371 30.2785 154.249 31.428 154.249 33.4085C154.249 35.389 156.371 36.5385 159.837 36.5385C163.285 36.5385 165.407 35.389 165.407 33.4085C165.407 31.428 163.285 30.2785 159.837 30.2785ZM171.525 25.6101H178.492V27.8913H171.525V25.6101ZM176.175 32.7365V29.748H180.791V21.2423H178.492V23.771H171.525V21.2423H169.208V29.748H173.841V32.7365H167.652V34.6286H182.4V32.7365H176.175ZM202.364 28.1035H200.224C200.631 25.8223 200.631 24.1601 200.631 22.6393V21.1716H189.331V23.046H198.35C198.35 24.443 198.314 26.0345 197.908 28.1035H187.651V29.9779H193.734V36.5208H196.104V29.9779H202.364V28.1035ZM206.2 23.7357H208.286V30.6322H206.2V23.7357ZM204.025 32.4536H210.444V21.8966H204.025V32.4536ZM215.324 20.2167V26.4412H213.963V20.4819H211.788V35.7781H213.963V28.3157H215.324V36.5031H217.535V20.2167H215.324ZM224.2 31.2865C223.104 31.2865 222.29 30.5438 222.29 29.3059C222.29 28.0681 223.104 27.3077 224.2 27.3077C225.296 27.3077 226.092 28.0681 226.092 29.2883C226.092 30.5438 225.296 31.2865 224.2 31.2865ZM224.2 25.4156C221.83 25.4156 220.062 27.0248 220.062 29.2883C220.062 31.5871 221.83 33.1963 224.2 33.1963C226.552 33.1963 228.303 31.5871 228.303 29.2883C228.303 27.0248 226.552 25.4156 224.2 25.4156ZM225.349 20.5173H223.015V22.6393H219.408V24.4961H228.886V22.6393H225.349V20.5173ZM234.616 26.6004H232.281V20.2344H229.947V36.5208H232.281V28.5279H234.616V26.6004ZM236.329 21.9143V23.771H241.758C241.422 27.3785 239.619 29.9249 235.463 31.9231L236.683 33.7622C242.466 30.9682 244.146 26.901 244.146 21.9143H236.329ZM246.639 20.2167V36.5031H248.991V20.2167H246.639Z" fill="white"/>
</svg>
