<svg width="338" height="279" viewBox="0 0 338 279" fill="none" xmlns="http://www.w3.org/2000/svg">
<path d="M15.7709 24.3182C14.4699 27.9822 12.1335 29.8141 9.55813 29.8141C4.69941 29.8141 3.55775 23.7872 3.55775 20.7074C3.55775 17.6275 4.69941 11.6272 9.55813 11.6272C12.1335 11.6272 14.1779 13.2202 15.3196 16.2735H15.7709L14.0717 11.4147H11.7884C11.098 11.2554 10.3546 11.1492 9.55813 11.1492C4.03565 11.1492 0.531007 15.6363 0.531007 20.7074C0.531007 25.7785 4.03565 30.2655 9.55813 30.2655C10.3546 30.2655 11.098 30.1859 11.7884 30H14.231L16.2488 24.2917L15.7709 24.3182ZM23.8113 17.4682C20.1208 17.4682 17.3065 20.4684 17.3065 23.8669C17.3065 27.2653 20.1208 30.2655 23.8113 30.2655C27.5018 30.2655 30.3162 27.2653 30.3162 23.8669C30.3162 20.4684 27.5018 17.4682 23.8113 17.4682ZM23.8113 29.7876C20.6518 29.7876 20.0943 25.9378 20.0943 23.8669C20.0943 21.7694 20.6518 17.9461 23.8113 17.9461C26.9708 17.9461 27.5284 21.7694 27.5284 23.8669C27.5284 25.9378 26.9708 29.7876 23.8113 29.7876ZM52.5788 29.5221V22.1411C52.5788 18.4771 50.3752 17.4682 48.3308 17.4682C45.7819 17.4682 44.6403 19.0082 44.1624 20.7605C43.6845 18.2116 41.7994 17.4682 40.0205 17.4682C37.6841 17.4682 36.5424 18.7692 35.9849 20.3622V17.7337H31.3916V18.2116H33.2767V29.5221H31.3916V30H37.8699V29.5221H35.9849V22.8845C36.0114 21.318 36.7283 17.9461 39.5161 17.9461C41.4542 17.9461 41.5604 19.9374 41.5604 21.4242V29.5221H39.8612V30H45.9943V29.5221H44.2951V22.9111C44.2951 21.3711 45.012 17.9461 47.8263 17.9461C49.7645 17.9461 49.8707 19.9374 49.8707 21.4242V29.5221H47.9856V30H54.4905V29.5221H52.5788ZM76.7438 29.5221V22.1411C76.7438 18.4771 74.5401 17.4682 72.4957 17.4682C69.9469 17.4682 68.8052 19.0082 68.3273 20.7605C67.8494 18.2116 65.9644 17.4682 64.1855 17.4682C61.8491 17.4682 60.7074 18.7692 60.1498 20.3622V17.7337H55.5566V18.2116H57.4417V29.5221H55.5566V30H62.0349V29.5221H60.1498V22.8845C60.1764 21.318 60.8932 17.9461 63.681 17.9461C65.6192 17.9461 65.7254 19.9374 65.7254 21.4242V29.5221H64.0262V30H70.1593V29.5221H68.4601V22.9111C68.4601 21.3711 69.177 17.9461 71.9913 17.9461C73.9295 17.9461 74.0357 19.9374 74.0357 21.4242V29.5221H72.1506V30H78.6554V29.5221H76.7438ZM91.1382 29.5221V22.5128C91.2179 18.6364 89.2001 17.4682 85.5096 17.4682C84.9255 17.4682 84.2086 17.6275 83.8634 17.7337H82.1908L81.0491 20.9198H81.527C82.2704 18.8754 83.6245 17.9461 85.3503 17.9461C88.2443 17.9461 88.4301 20.3622 88.4301 23.1766V23.3093C87.8725 22.3269 86.784 21.318 84.7396 21.318C82.2439 21.318 79.4561 22.5925 79.4561 25.805C79.4561 28.9911 82.2439 30.2655 84.7396 30.2655C86.784 30.2655 87.8725 29.2566 88.4301 28.2742V30H93.0233V29.5221H91.1382ZM88.4301 26.6281C88.4301 27.637 87.5539 29.7876 85.0317 29.7876C82.8811 29.7876 82.0049 27.7698 82.0049 25.805C82.0049 23.8138 82.8811 21.7959 85.0317 21.7959C87.5539 21.7959 88.4301 23.9465 88.4301 24.9554V26.6281ZM115.438 24.3182C114.137 27.9822 111.801 29.8141 109.226 29.8141C104.367 29.8141 103.225 23.7872 103.225 20.7074C103.225 17.6275 104.367 11.6272 109.226 11.6272C111.801 11.6272 113.845 13.2202 114.987 16.2735H115.438L113.739 11.4147H111.456C110.766 11.2554 110.022 11.1492 109.226 11.1492C103.703 11.1492 100.199 15.6363 100.199 20.7074C100.199 25.7785 103.703 30.2655 109.226 30.2655C110.022 30.2655 110.766 30.1859 111.456 30H113.899L115.916 24.2917L115.438 24.3182ZM129.771 29.5221V17.7337H125.178V18.1851H127.063V24.8227C127.037 26.3892 126.16 29.7876 123.346 29.7876C121.408 29.7876 121.302 27.7698 121.302 26.3095V17.7337H116.709V18.1851H118.567V25.5926C118.567 29.2566 120.797 30.2655 122.842 30.2655C125.258 30.2655 126.479 28.8583 127.063 27.2122V30H131.656V29.5221H129.771ZM143.179 17.7337H142.011C141.533 17.5479 141.162 17.4682 140.684 17.4682C138.453 17.4682 137.391 19.433 137.02 21.6366V17.7337H132.719V18.1851H134.604V29.5221H132.719V30H139.197V29.5221H137.312V23.5748C137.312 21.557 138.161 17.9196 140.498 17.9196C142.224 17.9196 142.887 18.8754 143.657 20.9198H144.135L143.179 17.7337ZM156.088 29.5221V22.5128C156.168 18.6364 154.15 17.4682 150.459 17.4682C149.875 17.4682 149.158 17.6275 148.813 17.7337H147.141L145.999 20.9198H146.477C147.22 18.8754 148.574 17.9461 150.3 17.9461C153.194 17.9461 153.38 20.3622 153.38 23.1766V23.3093C152.822 22.3269 151.734 21.318 149.689 21.318C147.194 21.318 144.406 22.5925 144.406 25.805C144.406 28.9911 147.194 30.2655 149.689 30.2655C151.734 30.2655 152.822 29.2566 153.38 28.2742V30H157.973V29.5221H156.088ZM153.38 26.6281C153.38 27.637 152.504 29.7876 149.982 29.7876C147.831 29.7876 146.955 27.7698 146.955 25.805C146.955 23.8138 147.831 21.7959 149.982 21.7959C152.504 21.7959 153.38 23.9465 153.38 24.9554V26.6281ZM166.901 26.283C166.795 27.3184 166.184 29.7876 164.432 29.7876C162.546 29.7876 162.839 27.0529 162.839 24.9554V18.1851H166.688V17.7337H162.839V14.468H160.13V17.7337H158.245V18.1851H160.13V25.6192C160.13 29.0973 161.962 30.2655 163.98 30.2655C166.635 30.2655 167.113 27.2919 167.272 26.283H166.901ZM172.964 29.5221V17.7337H168.344V18.2116H170.229V29.5221H168.344V30H174.849V29.5221H172.964ZM171.583 15.6894C172.486 15.6894 173.176 14.999 173.176 14.1229C173.176 13.2202 172.486 12.5299 171.583 12.5299C170.707 12.5299 170.016 13.2202 170.016 14.1229C170.016 14.999 170.707 15.6894 171.583 15.6894ZM181.895 17.4682C178.204 17.4682 175.39 20.4684 175.39 23.8669C175.39 27.2653 178.204 30.2655 181.895 30.2655C185.585 30.2655 188.4 27.2653 188.4 23.8669C188.4 20.4684 185.585 17.4682 181.895 17.4682ZM181.895 29.7876C178.735 29.7876 178.178 25.9378 178.178 23.8669C178.178 21.7694 178.735 17.9461 181.895 17.9461C185.054 17.9461 185.612 21.7694 185.612 23.8669C185.612 25.9378 185.054 29.7876 181.895 29.7876ZM202.564 29.5221V22.1411C202.564 18.4771 200.334 17.4682 198.29 17.4682C195.874 17.4682 194.652 18.8489 194.095 20.495V17.7337H189.475V18.2116H191.36V29.5221H189.475V30H195.98V29.5221H194.095V22.8845C194.095 21.3446 194.971 17.9461 197.785 17.9461C199.724 17.9461 199.83 19.9374 199.83 21.4242V29.5221H197.945V30H204.45V29.5221H202.564Z" fill="white"/>
<path d="M9.64881 68.756V64.8196H1.97159V68.756H9.64881ZM9.63577 58.0157H1.91945V58.9411H8.47572V59.9057L1.60663 60.2055L1.77607 61.1179L8.43661 60.7659C8.39751 61.3786 8.30627 61.9521 8.202 62.317L9.29688 62.4604C9.49239 61.7435 9.63577 60.5183 9.63577 59.3191V58.0157ZM10.9522 63.9594V63.0209H5.89492V61.4698H4.7479V63.0209H0.668156V63.9594H10.9522ZM8.48875 67.8306H3.13164V65.732H8.48875V67.8306ZM17.3812 66.0579V58.6674H12.0502V66.0579H17.3812ZM16.2212 65.1324H13.1972V59.6059H16.2212V65.1324ZM22.3082 62.9948V62.0433H20.4834V57.5204H19.3233V68.9124H20.4834V62.9948H22.3082ZM26.4392 67.4526H27.4949V60.2185H27.521L29.9454 67.4526H31.0142L33.4386 60.2185H33.4777V67.4526H34.6377V58.6935H32.9563L30.571 65.9406H30.5319L28.1206 58.6935H26.4392V67.4526ZM36.5016 67.4526H39.1736C41.989 67.4526 43.2533 65.8102 43.2533 63.0861V62.8254C43.2533 60.0491 41.7935 58.6935 39.1475 58.6935H36.5016V67.4526ZM37.6486 66.4619V59.6971H39.0302C40.9332 59.6971 42.0151 60.4531 42.0151 62.8254V63.2555C42.0151 65.4974 41.1418 66.4619 39.1997 66.4619H37.6486ZM52.8538 57.5204H51.7068V68.9124H52.8538V63.1512H54.6786V62.1867H52.8538V57.5204ZM49.8559 58.7326H44.564V59.7102H48.6177C48.4091 62.1606 46.7538 64.5459 44.0687 65.8363L44.7725 66.7096C47.8877 65.0151 49.7908 62.3561 49.8559 58.7326ZM58.6401 59.254H61.1818V59.5929C61.1818 61.183 59.6829 62.6559 58.21 63.1903L58.8878 64.0897C60.0739 63.6074 61.4165 62.4343 61.7814 61.3395C62.2637 62.3822 63.4889 63.3598 64.5056 63.7638L65.1443 62.8384C63.8539 62.4474 62.3549 61.183 62.3549 59.5668V59.254H64.9488V58.3025H58.6401V59.254ZM59.9436 64.8327V65.7711H66.4216V68.9124H67.5817V64.8327H59.9436ZM67.5817 64.2331V57.5334H66.4216V64.2331H67.5817ZM78.5988 68.756V64.207H77.4387V65.5886H72.4205V64.2331H71.2735V68.756H78.5988ZM69.5399 59.1888H72.0816V59.4104C72.0816 61.0006 70.6348 62.5647 69.1489 63.0991L69.8397 63.9985C71.0128 63.5162 72.3162 62.2519 72.6812 61.157C73.1504 62.1997 74.3235 63.2555 75.3402 63.6596L75.9789 62.7472C74.6885 62.3561 73.2547 61.0006 73.2547 59.3843V59.1888H75.7573V58.2634H69.5399V59.1888ZM78.5988 63.6074V57.5204H77.4387V60.2315H75.3532V61.17H77.4387V63.6074H78.5988ZM77.4387 67.8306H72.4205V66.488H77.4387V67.8306ZM91.6191 61.2743V63.9594H92.7792V57.5204H91.6191V60.3228H89.7943V61.2743H91.6191ZM92.7792 68.756V64.5589H85.4278V68.756H92.7792ZM91.6191 67.8436H86.5748V65.4713H91.6191V67.8436ZM86.4315 58.1461C84.8413 58.1461 83.5378 59.267 83.5378 60.8572C83.5378 62.4734 84.8543 63.4901 86.4315 63.4901C88.0347 63.4901 89.3381 62.4604 89.3381 60.8572C89.3381 59.254 88.0217 58.1461 86.4315 58.1461ZM86.4315 59.1106C87.5264 59.1106 88.1911 59.8535 88.1911 60.8572C88.1911 61.8608 87.4872 62.5777 86.4315 62.5777C85.4148 62.5777 84.6718 61.8608 84.6718 60.8442C84.6718 59.8666 85.4148 59.1106 86.4315 59.1106ZM103.796 65.7972V57.5204H102.636V60.2706H100.368V61.2091H102.636V65.7972H103.796ZM104.044 68.5735V67.6481H97.5528V65.0542H96.4188V68.5735H104.044ZM101.085 63.1773C99.7556 62.7211 98.3479 61.3786 98.3479 59.5277V58.1591H97.1748V59.5798C97.1748 61.3786 95.8844 62.9166 94.3203 63.5683L95.0372 64.4677C96.2103 63.9333 97.4355 62.695 97.7744 61.4959C98.2697 62.6429 99.3646 63.6335 100.42 64.0897L101.085 63.1773ZM116.078 63.2294V62.2649H114.266V57.5204H113.106V68.9124H114.266V63.2294H116.078ZM110.499 59.2018V58.2634H107.097V59.2018H110.499ZM112.154 61.157V60.2315H105.403V61.157H112.154ZM111.516 64.207C111.516 62.8384 110.447 61.7957 108.831 61.7957C107.214 61.7957 106.132 62.8645 106.132 64.207C106.132 65.5756 107.214 66.5923 108.831 66.5923C110.447 66.5923 111.516 65.5495 111.516 64.207ZM110.382 64.207C110.382 65.0412 109.769 65.6278 108.831 65.6278C107.931 65.6278 107.292 65.0412 107.292 64.207C107.292 63.3598 107.944 62.7602 108.831 62.7602C109.717 62.7602 110.382 63.3598 110.382 64.207ZM126.769 67.257V66.3055H121.555V62.4734H120.395V66.3055H116.485V67.257H126.769ZM125.439 58.5762H117.541V59.5147H124.253V60.8833C124.253 62.2258 124.097 63.816 123.849 64.7936C124.227 64.8457 124.592 64.9109 124.957 64.976C125.283 63.5944 125.413 62.1476 125.439 60.3228V58.5762ZM127.306 69.2122H128.271L129.079 66.5793H127.762L127.306 69.2122ZM140.299 65.4062C138.683 64.5068 137.445 62.7863 137.445 60.5835V59.658H139.96V58.7065H133.691V59.658H136.259V60.5965C136.259 62.7602 135.02 64.6893 133.261 65.6929L134.004 66.5402C135.372 65.6929 136.506 64.2331 136.858 62.9427C137.223 64.207 138.514 65.6278 139.622 66.2534L140.299 65.4062ZM144.171 63.0339V62.0694H142.385V57.5204H141.238V68.9124H142.385V63.0339H144.171ZM153.949 65.7972V57.5204H152.789V65.7972H153.949ZM151.499 63.1252C150.156 62.6559 148.644 61.2352 148.644 59.3843V58.1591H147.471V59.4364C147.471 61.2352 146.155 62.8514 144.604 63.5032L145.308 64.4025C146.481 63.8681 147.719 62.5517 148.071 61.3395C148.553 62.4995 149.778 63.5814 150.834 64.0245L151.499 63.1252ZM154.197 68.5865V67.6481H147.68V65.0282H146.52V68.5865H154.197ZM164.966 64.0376V57.5204H163.806V64.0376H164.966ZM158.866 58.1461C157.224 58.1461 155.908 59.28 155.908 60.9093C155.908 62.5517 157.237 63.5944 158.866 63.5944C160.509 63.5944 161.825 62.5386 161.825 60.9093C161.825 59.267 160.496 58.1461 158.866 58.1461ZM158.866 59.1367C159.974 59.1367 160.665 59.8926 160.665 60.9093C160.665 61.913 159.935 62.6429 158.866 62.6429C157.824 62.6429 157.068 61.913 157.068 60.8833C157.068 59.8926 157.811 59.1367 158.866 59.1367ZM165.318 68.9645L166.035 68.1434C164.927 67.7393 163.845 66.475 163.845 65.0673V64.5329H162.711V65.1064C162.711 66.5011 161.76 67.7263 160.483 68.3389L161.226 69.1079C162.164 68.6778 163.037 67.635 163.285 66.8139C163.572 67.609 164.562 68.5996 165.318 68.9645ZM161.239 67.1788C160.391 66.853 159.635 66.0709 159.635 64.95V64.5329H158.501V65.0151C158.501 66.4228 157.433 67.635 156.246 68.1694L156.924 68.9776C157.876 68.5344 158.879 67.4526 159.14 66.5923C159.388 67.1397 159.961 67.7002 160.457 67.9479L161.239 67.1788ZM176.257 68.9124V57.5204H175.149V68.9124H176.257ZM174.002 68.3519V57.7811H172.907V62.1346H171.239V63.073H172.907V68.3519H174.002ZM171.421 58.889H166.938V59.8405H170.274C170.079 62.1606 168.789 64.3504 166.442 65.719L167.224 66.5662C170.027 64.7023 171.382 62.2649 171.421 58.889ZM190.581 62.7341C188.887 62.5647 186.971 61.7305 186.606 60.4662H190.06V59.5277H181.848V60.4662H185.328C184.976 61.7435 183.112 62.5647 181.34 62.7732L181.861 63.6987C183.699 63.438 185.432 62.4995 185.954 61.4177C186.566 62.4865 188.365 63.4119 190.06 63.6596L190.581 62.7341ZM186.514 68.9124V65.354H191.102V64.4025H180.818V65.354H185.354V68.9124H186.514ZM187.805 58.6023V57.6638H184.103V58.6023H187.805ZM198.509 63.7117C197.206 63.3858 195.876 62.304 195.811 60.8051H198.3V59.8666H192.083V60.8051H194.625C194.56 62.304 193.295 63.5814 191.783 64.0506L192.422 64.963C193.673 64.5329 194.872 63.3858 195.224 62.3692C195.707 63.3858 196.958 64.3504 197.922 64.6371L198.509 63.7117ZM201.181 57.5204H200.021V61.4307H198.066V62.3692H200.021V65.8363H201.181V57.5204ZM201.429 68.5605V67.635H194.938V65.1194H193.791V68.5605H201.429ZM196.788 58.876V57.9375H193.634V58.876H196.788ZM213.462 63.2294V62.2649H211.651V57.5204H210.491V68.9124H211.651V63.2294H213.462ZM207.884 59.2018V58.2634H204.482V59.2018H207.884ZM209.539 61.157V60.2315H202.787V61.157H209.539ZM208.9 64.207C208.9 62.8384 207.832 61.7957 206.215 61.7957C204.599 61.7957 203.517 62.8645 203.517 64.207C203.517 65.5756 204.599 66.5923 206.215 66.5923C207.832 66.5923 208.9 65.5495 208.9 64.207ZM207.766 64.207C207.766 65.0412 207.154 65.6278 206.215 65.6278C205.316 65.6278 204.677 65.0412 204.677 64.207C204.677 63.3598 205.329 62.7602 206.215 62.7602C207.102 62.7602 207.766 63.3598 207.766 64.207ZM224.154 64.2591V63.3207H213.869V64.2591H224.154ZM223.072 68.6648V67.7132H216.385V65.2889H215.238V68.6648H223.072ZM223.02 61.9781V61.0397H216.424V57.9896H215.277V61.9781H223.02ZM224.691 69.2122H225.656L226.464 66.5793H225.147L224.691 69.2122ZM11.9249 91.9232C11.8209 91.424 11.7377 90.9248 11.6545 90.4048C9.51205 90.9664 5.51845 91.216 3.35525 91.216V81.0656H1.52485V92.7968C2.06565 92.7968 2.62725 92.7968 3.20965 92.776C5.74725 92.7344 9.84485 92.464 11.9249 91.9232ZM15.0033 79.2768H13.1521V97.456H15.0033V87.9504H17.8945V86.3904H15.0033V79.2768ZM23.9105 80.4624C21.1649 80.4624 18.9601 82.272 18.9601 84.8928C18.9601 87.2432 20.7281 88.824 23.0785 89.1152V92.1728C21.3105 92.2352 19.6257 92.2352 18.1905 92.2352L18.4609 93.816C19.9377 93.816 21.6641 93.7536 23.6193 93.6288C25.7825 93.5248 28.3617 93.3376 29.8801 93.1296L29.6929 91.6528C28.5073 91.84 26.8433 91.944 24.9089 92.0688V89.0944C27.1969 88.7408 28.9233 87.2016 28.9233 84.872C28.9233 82.2512 26.6977 80.4624 23.9105 80.4624ZM35.4753 88.3248V86.7856H32.6673V79.2768H30.8577V97.456H32.6673V88.3248H35.4753ZM23.9105 82.0224C25.6785 82.0224 26.9681 83.104 26.9681 84.872C26.9681 86.5776 25.6577 87.6176 23.9105 87.6176C22.2465 87.6176 20.8529 86.5568 20.8529 84.872C20.8529 83.1456 22.2257 82.0224 23.9105 82.0224ZM55.5667 97.4768V90.9248H43.5027V92.4224H53.7155V97.4768H55.5667ZM57.9795 85.6V84.0608H55.5459V79.2768H53.7571V89.968H55.5459V85.6H57.9795ZM46.7683 88.1792L46.5603 86.7648C45.4371 87.0352 44.3763 87.1392 43.3987 87.16V82.1264H46.2275V80.6288H41.6099V88.6784C43.9187 88.6784 45.4995 88.4704 46.7683 88.1792ZM52.9043 88.2208L52.6755 86.7856C51.6355 87.0144 50.3667 87.16 49.1187 87.16V82.1264H52.0723V80.6288H47.3299V88.6784C49.6595 88.6784 51.5315 88.512 52.9043 88.2208ZM73.1204 88.5744V80.5456H64.4468V88.5744H73.1204ZM71.3108 87.0976H66.2564V82.0224H71.3108V87.0976ZM80.546 85.3712V83.8528H77.842V79.2768H75.9908V89.9056H77.842V85.3712H80.546ZM79.1108 96.104C76.3236 95.9168 73.5364 93.9824 73.1828 92.1728H78.154V90.6752H66.2148V92.1728H71.2484C70.9156 94.0448 68.17 95.9168 65.2372 96.0832L66.1732 97.5392C68.9604 97.1856 71.5396 95.4176 72.1844 93.9824C72.85 95.3968 75.658 97.2064 78.1748 97.56L79.1108 96.104ZM97.7941 90.0304V88.5328H81.3829V90.0304H97.7941ZM96.0677 97.0608V95.5424H85.3973V91.6736H83.5669V97.0608H96.0677ZM95.9845 86.3904V84.8928H85.4597V80.0256H83.6293V86.3904H95.9845ZM115.327 90.28L115.161 88.8656C114.121 89.0112 112.103 89.1776 110.273 89.2816V87.5344C112.498 87.2432 114.037 85.7872 114.037 83.8736C114.037 81.7312 112.103 80.1088 109.357 80.1088C106.612 80.1088 104.677 81.7312 104.677 83.8736C104.677 85.7872 106.175 87.2432 108.442 87.5344V89.3648C106.737 89.4272 104.969 89.448 103.637 89.448L103.908 90.9872C105.156 90.9872 107.506 90.9248 109.565 90.8C111.645 90.6752 113.996 90.4672 115.327 90.28ZM120.839 86.952V85.392H118.135V79.2768H116.325V92.9424H118.135V86.952H120.839ZM118.593 97.1024V95.6256H108.276V92.0688H106.425V97.1024H118.593ZM112.124 83.8736C112.124 85.0592 111.084 86.0784 109.357 86.0784C107.61 86.0784 106.57 85.1008 106.57 83.8736C106.57 82.7296 107.61 81.6272 109.357 81.6272C111.084 81.6272 112.124 82.688 112.124 83.8736ZM138.004 95.1472V93.6496H130.682V89.3856H136.173V87.888H125.378V82.2512H136.069V80.7536H123.548V89.3856H128.831V93.6496H121.593V95.1472H138.004ZM145.074 84.56H149.297C149.214 86.5776 146.967 88.4288 144.45 89.0528L145.386 90.5504C147.529 89.9264 149.65 88.3248 150.254 86.744C151.065 88.304 152.978 89.5104 154.934 90.1136L155.849 88.6368C153.644 88.2208 151.231 86.536 151.127 84.56H155.329V83.0416H145.074V84.56ZM159.281 97.456V79.2768H157.45V97.456H159.281ZM156.556 93.5248L156.39 92.0688C155.162 92.2352 153.103 92.36 151.148 92.464V89.136H149.318V92.5472C147.508 92.6096 145.74 92.6304 144.242 92.6304L144.554 94.1696C146.073 94.1904 148.278 94.128 150.274 94.0032C152.5 93.8992 154.996 93.712 156.556 93.5248ZM147.737 81.4192H152.75V79.88H147.737V81.4192ZM178.214 94.8144V93.296H169.894V87.1808H168.042V93.296H161.802V94.8144H178.214ZM176.092 80.9616H163.487V82.4592H174.199V84.6432C174.199 86.7856 173.95 89.3232 173.554 90.8832C174.158 90.9664 174.74 91.0704 175.322 91.1744C175.842 88.9696 176.05 86.6608 176.092 83.7488V80.9616ZM192.612 79.2768V97.456H194.422V79.2768H192.612ZM189.991 85.0176C189.991 82.4176 187.911 80.7328 185.228 80.7328C182.566 80.7328 180.486 82.5008 180.486 85.0176C180.486 87.472 182.545 89.1568 185.228 89.1568C187.87 89.1568 189.991 87.5344 189.991 85.0176ZM188.182 84.9968C188.182 86.5776 186.809 87.6176 185.228 87.6176C183.627 87.6176 182.316 86.5568 182.316 84.9968C182.316 83.416 183.627 82.272 185.228 82.272C186.871 82.272 188.182 83.3328 188.182 84.9968ZM191.635 92.8592L191.447 91.4032C189.991 91.5696 187.849 91.7152 185.27 91.8192C183.127 91.9232 181.006 91.944 179.259 91.944L179.55 93.5248C181.006 93.504 182.919 93.4624 184.979 93.3584C187.287 93.2336 189.971 93.0672 191.635 92.8592ZM216.427 94.024C216.427 91.9232 214.201 90.6128 210.145 90.6128C206.068 90.6128 203.801 91.9232 203.801 94.024C203.801 96.104 206.068 97.4144 210.145 97.4144C214.201 97.4144 216.427 96.104 216.427 94.024ZM218.424 89.2608V87.7632H210.54V83.9776H208.71V87.7632H202.012V89.2608H218.424ZM214.555 94.024C214.555 95.272 212.828 95.9376 210.145 95.9376C207.42 95.9376 205.694 95.272 205.694 94.024C205.694 92.7968 207.42 92.1104 210.145 92.1104C212.828 92.1104 214.555 92.7968 214.555 94.024ZM216.468 80.2336H203.988V81.7312H214.617C214.617 83.2912 214.513 85.0176 214.139 86.4528C214.742 86.536 215.345 86.6192 215.928 86.6816C216.219 85.4544 216.406 83.6656 216.448 82.0432C216.448 81.44 216.468 80.92 216.468 80.2336ZM236.358 86.3488V84.8096H233.633V79.2768H231.782V92.672H233.633V86.3488H236.358ZM234.174 96.9776V95.48H223.982V91.2784H222.152V96.9776H234.174ZM220.3 80.7536V82.272H226.52C226.02 85.4544 223.129 88.2624 219.364 89.1776L220.3 90.6752C225.064 89.2816 228.392 85.704 228.537 80.7536H220.3ZM253.585 88.4704V86.9936H237.174V88.4704H253.585ZM252.046 97.3104V95.8128H240.814V94.1696H251.401V89.8848H238.921V91.3616H249.571V92.776H238.984V97.3104H252.046ZM251.63 85.6V84.1024H240.98V81.5648H251.464V80.088H239.15V85.6H251.63Z" fill="white"/>
<path d="M12.4498 141.698L12.3576 140.761C11.5434 140.869 10.0224 141.022 8.57819 141.099V139.793C10.2989 139.593 11.4358 138.549 11.4358 137.058C11.4358 135.445 10.0531 134.247 8.0251 134.247C6.01246 134.247 4.59901 135.445 4.59901 137.043C4.59901 138.518 5.72056 139.578 7.41056 139.793V141.145C6.08928 141.207 4.78337 141.222 3.84619 141.207L4.03056 142.236C4.9831 142.236 6.68846 142.174 8.1941 142.082C9.79192 141.99 11.4819 141.806 12.4498 141.698ZM16.4597 139.225V138.241H14.4317V133.648H13.2487V143.788H14.4317V139.225H16.4597ZM10.3143 137.043C10.3143 138.088 9.43856 138.841 8.0251 138.841C6.61165 138.841 5.76665 138.149 5.76665 137.043C5.76665 136.044 6.61165 135.245 8.0251 135.245C9.43856 135.245 10.3143 136.014 10.3143 137.043ZM14.7851 146.784V145.816H7.07256V143.112H5.90492V146.784H14.7851ZM29.799 145.37V144.387H24.2988V141.099H28.4316V140.131H20.3196V135.752H28.3548V134.785H19.1366V141.099H23.1312V144.387H17.6771V145.37H29.799ZM41.8477 134.585H32.737V135.553H40.6493C40.6493 136.828 40.4957 138.487 40.2038 139.701H31.2775V140.669H36.7469V143.957H37.9146V140.669H43.3994V139.701H41.3868C41.7094 138.226 41.8477 136.475 41.8477 134.585ZM42.0781 146.63V145.662H33.9661V142.482H32.7985V146.63H42.0781ZM56.9998 141.529V140.546H44.8779V141.529H56.9998ZM55.6325 146.691V145.708H47.6434V142.774H46.4757V146.691H55.6325ZM55.6171 136.674C55.6171 134.984 53.8656 134.047 50.9465 134.047C48.0275 134.047 46.276 134.984 46.276 136.674C46.276 138.395 48.0121 139.332 50.9312 139.332C53.8656 139.332 55.6171 138.395 55.6171 136.674ZM50.9465 135.015C53.0821 135.015 54.4648 135.568 54.4648 136.69C54.4648 137.78 53.0667 138.349 50.9312 138.349C48.811 138.349 47.4436 137.78 47.4436 136.69C47.4436 135.568 48.8264 135.015 50.9465 135.015ZM63.1903 145.355H69.5969V144.31H64.8956L66.5088 142.681C68.291 140.869 69.3665 139.639 69.3665 137.857C69.3665 136.014 68.2449 134.861 66.1708 134.861C65.0032 134.861 63.9585 135.384 63.3132 135.799L63.6666 136.766C64.2657 136.352 65.0954 135.921 65.9711 135.921C67.4306 135.921 68.0913 136.597 68.0913 137.965C68.0913 139.44 67.108 140.561 65.6485 142.082L63.1903 144.633V145.355ZM74.9963 145.539C77.0857 145.539 78.3455 144.018 78.3455 142.052C78.3455 140.085 76.9628 138.902 75.2421 138.902C74.0898 138.902 73.2448 139.44 72.6917 140.008C72.8454 136.797 73.8286 135.906 75.5801 135.906C76.2407 135.906 77.1472 136.167 77.5159 136.382L77.8693 135.491C77.4391 135.23 76.4865 134.877 75.4572 134.877C73.0758 134.877 71.4626 136.475 71.4626 140.116V140.915C71.4626 143.849 72.6917 145.539 74.9963 145.539ZM74.9809 144.525C73.337 144.525 72.6917 143.265 72.6917 141.345V141.237C73.1219 140.623 74.013 139.931 74.9963 139.931C76.2407 139.931 77.1165 140.561 77.1165 142.174C77.1165 143.649 76.3175 144.525 74.9809 144.525ZM82.7505 145.539C85.0243 145.539 86.3763 143.987 86.3763 142.144C86.3763 139.977 85.1011 138.994 83.027 138.994C82.5968 138.994 81.9669 139.102 81.5521 139.209L81.7672 136.075H86.0076V135.03H80.7839L80.4152 140.438C80.8915 140.223 81.8594 139.931 82.5661 139.931C84.1793 139.931 85.1011 140.561 85.1011 142.128C85.1011 143.588 84.1486 144.51 82.52 144.51C81.675 144.51 80.661 144.156 80.0926 143.772L79.8621 144.756C80.4766 145.201 81.5521 145.539 82.7505 145.539ZM99.2821 147.075V133.648H98.1298V138.933H96.3784V133.97H95.2261V146.399H96.3784V139.901H98.1298V147.075H99.2821ZM93.7512 135.23H88.3739V136.213H92.5221C92.3992 138.948 90.7553 141.806 87.913 143.419L88.6966 144.279C91.8768 142.359 93.7051 139.225 93.7512 135.23ZM111.423 133.648V147.075H112.591V133.648H111.423ZM109.303 137.888C109.303 135.921 107.797 134.692 105.815 134.692C103.864 134.692 102.312 135.998 102.312 137.888C102.312 139.686 103.833 141.007 105.815 141.007C107.751 141.007 109.303 139.793 109.303 137.888ZM108.166 137.888C108.166 139.148 107.09 140.024 105.815 140.024C104.509 140.024 103.449 139.132 103.449 137.888C103.449 136.628 104.525 135.691 105.815 135.691C107.121 135.691 108.166 136.536 108.166 137.888ZM110.639 143.665L110.532 142.712C109.549 142.835 107.813 142.943 105.938 143.004C104.31 143.096 102.727 143.127 101.575 143.112L101.79 144.141C102.804 144.126 104.279 144.08 105.861 144.003C107.567 143.926 109.487 143.803 110.639 143.665ZM130.073 135.123H120.978V136.09H128.86V137.473C128.86 137.919 128.829 138.41 128.798 138.948L120.563 139.24L120.794 140.269L128.737 139.855C128.645 141.253 128.476 142.635 128.337 143.265L129.459 143.419C129.858 141.714 130.058 138.641 130.073 136.843V135.123ZM131.625 145.124V144.141H119.503V145.124H131.625ZM145.225 145.14V144.156H138.896V139.301H137.728V144.156H133.104V145.14H145.225ZM143.597 135.046H134.348V136.029H142.383V137.335C142.383 139.102 142.214 141.13 141.907 142.39L143.059 142.574C143.459 140.869 143.582 138.779 143.597 136.736V135.046ZM151.124 135.599H154.212C154.212 135.937 154.197 136.198 154.197 136.321C154.135 138.103 152.43 139.793 150.74 140.438L151.416 141.345C152.86 140.73 154.427 139.286 154.796 138.026C155.349 139.24 156.716 140.454 158.007 140.976L158.652 140.039C157.116 139.532 155.518 138.057 155.411 136.336C155.395 136.198 155.395 135.937 155.395 135.599H158.453V134.616H151.124V135.599ZM152.707 142.328V143.296H160.204V147.091H161.372V142.328H152.707ZM163.4 138.257V137.273H161.356V133.648H160.189V141.621H161.356V138.257H163.4ZM176.77 141.529V140.546H164.648V141.529H176.77ZM175.402 146.691V145.708H167.413V142.774H166.245V146.691H175.402ZM175.387 136.674C175.387 134.984 173.635 134.047 170.716 134.047C167.797 134.047 166.046 134.984 166.046 136.674C166.046 138.395 167.782 139.332 170.701 139.332C173.635 139.332 175.387 138.395 175.387 136.674ZM170.716 135.015C172.852 135.015 174.235 135.568 174.235 136.69C174.235 137.78 172.836 138.349 170.701 138.349C168.581 138.349 167.213 137.78 167.213 136.69C167.213 135.568 168.596 135.015 170.716 135.015ZM193.576 146.891V142.005H184.973V146.891H193.576ZM192.409 145.923H186.14V142.973H192.409V145.923ZM192.393 137.596V141.299H193.561V133.648H192.393V136.628H189.643V137.596H192.393ZM190.319 139.778C188.814 139.24 187.047 137.596 187.047 135.461V134.278H185.864V135.507C185.864 137.642 184.404 139.271 182.468 140.162L183.19 141.053C184.742 140.285 186.063 138.963 186.478 137.55C187.001 138.917 188.353 140.085 189.628 140.684L190.319 139.778ZM208.314 140.346V139.409H196.192V140.346H208.314ZM207.161 146.845V145.923H198.788V144.525H206.747V141.498H197.605V142.42H205.579V143.665H197.621V146.845H207.161ZM206.946 138.287V137.35H198.85V135.199H206.793V134.247H197.667V138.287H206.946ZM220.839 147.075V133.648H219.671V147.075H220.839ZM210.238 139.394C210.238 142.251 211.497 144.156 213.694 144.156C215.922 144.156 217.167 142.251 217.167 139.409C217.167 136.567 215.922 134.662 213.694 134.662C211.497 134.662 210.238 136.567 210.238 139.394ZM216.06 139.409C216.06 141.606 215.123 143.142 213.694 143.142C212.281 143.142 211.344 141.606 211.344 139.409C211.344 137.197 212.281 135.676 213.694 135.676C215.123 135.676 216.06 137.197 216.06 139.409ZM238.306 134.585H229.195V135.553H237.108C237.108 136.828 236.954 138.487 236.662 139.701H227.736V140.669H233.205V143.957H234.373V140.669H239.858V139.701H237.845C238.168 138.226 238.306 136.475 238.306 134.585ZM238.536 146.63V145.662H230.424V142.482H229.257V146.63H238.536ZM253.458 145.37V144.387H247.958V141.099H252.091V140.131H243.979V135.752H252.014V134.785H242.796V141.099H246.79V144.387H241.336V145.37H253.458ZM267.059 145.37V144.387H261.558V142.098H265.937V141.114H257.595V138.871H265.553V134.769H256.412V135.752H264.385V137.903H256.427V142.098H260.391V144.387H254.937V145.37H267.059ZM283.927 147.075V133.648H282.759V147.075H283.927ZM273.326 139.394C273.326 142.251 274.586 144.156 276.783 144.156C279.01 144.156 280.255 142.251 280.255 139.409C280.255 136.567 279.01 134.662 276.783 134.662C274.586 134.662 273.326 136.567 273.326 139.394ZM279.149 139.409C279.149 141.606 278.211 143.142 276.783 143.142C275.369 143.142 274.432 141.606 274.432 139.409C274.432 137.197 275.369 135.676 276.783 135.676C278.211 135.676 279.149 137.197 279.149 139.409ZM297.466 140.3V139.317H289.139V137.658H297.097V134.201H287.94V135.184H295.929V136.69H287.971V140.3H297.466ZM293.102 146.968V142.697H298.603V141.714H286.481V142.697H291.935V146.968H293.102ZM300.25 139.332C300.25 142.19 301.479 144.08 303.645 144.08C305.689 144.08 306.887 142.39 307.01 139.808H309.883V147.075H311.051V133.648H309.883V138.81H307.01C306.856 136.259 305.673 134.585 303.645 134.585C301.479 134.585 300.25 136.49 300.25 139.332ZM305.873 139.348C305.873 141.529 304.967 143.066 303.645 143.066C302.309 143.066 301.418 141.529 301.418 139.348C301.418 137.135 302.309 135.599 303.645 135.599C304.967 135.599 305.873 137.135 305.873 139.348ZM321.916 143.204C319.95 142.144 318.275 140.085 318.275 137.581V136.044H321.287V135.061H313.897V136.044H317.062V137.611C317.062 140.054 315.464 142.374 313.482 143.542L314.204 144.433C315.817 143.327 317.231 141.652 317.676 140.024C318.214 141.683 319.812 143.296 321.194 144.095L321.916 143.204ZM320.78 138.118H323.484V140.254H320.78V141.207H323.484V147.075H324.651V133.648H323.484V137.166H320.78V138.118ZM326.99 147.352H327.82L328.957 144.356H327.558L326.99 147.352ZM13.9098 172.451V163.648H12.7422V167.212H11.0368V163.893H9.91525V171.222H11.0368V168.18H12.7422V172.451H13.9098ZM14.6012 176.277C12.6192 175.985 10.0535 174.371 10.0535 172.436V171.959H8.82443V172.436C8.82443 174.325 6.27407 176 4.19998 176.261L4.86061 177.214C6.73498 176.814 8.85516 175.462 9.39288 174.033C10.0689 175.508 12.3427 176.922 13.9405 177.244L14.6012 176.277ZM8.40961 164.907H3.27816V165.891H7.18052C6.95007 168.072 5.04498 170.116 2.58679 171.099L3.35498 172.005C6.45843 170.5 8.33279 168.18 8.40961 164.907ZM25.6819 167.642V170.653H26.8496V163.648H25.6819V166.644H23.2852V167.642H25.6819ZM27.3412 176.983V176.015H19.306V174.54H26.8496V171.329H18.1077V172.297H25.6819V173.634H18.1384V176.983H27.3412ZM22.5785 170.162V164.216H21.4108V166.198H17.6007V164.216H16.433V170.162H22.5785ZM21.4108 169.194H17.6007V167.166H21.4108V169.194ZM41.7559 170.254V169.255H39.5743V163.648H38.4066V177.075H39.5743V170.254H41.7559ZM37.6385 173.68L37.5463 172.712C36.3479 172.897 34.6579 173.019 33.0447 173.096V168.887H31.8617V173.127C30.8631 173.158 29.6647 173.142 28.9273 173.142L29.0963 174.172C30.2178 174.172 31.7081 174.126 33.0601 174.064C34.366 173.987 36.3479 173.849 37.6385 173.68ZM36.6244 165.061H29.6033V166.044H35.4414C35.5029 167.55 35.3185 169.762 35.0266 171.068L36.1482 171.222C36.4401 169.916 36.6552 167.12 36.6244 165.061ZM57.8252 177.075V163.648H56.6729V169.132H55.0597V163.97H53.9228V176.399H55.0597V170.116H56.6729V177.075H57.8252ZM52.9088 171.345C52.9088 169.732 51.7105 168.656 49.9744 168.656C48.2536 168.656 47.0399 169.716 47.0399 171.345C47.0399 172.881 48.2536 174.018 49.9744 174.018C51.7105 174.018 52.9088 172.958 52.9088 171.345ZM51.7873 171.345C51.7873 172.359 51.0345 173.05 49.9744 173.05C48.9143 173.05 48.1768 172.39 48.1768 171.345C48.1768 170.315 48.9143 169.639 49.9744 169.639C51.0345 169.639 51.7873 170.315 51.7873 171.345ZM53.1546 167.888V166.92H46.4715V167.888H53.1546ZM51.7105 165.691V164.677H48.0386V165.691H51.7105ZM70.9032 165.952V165.015H60.8247V165.952H65.2494V166.229C65.2494 168.38 62.4071 170.315 60.287 170.684L60.8401 171.667C63.0678 171.099 65.2955 169.455 65.8486 167.934C66.4939 169.409 68.7062 171.084 70.8571 171.698L71.4563 170.715C69.4437 170.315 66.4785 168.349 66.4785 166.229V165.952H70.9032ZM71.9172 175.37V174.387H66.4171V171.038H65.2494V174.387H59.7953V175.37H71.9172ZM84.1196 170.285V169.301H75.6696V167.658H83.7508V164.185H74.5327V165.169H82.5832V166.69H74.5019V170.285H84.1196ZM77.4364 177.091V172.758H80.8164V177.091H81.9994V172.758H85.2104V171.775H73.0885V172.758H76.2688V177.091H77.4364ZM96.706 163.648H95.5384V177.075H96.706V170.239H98.903V169.24H96.706V163.648ZM93.2184 165.092H86.904V166.075H91.9586C91.7128 169.102 89.7924 171.929 86.4431 173.48L87.1652 174.402C90.622 172.605 93.1416 169.455 93.2184 165.092ZM114.45 173.204V172.251H110.332V170.684H115.833V169.716H103.711V170.684H109.165V172.251H105.063V173.204H114.45ZM114.573 176.86V175.892H112.36C112.483 175.232 112.637 174.587 112.775 173.926L111.654 173.726L111.254 175.892H108.197C108.135 175.155 108.059 174.433 108.013 173.711C107.598 173.757 107.214 173.818 106.83 173.864L107.091 175.892H104.924V176.86H114.573ZM109.165 164.231C109.165 166.106 106.507 167.55 104.402 167.78L104.94 168.794C106.983 168.395 109.149 167.151 109.764 165.752C110.425 167.151 112.622 168.41 114.604 168.794L115.157 167.796C113.129 167.596 110.379 166.106 110.379 164.231V163.801H109.165V164.231ZM129.126 170.438V169.455H117.004V170.438H129.126ZM127.774 166.167C127.774 164.692 125.992 163.832 123.073 163.832C120.184 163.832 118.402 164.692 118.402 166.167C118.402 167.642 120.184 168.487 123.073 168.487C125.992 168.487 127.774 167.642 127.774 166.167ZM123.073 164.785C125.208 164.785 126.591 165.322 126.591 166.167C126.591 166.997 125.208 167.519 123.073 167.519C120.968 167.519 119.6 166.997 119.6 166.167C119.6 165.322 120.968 164.785 123.073 164.785ZM128.05 176.953V176H119.585V174.648H127.605V171.637H118.387V172.574H126.437V173.757H118.417V176.953H128.05ZM145.379 177.075V163.648H144.212V177.075H145.379ZM134.779 169.394C134.779 172.251 136.038 174.156 138.235 174.156C140.463 174.156 141.708 172.251 141.708 169.409C141.708 166.567 140.463 164.662 138.235 164.662C136.038 164.662 134.779 166.567 134.779 169.394ZM140.601 169.409C140.601 171.606 139.664 173.142 138.235 173.142C136.822 173.142 135.885 171.606 135.885 169.409C135.885 167.197 136.822 165.676 138.235 165.676C139.664 165.676 140.601 167.197 140.601 169.409ZM158.611 170.3V169.317H150.284V167.658H158.242V164.201H149.086V165.184H157.075V166.69H149.116V170.3H158.611ZM154.248 176.968V172.697H159.748V171.714H147.626V172.697H153.08V176.968H154.248ZM173.041 171.56V170.577H160.919V171.56H173.041ZM171.751 176.784V175.816H163.669V172.82H162.502V176.784H171.751ZM171.689 168.902V167.934H163.715V164.216H162.548V168.902H171.689ZM190.77 170.039V169.056H188.573V163.648H187.405V177.075H188.573V170.039H190.77ZM178.433 169.394C178.433 172.251 179.693 174.156 181.874 174.156C184.056 174.156 185.3 172.251 185.3 169.409C185.3 166.567 184.056 164.662 181.874 164.662C179.693 164.662 178.433 166.567 178.433 169.394ZM184.163 169.409C184.163 171.606 183.272 173.142 181.874 173.142C180.476 173.142 179.57 171.606 179.57 169.409C179.57 167.197 180.476 165.676 181.874 165.676C183.272 165.676 184.163 167.197 184.163 169.409ZM202.296 169.532V168.61H194.322V167.227H202.035V164.124H193.093V165.046H200.867V166.352H193.155V169.532H202.296ZM203.663 171.667V170.715H191.542V171.667H203.663ZM202.112 176.891V172.881H193.093V176.891H202.112ZM200.944 175.969H194.261V173.803H200.944V175.969ZM215.19 163.648H214.022V177.075H215.19V169.962H217.371V168.979H215.19V163.648ZM206.54 172.789V166.029H211.733V165.046H205.357V173.788H206.678C209.014 173.788 211.671 173.603 213.116 173.327L212.993 172.359C211.702 172.635 209.044 172.789 207.308 172.789H206.54ZM228.867 166.69C228.867 165 227.116 164.062 224.196 164.062C221.277 164.062 219.526 165 219.526 166.69C219.526 168.395 221.262 169.348 224.181 169.348C227.116 169.348 228.867 168.395 228.867 166.69ZM224.196 165.03C226.332 165.03 227.715 165.583 227.715 166.705C227.715 167.796 226.317 168.364 224.181 168.364C222.061 168.364 220.694 167.796 220.694 166.705C220.694 165.583 222.076 165.03 224.196 165.03ZM224.826 174.172V171.452H230.25V170.484H218.128V171.452H223.659V174.172H224.826ZM228.882 176.691V175.708H220.893V172.774H219.726V176.691H228.882ZM245.32 163.648V177.075H246.488V163.648H245.32ZM244.091 172.451C242.463 172.743 239.805 172.866 237.669 172.866H237.347V169.655H242.447V164.892H236.118V165.86H241.264V168.687H236.179V173.864H237.546C240.496 173.864 242.801 173.634 244.199 173.419L244.091 172.451ZM261.271 170.039V169.056H259.074V163.648H257.907V177.075H259.074V170.039H261.271ZM248.934 169.394C248.934 172.251 250.194 174.156 252.376 174.156C254.558 174.156 255.802 172.251 255.802 169.409C255.802 166.567 254.558 164.662 252.376 164.662C250.194 164.662 248.934 166.567 248.934 169.394ZM254.665 169.409C254.665 171.606 253.774 173.142 252.376 173.142C250.978 173.142 250.071 171.606 250.071 169.409C250.071 167.197 250.978 165.676 252.376 165.676C253.774 165.676 254.665 167.197 254.665 169.409ZM273.72 170.561C271.661 170.1 268.711 168.026 268.711 165.829V164.769H267.497V165.829C267.497 168.026 264.701 170.1 262.519 170.531L263.134 171.529C265.469 170.869 267.605 168.963 268.081 167.596C268.634 168.963 270.816 170.869 273.074 171.545L273.72 170.561ZM274.165 175.232V174.249H262.043V175.232H274.165ZM286.306 171.652V163.648H285.138V171.652H286.306ZM283.448 169.931C281.835 169.378 279.945 167.734 279.945 165.583V164.201H278.762V165.63C278.762 167.765 277.134 169.593 275.229 170.377L275.951 171.314C277.641 170.454 278.978 169.071 279.392 167.673C279.93 169.056 281.42 170.269 282.757 170.853L283.448 169.931ZM286.306 177.075V172.39H277.349V173.357H285.138V177.075H286.306ZM303.988 177.075V163.648H302.836V169.132H301.223V163.97H300.086V176.399H301.223V170.116H302.836V177.075H303.988ZM299.072 171.345C299.072 169.732 297.874 168.656 296.138 168.656C294.417 168.656 293.203 169.716 293.203 171.345C293.203 172.881 294.417 174.018 296.138 174.018C297.874 174.018 299.072 172.958 299.072 171.345ZM297.951 171.345C297.951 172.359 297.198 173.05 296.138 173.05C295.078 173.05 294.34 172.39 294.34 171.345C294.34 170.315 295.078 169.639 296.138 169.639C297.198 169.639 297.951 170.315 297.951 171.345ZM299.318 167.888V166.92H292.635V167.888H299.318ZM297.874 165.691V164.677H294.202V165.691H297.874ZM318.326 168.564V167.581H316.283V163.648H315.115V173.404H316.283V168.564H318.326ZM316.775 176.615V175.647H309.031V172.451H307.864V176.615H316.775ZM309.692 164.631C307.679 164.631 306.143 166.014 306.143 168.026C306.143 170.054 307.679 171.376 309.707 171.376C311.72 171.376 313.256 170.039 313.256 168.011C313.256 165.998 311.705 164.631 309.692 164.631ZM309.692 165.63C311.121 165.63 312.089 166.628 312.089 168.026C312.089 169.394 311.121 170.377 309.707 170.377C308.355 170.377 307.311 169.394 307.311 168.011C307.311 166.628 308.34 165.63 309.692 165.63ZM330.298 177.075V163.648H329.131V177.075H330.298ZM319.697 169.394C319.697 172.251 320.957 174.156 323.154 174.156C325.382 174.156 326.626 172.251 326.626 169.409C326.626 166.567 325.382 164.662 323.154 164.662C320.957 164.662 319.697 166.567 319.697 169.394ZM325.52 169.409C325.52 171.606 324.583 173.142 323.154 173.142C321.741 173.142 320.803 171.606 320.803 169.409C320.803 167.197 321.741 165.676 323.154 165.676C324.583 165.676 325.52 167.197 325.52 169.409ZM13.6642 199.149V198.166H11.6209V194.648H10.4532V202.529H11.6209V199.149H13.6642ZM12.5888 207.215C10.4532 207.015 8.37913 205.448 8.13331 204.158H11.836V203.205H3.09404V204.158H6.84277C6.61231 205.51 4.6765 206.923 2.37195 207.169L2.89431 208.06C4.99913 207.768 6.98104 206.447 7.48804 205.31C7.97968 206.432 10.1152 207.83 12.0203 208.122L12.5888 207.215ZM8.1794 201.484V195.646H1.77277V201.484H8.1794ZM7.01177 200.517H2.9404V196.614H7.01177V200.517ZM27.111 201.039V200.056H24.914V194.648H23.7464V208.075H24.914V201.039H27.111ZM14.774 200.394C14.774 203.251 16.0338 205.156 18.2155 205.156C20.3971 205.156 21.6416 203.251 21.6416 200.409C21.6416 197.567 20.3971 195.662 18.2155 195.662C16.0338 195.662 14.774 197.567 14.774 200.394ZM20.5046 200.409C20.5046 202.606 19.6136 204.142 18.2155 204.142C16.8174 204.142 15.9109 202.606 15.9109 200.409C15.9109 198.197 16.8174 196.676 18.2155 196.676C19.6136 196.676 20.5046 198.197 20.5046 200.409ZM39.4362 200.056C37.3775 199.825 34.6274 198.458 34.566 196.568H38.8832V195.6H28.989V196.568H33.3369C33.2754 198.442 30.679 199.856 28.482 200.086L29.0197 201.07C31.3089 200.686 33.3983 199.303 33.9361 198.043C34.5506 199.303 36.6862 200.655 38.8832 201.039L39.4362 200.056ZM34.5045 208.075V203.267H40.0047V202.283H27.8828V203.267H33.3369V208.075H34.5045ZM53.2978 202.56V201.577H41.1759V202.56H53.2978ZM52.0073 207.784V206.816H43.926V203.82H42.7584V207.784H52.0073ZM51.9458 199.902V198.934H43.9721V195.216H42.8045V199.902H51.9458ZM70.6269 201.915V200.947H64.7734V198.366H63.5904V200.947H58.505V201.915H70.6269ZM69.5976 207.092C67.3238 206.892 64.9885 205.08 64.9885 203.543V202.975H63.7901V203.543C63.7901 205.095 61.6392 206.877 59.181 207.077C59.3654 207.399 59.5651 207.707 59.7649 208.029C61.6392 207.707 63.7748 206.447 64.3586 205.11C65.0192 206.385 67.0626 207.753 69.0291 208.06C69.2135 207.753 69.4132 207.43 69.5976 207.092ZM69.0291 195.308H59.9646V196.261H67.8308L67.8154 197.413C67.8 198.028 67.6925 199.149 67.4928 199.871L68.6297 200.04C68.8601 199.195 69.0138 197.736 69.0291 196.614V195.308ZM82.7678 201.838V194.648H81.6002V201.838H82.7678ZM82.7832 207.891V202.575H81.6155V204.281H75.2857V202.575H74.1181V207.891H82.7832ZM81.6155 206.939H75.2857V205.233H81.6155V206.939ZM75.6084 195.308C73.7186 195.308 72.1515 196.568 72.1515 198.458C72.1515 200.363 73.734 201.561 75.6084 201.561C77.4981 201.561 79.0498 200.363 79.0498 198.442C79.0498 196.537 77.4981 195.308 75.6084 195.308ZM75.6084 196.322C76.9911 196.322 77.8822 197.198 77.8822 198.458C77.8822 199.733 76.9757 200.593 75.6084 200.593C74.2871 200.593 73.3192 199.733 73.3192 198.442C73.3192 197.183 74.2871 196.322 75.6084 196.322ZM95.9688 194.648H94.8165V208.075H95.9688V194.648ZM93.4491 203.144C91.8513 203.497 88.7479 203.743 87.0271 203.743V196.046H85.8441V204.772H86.4433C88.5021 204.772 92.005 204.511 93.5567 204.158L93.4491 203.144ZM108.74 194.648H107.572V208.075H108.74V200.962H110.921V199.979H108.74V194.648ZM100.09 203.789V197.029H105.283V196.046H98.9068V204.788H100.228C102.563 204.788 105.221 204.603 106.665 204.327L106.543 203.359C105.252 203.635 102.594 203.789 100.858 203.789H100.09ZM111.739 206.739H113.076V205.371H111.739V206.739ZM127.553 202.698L127.46 201.761C126.646 201.869 125.125 202.022 123.681 202.099V200.793C125.402 200.593 126.539 199.549 126.539 198.058C126.539 196.445 125.156 195.247 123.128 195.247C121.115 195.247 119.702 196.445 119.702 198.043C119.702 199.518 120.823 200.578 122.513 200.793V202.145C121.192 202.207 119.886 202.222 118.949 202.207L119.133 203.236C120.086 203.236 121.791 203.174 123.297 203.082C124.895 202.99 126.585 202.806 127.553 202.698ZM131.562 200.225V199.241H129.534V194.648H128.351V204.788H129.534V200.225H131.562ZM125.417 198.043C125.417 199.088 124.541 199.841 123.128 199.841C121.714 199.841 120.869 199.149 120.869 198.043C120.869 197.044 121.714 196.245 123.128 196.245C124.541 196.245 125.417 197.014 125.417 198.043ZM129.888 207.784V206.816H122.175V204.112H121.008V207.784H129.888ZM144.594 206.37V205.387H139.094V202.099H143.227V201.131H135.115V196.752H143.15V195.785H133.932V202.099H137.927V205.387H132.473V206.37H144.594ZM148.931 195.815C146.979 195.815 145.981 197.72 145.981 200.409C145.981 203.113 146.979 205.003 148.931 205.003C150.774 205.003 151.758 203.359 151.88 200.931H153.325V207.43H154.462V194.909H153.325V199.963H151.88C151.788 197.521 150.79 195.815 148.931 195.815ZM150.728 200.409C150.728 202.591 150.021 203.973 148.931 203.973C147.855 203.973 147.164 202.591 147.164 200.409C147.164 198.243 147.855 196.845 148.931 196.845C150.021 196.845 150.728 198.243 150.728 200.409ZM157.089 208.075V194.648H155.936V208.075H157.089ZM170.075 208.075V194.648H168.907V199.441H165.773V200.424H168.907V208.075H170.075ZM167.094 203.973C165.25 202.898 163.653 200.716 163.653 198.258V195.815H162.439V198.304C162.439 200.686 160.887 203.067 158.936 204.296L159.704 205.172C161.256 204.05 162.577 202.391 163.053 200.716C163.591 202.329 165.143 204.035 166.372 204.864L167.094 203.973ZM181.12 206.601H182.241V204.188H183.962V203.19H182.241V195.907H181.289L176.25 203.267V204.188H181.12V206.601ZM177.556 203.19L181.12 197.843V203.19H177.556ZM189.181 206.539C191.27 206.539 192.868 205.11 192.868 201.623V200.686C192.868 197.106 191.209 195.877 189.196 195.877C187.168 195.877 185.402 197.106 185.402 200.747V201.607C185.402 205.095 187.061 206.539 189.181 206.539ZM189.181 205.525C187.568 205.525 186.707 204.296 186.707 201.73V200.593C186.707 198.012 187.583 196.891 189.196 196.891C190.779 196.891 191.624 198.074 191.624 200.67V201.807C191.624 204.45 190.763 205.525 189.181 205.525ZM205.173 200.209V195.078H203.99V196.737H197.276V195.078H196.108V200.209H205.173ZM201.209 205.264V202.683H206.709V201.715H194.587V202.683H200.041V205.264H201.209ZM205.357 207.645V206.677H197.291V204.004H196.124V207.645H205.357ZM203.99 199.226H197.276V197.705H203.99V199.226ZM222.241 194.648H221.073V208.075H222.241V201.239H224.438V200.24H222.241V194.648ZM218.753 196.092H212.439V197.075H217.493C217.248 200.102 215.327 202.929 211.978 204.48L212.7 205.402C216.157 203.605 218.676 200.455 218.753 196.092ZM235.672 205.587C235.672 204.081 234.136 203.128 231.232 203.128C228.313 203.128 226.792 204.05 226.792 205.587C226.792 207.092 228.313 208.014 231.232 208.014C234.136 208.014 235.672 207.077 235.672 205.587ZM232.922 200.701C231.34 201.024 228.636 201.116 227.084 201.116H226.915V199.165H231.601V195.508H225.701V196.476H230.433V198.212H225.732V202.099H227.007C228.881 202.099 231.693 201.899 233.076 201.653L232.922 200.701ZM231.232 204.096C233.26 204.096 234.474 204.634 234.474 205.587C234.474 206.524 233.26 207.046 231.232 207.046C229.189 207.046 227.99 206.493 227.99 205.587C227.99 204.649 229.189 204.096 231.232 204.096ZM237.562 199.625H235.518V197.705H237.562V196.737H235.518V194.648H234.351V202.821H235.518V200.593H237.562V199.625ZM248.346 204.711V195.984H247.194V199.272H244.136V195.984H242.984V204.711H248.346ZM253.862 208.075V194.648H252.709V200.163H251.065V194.97H249.929V207.399H251.065V201.146H252.709V208.075H253.862ZM247.194 203.728H244.136V200.24H247.194V203.728ZM267.954 201.807V200.901H255.832V201.807H267.954ZM266.94 207.83V206.908H258.397V205.679H266.525V202.867H257.245V203.728H265.357V204.849H257.23V207.83H266.94ZM266.709 199.841V198.965H258.536V197.905H266.448V195.093H257.353V196.015H265.28V197.06H257.368V199.841H266.709ZM274.835 203.912V200.655H279.798V199.702H274.835V196.86H280.09V195.892H273.652V204.926H274.759C277.232 204.926 279.798 204.711 281.304 204.434L281.165 203.451C279.844 203.758 277.171 203.912 274.835 203.912ZM283.47 194.648H282.318V208.075H283.47V200.962H285.636V199.979H283.47V194.648ZM298.576 206.14V205.156H292.246V200.301H291.078V205.156H286.454V206.14H298.576ZM296.947 196.046H287.698V197.029H295.734V198.335C295.734 200.102 295.565 202.13 295.257 203.39L296.41 203.574C296.809 201.869 296.932 199.779 296.947 197.736V196.046ZM314.107 194.648H312.94V208.075H314.107V201.239H316.304V200.24H314.107V194.648ZM310.62 196.092H304.305V197.075H309.36C309.114 200.102 307.194 202.929 303.845 204.48L304.567 205.402C308.023 203.605 310.543 200.455 310.62 196.092ZM326.878 197.951V199.948H324.374V200.916H326.878V204.404H328.046V194.648H326.878V196.983H324.374V197.951H326.878ZM328.338 207.63V206.647H320.564V203.512H319.396V207.63H328.338ZM323.805 202.114V195.846H317.675V202.114H323.805ZM322.622 201.162H318.843V196.814H322.622V201.162ZM330.077 208.352H330.907L332.044 205.356H330.646L330.077 208.352ZM11.7069 235.525C11.7069 233.943 10.0784 232.959 7.19 232.959C4.317 232.959 2.70382 233.943 2.70382 235.525C2.70382 237.092 4.317 238.075 7.19 238.075C10.0784 238.075 11.7069 237.092 11.7069 235.525ZM0.983096 226.752H4.04046C4.04046 226.998 4.04046 227.321 4.0251 227.475C3.96364 229.38 2.25828 231.085 0.568277 231.73L1.19819 232.667C2.64237 232.038 4.25555 230.424 4.62428 229.165C5.17737 230.378 6.62155 231.638 8.01964 232.191L8.711 231.254C7.0671 230.762 5.34637 229.303 5.23882 227.475C5.22346 227.321 5.22346 227.014 5.22346 226.752H8.2501V225.769H0.983096V226.752ZM7.19 233.943C9.29482 233.943 10.5086 234.511 10.5086 235.525C10.5086 236.524 9.29482 237.092 7.19 237.092C5.13128 237.092 3.88682 236.524 3.88682 235.525C3.88682 234.511 5.13128 233.943 7.19 233.943ZM10.4317 229.118V232.99H11.5994V224.648H10.4317V228.135H7.72773V229.118H10.4317ZM21.1745 232.898H24.3394V238.075H25.5071V224.648H24.3394V228.304H21.3742V229.303H24.3394V231.915H21.1745V232.898ZM21.1745 226.092H14.9676V227.075H19.9301C19.6842 230.102 17.856 232.898 14.5528 234.496L15.2749 235.418C18.7317 233.528 21.0823 230.455 21.1745 226.092ZM39.1843 227.69C39.1843 226 37.4328 225.062 34.5138 225.062C31.5947 225.062 29.8432 226 29.8432 227.69C29.8432 229.395 31.5793 230.348 34.4984 230.348C37.4328 230.348 39.1843 229.395 39.1843 227.69ZM34.5138 226.03C36.6493 226.03 38.032 226.583 38.032 227.705C38.032 228.796 36.6339 229.364 34.4984 229.364C32.3782 229.364 31.0108 228.796 31.0108 227.705C31.0108 226.583 32.3936 226.03 34.5138 226.03ZM35.1437 235.172V232.452H40.567V231.484H28.4451V232.452H33.976V235.172H35.1437ZM39.1997 237.691V236.708H31.2106V233.774H30.0429V237.691H39.1997ZM57.6657 229.364V228.412H49.6612V226.169H57.6349V225.201H48.4936V229.364H52.4728V230.639H47.0033V231.592H59.1252V230.639H53.6404V229.364H57.6657ZM58.1112 237.83V236.862H49.5844V235.663H57.6042V232.652H48.4014V233.62H56.4366V234.788H48.4168V237.83H58.1112ZM73.2634 229.011V228.028H71.22V224.648H70.0524V232.299H71.22V229.011H73.2634ZM71.2354 237.876V233.005H62.8007V237.876H71.2354ZM70.0677 236.908H63.9684V233.973H70.0677V236.908ZM62.601 230.363V226.599H67.4098V225.616H61.418V231.331H62.5242C64.8287 231.331 67.1025 231.131 68.5928 230.87L68.4853 229.902C67.1794 230.163 65.1206 230.363 63.2616 230.363H62.601ZM86.2646 237.983V237.015H78.2601V235.54H85.773V232.283H77.0464V233.251H84.6053V234.649H77.0925V237.983H86.2646ZM85.7883 231.454V224.648H84.6207V231.454H85.7883ZM75.6791 225.385V226.368H80.4111C79.9348 228.489 77.9375 230.209 74.9877 230.962L75.5869 231.93C78.8593 230.947 81.4097 228.934 81.7631 225.385H75.6791ZM101.309 231.254V230.255H99.1276V224.648H97.9599V238.075H99.1276V231.254H101.309ZM97.1917 234.68L97.0996 233.712C95.9012 233.897 94.2112 234.019 92.598 234.096V229.887H91.415V234.127C90.4164 234.158 89.218 234.142 88.4806 234.142L88.6496 235.172C89.7711 235.172 91.2614 235.126 92.6134 235.064C93.9193 234.987 95.9012 234.849 97.1917 234.68ZM96.1777 226.061H89.1566V227.044H94.9947C95.0562 228.55 94.8718 230.762 94.5799 232.068L95.7015 232.222C95.9934 230.916 96.2085 228.12 96.1777 226.061ZM113.906 238.091V233.574H119.406V232.591H107.285V233.574H112.739V238.091H113.906ZM118.239 231.085V230.102H116.042L116.549 227.044L115.35 226.891L114.936 230.102H111.663L111.387 226.906L110.173 227.06L110.557 230.102H108.406V231.085H118.239ZM118.208 226.322V225.339H108.437V226.322H118.208ZM132.039 231.07V230.117H123.881V228.55H131.778V225.231H122.713V226.184H130.595V227.659H122.713V231.07H132.039ZM133.314 233.297V232.329H121.192V233.297H133.314ZM131.947 237.676V236.708H123.866V234.188H122.698V237.676H131.947ZM152.256 230.977V229.979H150.075V224.648H148.907V238.075H150.075V230.977H152.256ZM146.51 234.742V225.785H145.327V229.195H141.364V225.785H140.196V234.742H146.51ZM145.327 233.758H141.364V230.163H145.327V233.758ZM164.013 224.648H162.846V238.075H164.013V230.962H166.195V229.979H164.013V224.648ZM155.364 233.789V227.029H160.556V226.046H154.181V234.788H155.502C157.837 234.788 160.495 234.603 161.939 234.327L161.816 233.359C160.526 233.635 157.868 233.789 156.132 233.789H155.364ZM177.89 224.648H176.723V238.075H177.89V231.239H180.087V230.24H177.89V224.648ZM174.403 226.092H168.088V227.075H173.143C172.897 230.102 170.977 232.929 167.627 234.48L168.349 235.402C171.806 233.605 174.326 230.455 174.403 226.092ZM196.771 232.683V225.569H195.603V228.043H188.767V225.569H187.584V232.683H191.578V235.418H186.124V236.401H198.246V235.418H192.746V232.683H196.771ZM195.603 231.715H188.767V229.011H195.603V231.715ZM211.078 238.075V224.648H209.911V238.075H211.078ZM200.477 230.394C200.477 233.251 201.737 235.156 203.934 235.156C206.162 235.156 207.406 233.251 207.406 230.409C207.406 227.567 206.162 225.662 203.934 225.662C201.737 225.662 200.477 227.567 200.477 230.394ZM206.3 230.409C206.3 232.606 205.363 234.142 203.934 234.142C202.521 234.142 201.583 232.606 201.583 230.409C201.583 228.197 202.521 226.676 203.934 226.676C205.363 226.676 206.3 228.197 206.3 230.409ZM226.061 232.56V231.577H213.939V232.56H226.061ZM224.771 237.784V236.816H216.689V233.82H215.522V237.784H224.771ZM224.709 229.902V228.934H216.736V225.216H215.568V229.902H224.709ZM245.004 231.3V230.317H242.822V224.648H241.654V238.075H242.822V231.3H245.004ZM238.382 226.568V225.569H234.433V226.568H238.382ZM240.364 228.842V227.874H232.436V228.842H240.364ZM239.565 232.483C239.565 230.901 238.305 229.702 236.431 229.702C234.556 229.702 233.297 230.916 233.297 232.483C233.297 234.05 234.556 235.249 236.431 235.249C238.305 235.249 239.565 234.035 239.565 232.483ZM238.397 232.483C238.397 233.528 237.583 234.281 236.431 234.281C235.309 234.281 234.464 233.528 234.464 232.483C234.464 231.423 235.309 230.686 236.431 230.686C237.568 230.686 238.397 231.423 238.397 232.483ZM254.41 233.082C252.95 233.436 250.323 233.635 248.018 233.651V225.984H246.851V234.68H247.665C249.708 234.68 252.935 234.45 254.579 234.066L254.41 233.082ZM256.714 224.648H255.547V238.075H256.714V230.977H258.911V229.979H256.714V224.648ZM270.176 224.648V238.075H271.344V224.648H270.176ZM268.056 228.888C268.056 226.921 266.551 225.692 264.569 225.692C262.618 225.692 261.066 226.998 261.066 228.888C261.066 230.686 262.587 232.007 264.569 232.007C266.505 232.007 268.056 230.793 268.056 228.888ZM266.919 228.888C266.919 230.148 265.844 231.024 264.569 231.024C263.263 231.024 262.203 230.132 262.203 228.888C262.203 227.628 263.278 226.691 264.569 226.691C265.875 226.691 266.919 227.536 266.919 228.888ZM269.393 234.665L269.285 233.712C268.302 233.835 266.566 233.943 264.692 234.004C263.063 234.096 261.481 234.127 260.328 234.112L260.543 235.141C261.557 235.126 263.032 235.08 264.615 235.003C266.32 234.926 268.241 234.803 269.393 234.665ZM279.255 226.814H282.282C282.282 227.413 282.282 227.705 282.267 227.889C282.205 229.656 280.515 231.362 278.825 232.022L279.501 232.929C280.945 232.299 282.497 230.839 282.866 229.595C283.419 230.808 284.848 232.084 286.123 232.606L286.783 231.669C285.247 231.162 283.588 229.625 283.48 227.905C283.465 227.705 283.465 227.428 283.465 226.814H286.476V225.831H279.255V226.814ZM289.841 234.48V224.648H288.673V228.381H286V229.364H288.673V234.48H289.841ZM290.133 237.63V236.647H282.251V233.497H281.084V237.63H290.133ZM304.102 238.075V224.648H302.95V230.01H301.198V224.97H300.046V237.384H301.198V230.993H302.95V238.075H304.102ZM299.247 233.42C297.757 233.728 295.56 233.85 294.346 233.85V230.747H298.356V226.076H293.148V227.044H297.188V229.779H293.178V234.834H294.054C295.729 234.834 297.941 234.649 299.37 234.388L299.247 233.42ZM317.364 235.725C317.364 234.204 315.69 233.39 312.74 233.39C309.805 233.39 308.146 234.265 308.146 235.725C308.146 237.215 309.805 238.075 312.74 238.075C315.69 238.075 317.364 237.23 317.364 235.725ZM317.349 229.733V228.765H309.344V226.261H317.287V225.293H308.161V229.733H312.156V231.438H306.687V232.406H318.808V231.438H313.324V229.733H317.349ZM312.74 234.342C314.875 234.342 316.166 234.864 316.166 235.725C316.166 236.616 314.875 237.108 312.74 237.108C310.635 237.108 309.344 236.616 309.344 235.725C309.344 234.864 310.635 234.342 312.74 234.342ZM328.967 234.45C328.076 234.588 326.648 234.711 325.157 234.803V233.528C326.74 233.374 327.769 232.545 327.769 231.315C327.769 229.902 326.494 229.042 324.589 229.042C322.699 229.042 321.409 229.917 321.409 231.315C321.409 232.529 322.423 233.359 323.974 233.528V234.864C322.684 234.911 321.316 234.911 320.364 234.88L320.579 235.894C321.7 235.894 323.114 235.894 324.604 235.802C326.217 235.694 328 235.525 329.044 235.402L328.967 234.45ZM333.1 231.607V230.609H330.949V224.648H329.766V238.075H330.949V231.607H333.1ZM326.632 231.315C326.632 232.068 325.818 232.606 324.589 232.606C323.375 232.606 322.53 232.068 322.53 231.315C322.53 230.532 323.375 230.01 324.589 230.01C325.818 230.01 326.632 230.532 326.632 231.315ZM328.629 228.35V227.382H320.64V228.35H328.629ZM326.494 226.292V225.308H322.638V226.292H326.494ZM13.6432 259.996V259.012H11.5998V255.648H10.4322V262.945H11.5998V259.996H13.6432ZM11.9993 268.953V268.046H4.30212V266.709H11.523V265.818H4.30212V264.574H11.692V263.652H3.13448V268.953H11.9993ZM1.72103 256.539V257.507H6.51448C6.05357 260.026 4.01021 261.67 1.22939 262.438L1.82857 263.376C5.22394 262.362 7.54385 260.211 7.85112 256.539H1.72103ZM27.4587 263.529V262.546H15.3368V263.529H27.4587ZM26.0914 268.691V267.708H18.1023V264.774H16.9346V268.691H26.0914ZM26.076 258.674C26.076 256.984 24.3245 256.047 21.4054 256.047C18.4864 256.047 16.7349 256.984 16.7349 258.674C16.7349 260.395 18.471 261.332 21.3901 261.332C24.3245 261.332 26.076 260.395 26.076 258.674ZM21.4054 257.015C23.541 257.015 24.9237 257.568 24.9237 258.69C24.9237 259.78 23.5256 260.349 21.3901 260.349C19.2699 260.349 17.9025 259.78 17.9025 258.69C17.9025 257.568 19.2853 257.015 21.4054 257.015ZM45.1873 268.891V264.005H36.5836V268.891H45.1873ZM44.0196 267.923H37.7513V264.973H44.0196V267.923ZM44.0043 259.596V263.299H45.1719V255.648H44.0043V258.628H41.2542V259.596H44.0043ZM41.9302 261.778C40.4245 261.24 38.6577 259.596 38.6577 257.461V256.278H37.4747V257.507C37.4747 259.642 36.0152 261.271 34.0794 262.162L34.8015 263.053C36.3532 262.285 37.6745 260.963 38.0893 259.55C38.6116 260.917 39.9636 262.085 41.2388 262.684L41.9302 261.778ZM47.9717 269.352H48.8013L49.9382 266.356H48.5402L47.9717 269.352ZM68.3789 266.648C68.3789 265.112 66.7043 264.159 63.7237 264.159C60.7432 264.159 59.0686 265.112 59.0686 266.648C59.0686 268.154 60.7432 269.106 63.7237 269.106C66.7043 269.106 68.3789 268.154 68.3789 266.648ZM57.6397 259.166H60.6817C60.651 260.856 59.0378 262.469 57.2864 262.991L57.9163 263.883C59.468 263.345 60.8661 261.993 61.2963 260.794C61.9262 262.008 63.3397 263.13 64.5227 263.498L65.1218 262.577C63.5701 262.208 61.9723 260.825 61.9108 259.166H64.876V258.213H57.6397V259.166ZM67.1806 266.648C67.1806 267.601 65.89 268.154 63.7237 268.154C61.5728 268.154 60.2669 267.601 60.2669 266.648C60.2669 265.695 61.5728 265.112 63.7237 265.112C65.89 265.112 67.1806 265.695 67.1806 266.648ZM68.2714 255.648H67.1037V259.965H64.4151V260.948H67.1037V264.128H68.2714V255.648ZM59.4066 256.954H63.186V255.94H59.4066V256.954ZM83.7308 260.733V259.75H81.6874V255.648H80.5198V265.404H81.6874V260.733H83.7308ZM82.1637 268.645V267.677H74.4512V264.466H73.2835V268.645H82.1637ZM79.0295 262.3C77.4163 261.716 75.6803 260.088 75.6803 257.845V256.37H74.4973V257.891C74.4973 260.042 72.8841 261.977 71.1019 262.776L71.824 263.714C73.2835 262.976 74.7123 261.424 75.1118 259.996C75.6649 261.378 76.9401 262.592 78.3535 263.237L79.0295 262.3ZM97.5463 267.37V266.387H92.0461V263.099H96.1789V262.131H88.0669V257.752H96.1021V256.785H86.8839V263.099H90.8785V266.387H85.4244V267.37H97.5463ZM109.81 255.648H108.642V269.075H109.81V262.239H112.007V261.24H109.81V255.648ZM106.323 257.092H100.008V258.075H105.063C104.817 261.102 102.896 263.929 99.5472 265.48L100.269 266.402C103.726 264.605 106.246 261.455 106.323 257.092ZM129.06 256.185H124.958V257.153H127.861C127.861 258.306 127.723 259.704 127.416 260.856H123.36C123.667 259.55 123.897 257.722 123.897 256.185H119.58V257.153H122.699C122.699 258.275 122.453 259.842 122.192 260.856H118.351V261.824H123.821V264.144H119.903V268.891H128.937V264.144H124.988V261.824H130.473V260.856H128.583C128.875 259.458 129.09 257.66 129.06 256.185ZM127.754 267.923H121.071V265.096H127.754V267.923ZM149.584 259.996V259.012H147.541V255.648H146.373V262.945H147.541V259.996H149.584ZM147.94 268.953V268.046H140.243V266.709H147.464V265.818H140.243V264.574H147.633V263.652H139.076V268.953H147.94ZM137.662 256.539V257.507H142.456C141.995 260.026 139.951 261.67 137.171 262.438L137.77 263.376C141.165 262.362 143.485 260.211 143.792 256.539H137.662ZM163.4 263.529V262.546H151.278V263.529H163.4ZM162.033 268.691V267.708H154.043V264.774H152.876V268.691H162.033ZM162.017 258.674C162.017 256.984 160.266 256.047 157.347 256.047C154.428 256.047 152.676 256.984 152.676 258.674C152.676 260.395 154.412 261.332 157.331 261.332C160.266 261.332 162.017 260.395 162.017 258.674ZM157.347 257.015C159.482 257.015 160.865 257.568 160.865 258.69C160.865 259.78 159.467 260.349 157.331 260.349C155.211 260.349 153.844 259.78 153.844 258.69C153.844 257.568 155.226 257.015 157.347 257.015ZM181.466 269.075V255.648H180.314V261.117H178.609V255.97H177.472V268.399H178.609V262.085H180.314V269.075H181.466ZM176.934 264.835C175.475 263.867 174.046 261.916 174.046 259.304V256.907H172.894V259.335C172.894 261.962 171.388 264.313 169.867 265.281L170.635 266.126C171.972 265.158 173.155 263.376 173.462 261.839C173.877 263.36 175.152 264.912 176.181 265.665L176.934 264.835ZM196.327 267.37V266.387H190.827V264.098H195.205V263.114H186.863V260.871H194.821V256.769H185.68V257.752H193.653V259.903H185.695V264.098H189.659V266.387H184.205V267.37H196.327ZM209.005 258.69C209.005 257 207.254 256.062 204.335 256.062C201.416 256.062 199.664 257 199.664 258.69C199.664 260.395 201.4 261.348 204.319 261.348C207.254 261.348 209.005 260.395 209.005 258.69ZM204.335 257.03C206.47 257.03 207.853 257.583 207.853 258.705C207.853 259.796 206.455 260.364 204.319 260.364C202.199 260.364 200.832 259.796 200.832 258.705C200.832 257.583 202.215 257.03 204.335 257.03ZM204.965 266.172V263.452H210.388V262.484H198.266V263.452H203.797V266.172H204.965ZM209.021 268.691V267.708H201.032V264.774H199.864V268.691H209.021ZM228.209 266.464C228.209 264.912 226.549 263.929 223.646 263.929C220.711 263.929 219.067 264.912 219.067 266.464C219.067 268.031 220.711 269.014 223.646 269.014C226.549 269.014 228.209 268.031 228.209 266.464ZM223.646 264.912C225.766 264.912 227.01 265.48 227.01 266.464C227.01 267.462 225.766 268.046 223.646 268.046C221.526 268.046 220.281 267.462 220.281 266.464C220.281 265.48 221.526 264.912 223.646 264.912ZM223.968 261.855H226.934V264.128H228.101V255.648H226.934V258.075H224.183V259.043H226.934V260.887H223.968V261.855ZM224.045 256.692H217.869V257.691H222.724C222.324 259.965 220.051 262.193 217.285 262.961L217.869 263.959C221.418 262.715 223.845 260.072 224.045 256.692ZM242.178 268.876V264.666H233.497V268.876H242.178ZM241.01 267.908H234.665V265.634H241.01V267.908ZM242.163 263.944V255.648H240.995V259.98H238.69V260.948H240.995V263.944H242.163ZM237.062 256.923V255.94H233.206V256.923H237.062ZM239.013 258.828V257.875H231.178V258.828H239.013ZM238.306 261.639C238.306 260.257 236.939 259.427 235.126 259.427C233.313 259.427 231.946 260.257 231.946 261.639C231.946 262.991 233.328 263.852 235.126 263.852C236.939 263.852 238.306 262.976 238.306 261.639ZM237.154 261.639C237.154 262.454 236.201 262.945 235.126 262.945C234.097 262.945 233.098 262.454 233.098 261.639C233.098 260.81 234.081 260.334 235.126 260.334C236.201 260.334 237.154 260.81 237.154 261.639ZM257.376 262.438V261.455H245.254V262.438H257.376ZM256.024 258.167C256.024 256.692 254.242 255.832 251.323 255.832C248.435 255.832 246.652 256.692 246.652 258.167C246.652 259.642 248.435 260.487 251.323 260.487C254.242 260.487 256.024 259.642 256.024 258.167ZM251.323 256.785C253.458 256.785 254.841 257.322 254.841 258.167C254.841 258.997 253.458 259.519 251.323 259.519C249.218 259.519 247.851 258.997 247.851 258.167C247.851 257.322 249.218 256.785 251.323 256.785ZM256.301 268.953V268H247.835V266.648H255.855V263.637H246.637V264.574H254.688V265.757H246.668V268.953H256.301ZM275.089 265.404V255.648H273.922V259.043H271.064V260.026H273.922V265.404H275.089ZM275.381 268.661V267.693H267.623V264.559H266.455V268.661H275.381ZM271.971 262.484C270.388 261.901 268.591 260.287 268.591 258.044V256.416H267.408V258.09C267.408 260.257 265.779 262.085 263.997 262.869L264.719 263.775C266.178 263.038 267.623 261.578 268.022 260.134C268.591 261.547 269.958 262.807 271.31 263.406L271.971 262.484ZM290.672 262.054V261.071H288.505V255.648H287.338V269.075H288.505V262.054H290.672ZM286.063 264.912C284.204 263.821 282.514 261.624 282.514 259.181V256.831H281.315V259.212C281.315 261.593 279.733 264.005 277.782 265.204L278.534 266.11C280.117 265.004 281.423 263.299 281.899 261.624C282.437 263.253 283.942 264.85 285.325 265.803L286.063 264.912ZM304.61 260.426V259.442H302.567V255.648H301.399V263.437H302.567V260.426H304.61ZM302.567 268.983V264.082H301.399V265.526H295.284V264.098H294.117V268.983H302.567ZM301.399 268H295.284V266.494H301.399V268ZM298.034 256.815V255.832H294.163V256.815H298.034ZM300.001 258.705V257.752H292.181V258.705H300.001ZM299.217 261.424C299.217 260.072 297.912 259.243 296.099 259.243C294.24 259.243 292.98 260.072 292.98 261.424C292.98 262.746 294.27 263.591 296.099 263.591C297.912 263.591 299.217 262.746 299.217 261.424ZM298.034 261.424C298.034 262.193 297.143 262.669 296.099 262.669C295.069 262.669 294.132 262.193 294.132 261.424C294.132 260.641 295.054 260.18 296.099 260.18C297.143 260.18 298.034 260.641 298.034 261.424ZM317.181 255.648H316.029V269.075H317.181V255.648ZM314.661 264.144C313.064 264.497 309.96 264.743 308.239 264.743V257.046H307.056V265.772H307.656C309.714 265.772 313.217 265.511 314.769 265.158L314.661 264.144ZM330.72 255.648H329.552V269.075H330.72V261.962H332.902V260.979H330.72V255.648ZM322.07 264.789V258.029H327.263V257.046H320.887V265.788H322.209C324.544 265.788 327.202 265.603 328.646 265.327L328.523 264.359C327.233 264.635 324.575 264.789 322.839 264.789H322.07ZM334.488 267.739H335.824V266.371H334.488V267.739Z" fill="white"/>
</svg>
