<svg width="222" height="35" viewBox="0 0 222 35" fill="none" xmlns="http://www.w3.org/2000/svg">
<path d="M143.603 22.244H145.115L147.815 12.83H147.869L150.461 22.244H151.991L154.997 10.148H153.557L151.289 19.742H151.235L148.535 10.148H147.239L144.503 19.742H144.449L142.163 10.148H140.561L143.603 22.244ZM159.592 22.406C162.04 22.406 163.696 20.696 163.696 17.888V17.6C163.696 14.792 162.166 13.118 159.61 13.118C157.162 13.118 155.524 14.846 155.524 17.654V17.96C155.524 20.75 157.018 22.406 159.592 22.406ZM159.628 21.146C158.242 21.146 157.108 20.408 157.108 17.996V17.492C157.108 15.494 158.008 14.378 159.574 14.378C160.96 14.378 162.094 15.152 162.094 17.564V18.05C162.094 20.048 161.194 21.146 159.628 21.146ZM165.028 22.244H166.558V15.26C167.188 14.846 168.034 14.576 168.88 14.576C169.024 14.576 169.312 14.594 169.564 14.63V13.262C169.474 13.226 169.222 13.19 169.006 13.19C168.034 13.19 167.062 13.694 166.576 14.288H166.486V13.298H165.028V22.244ZM170.598 22.244H172.128V9.356H170.598V22.244ZM175.89 22.244H177.654L173.874 17.51L177.384 13.298H175.71L172.272 17.618L175.89 22.244ZM181.659 24.08H183.045L187.221 9.104H185.835L181.659 24.08ZM201.709 18.05L201.565 16.826C200.665 16.952 198.919 17.096 197.335 17.186V15.674C199.261 15.422 200.593 14.162 200.593 12.506C200.593 10.652 198.919 9.248 196.543 9.248C194.167 9.248 192.493 10.652 192.493 12.506C192.493 14.162 193.789 15.422 195.751 15.674V17.258C194.275 17.312 192.745 17.33 191.593 17.33L191.827 18.662C192.907 18.662 194.941 18.608 196.723 18.5C198.523 18.392 200.557 18.212 201.709 18.05ZM206.479 15.17V13.82H204.139V8.528H202.573V20.354H204.139V15.17H206.479ZM204.535 23.954V22.676H195.607V19.598H194.005V23.954H204.535ZM198.937 12.506C198.937 13.532 198.037 14.414 196.543 14.414C195.031 14.414 194.131 13.568 194.131 12.506C194.131 11.516 195.031 10.562 196.543 10.562C198.037 10.562 198.937 11.48 198.937 12.506ZM221.147 22.262V20.966H214.811V17.276H219.563V15.98H210.221V11.102H219.473V9.806H208.637V17.276H213.209V20.966H206.945V22.262H221.147Z" fill="black"/>
<path d="M0 17.7959C0 18.1035 0.114258 18.3672 0.360352 18.5957L7.19824 25.293C7.3916 25.4863 7.6377 25.5918 7.92773 25.5918C8.50781 25.5918 8.97363 25.1348 8.97363 24.5459C8.97363 24.2559 8.85059 24.001 8.65723 23.7988L2.49609 17.7959L8.65723 11.793C8.85059 11.5908 8.97363 11.3271 8.97363 11.0459C8.97363 10.457 8.50781 10 7.92773 10C7.6377 10 7.3916 10.1055 7.19824 10.2988L0.360352 16.9873C0.114258 17.2246 0 17.4883 0 17.7959Z" fill="black"/>
</svg>
