<svg width="16" height="21" viewBox="0 0 16 21" fill="none" xmlns="http://www.w3.org/2000/svg">
<path fill-rule="evenodd" clip-rule="evenodd" d="M7.96164 0.5L7.97424 0.500212C9.22808 0.521286 11.0402 0.955477 12.5702 2.2032C14.1625 3.50182 15.3261 5.58445 15.3261 8.61833C15.3261 9.0911 15.2128 9.59547 15.0834 10.041C14.947 10.5102 14.7592 11.0238 14.5453 11.5488C14.117 12.6001 13.5501 13.7796 12.9796 14.8866C12.4072 15.9973 11.8194 17.0576 11.3413 17.8762C11.1026 18.2848 10.8868 18.6408 10.7108 18.9167C10.5744 19.1305 10.3694 19.4474 10.179 19.6426C9.40612 20.435 8.40628 20.537 7.85717 20.489C7.61371 20.4822 7.29239 20.4479 6.96561 20.3614C6.66016 20.2806 6.01379 20.0708 5.58224 19.4808C5.37212 19.1936 4.29589 17.4617 3.2151 15.4198C2.14976 13.407 0.928402 10.8171 0.59375 8.87277C-0.158273 4.50354 3.64844 0.5 7.94904 0.5H7.96164ZM7.94904 18.9903C8.17384 19.0233 8.71979 18.9903 9.10517 18.5952C9.58689 18.1013 13.8261 10.6927 13.8261 8.61833C13.8261 3.40269 9.90804 2.03293 7.94904 2C4.48063 2 1.49395 5.25978 2.07201 8.61833C2.65008 11.9769 6.50387 18.2001 6.7929 18.5952C7.02413 18.9113 7.66 18.9903 7.94904 18.9903ZM7.91333 10.1093C9.12595 10.1093 10.109 9.12625 10.109 7.91362C10.109 6.701 9.12595 5.71797 7.91333 5.71797C6.7007 5.71797 5.71768 6.701 5.71768 7.91362C5.71768 9.12625 6.7007 10.1093 7.91333 10.1093ZM11.609 7.91362C11.609 9.95467 9.95438 11.6093 7.91333 11.6093C5.87228 11.6093 4.21768 9.95467 4.21768 7.91362C4.21768 5.87257 5.87228 4.21797 7.91333 4.21797C9.95438 4.21797 11.609 5.87257 11.609 7.91362Z" fill="#929292"/>
</svg>
